<svg width="59" height="82" viewBox="0 0 59 82" fill="none" xmlns="http://www.w3.org/2000/svg">
<g clip-path="url(#clip0_161_3813)">
<path d="M55.2678 62.4003C48.4039 60.8173 39.4491 70.7288 33.4414 70.7288L34.0653 80.9968L35.5557 87.6371H47.8931L49.2099 81.8745L55.5158 69.1441C56.3712 66.9585 56.2814 64.5175 55.2678 62.4003Z" fill="#9B9B9A"/>
<path d="M47.0333 65.3684C47.9728 69.1025 43.3272 78.8768 43.2549 87.6371H47.893C47.893 87.6371 48.3079 83.3376 49.2098 81.8745C50.1118 80.4114 54.8346 69.1441 54.8346 69.1441C54.8346 69.1441 57.2127 63.6192 55.002 62.4001C54.1309 62.229 48.7284 64.0179 47.0333 65.3684Z" fill="#604386"/>
<path d="M51.0838 54.215C50.3579 52.6986 50.2056 50.9795 50.66 49.3617C51.8404 45.1616 53.9425 36.9201 54.0207 34.8313C54.1269 31.9947 49.5987 28.8869 49.5987 28.8869C49.5987 28.8869 41.8262 20.9194 31.6884 46.0969L26.9997 50.3919C25.3107 52.458 24.0254 54.8542 23.4592 57.4595C23.0034 59.5541 23.0676 61.3391 23.4826 62.8588C24.2178 65.5516 26.0552 67.411 28.057 68.6823C31.3522 70.7754 35.0924 72.3659 35.0924 72.3659C45.2548 70.7207 43.6926 63.9956 55.0025 62.3999L51.0838 54.215Z" fill="#92D3F5"/>
<path d="M48.2 28.2134L44.334 51.546L47.0333 65.3683C47.0333 65.3683 51.5292 62.7093 55.0021 62.3999L50.3705 51.0716L53.5251 34.0962L48.2 28.2134Z" fill="#61B2E4"/>
<path d="M45.2156 23.9938C49.2075 22.0363 50.4427 16.3946 47.9745 11.3928C45.5064 6.39105 40.2695 3.92323 36.2777 5.8808C32.2858 7.83837 31.0506 13.48 33.5188 18.4818C35.9869 23.4836 41.2238 25.9514 45.2156 23.9938Z" fill="#FCEA2B"/>
<path d="M30.9951 63.7944C29.6329 63.7944 28.4526 62.7816 28.2815 61.3997C28.097 59.9033 29.1637 58.5413 30.6635 58.3562C34.7326 57.8564 37.2324 56.0534 38.1373 54.6609C38.6599 53.8559 38.9247 52.746 39.2041 51.5719C39.2949 51.1921 39.3845 50.8163 39.4821 50.4498C41.3442 43.4298 41.5955 36.523 41.5981 36.4536C41.6489 34.9478 42.8668 33.7698 44.4267 33.8178C45.9372 33.8685 47.1216 35.1304 47.0708 36.6376C47.06 36.9441 46.7941 44.2359 44.7756 51.8451C44.69 52.1675 44.6112 52.4994 44.531 52.8339C44.174 54.333 43.769 56.0321 42.733 57.6272C40.6343 60.8574 36.3728 63.1548 31.3347 63.7745C31.2211 63.7877 31.1073 63.7944 30.9951 63.7944Z" fill="#FCEA2B"/>
<path d="M47.8924 13.1845H47.8787C35.0665 15.6681 34.2452 6.77103 34.2041 6.29343C35.0938 5.14719 36.271 4.27386 37.6809 3.79626C37.6809 3.79626 48.7684 -1.07528 53.1761 9.24091C56.8856 17.9469 56.4749 24.4286 56.2559 26.2435C56.2149 26.5028 55.9411 26.6802 55.6947 26.5847C53.9974 25.9706 48.4536 23.8146 47.7418 21.7131L47.8924 13.1845Z" fill="#A57939"/>
<path d="M47.8986 87.6369C47.8346 87.6369 47.769 87.6329 47.7036 87.6235C46.955 87.5156 46.4349 86.8254 46.5418 86.0791L47.1742 81.6815C47.1956 81.5389 47.2383 81.4004 47.3025 81.271L53.6079 68.5408C54.275 66.8218 54.2002 64.7576 53.3526 62.9879L49.4332 54.8032C48.5644 52.9854 48.3852 50.9213 48.9294 48.9877C50.238 44.3276 52.1709 36.5867 52.239 34.7796C52.2926 33.3491 50.0308 31.1289 48.4066 30.0102C48.3345 29.9596 48.2649 29.9016 48.2035 29.8383C48.1701 29.8064 47.0352 28.7496 45.1491 29.146C42.8726 29.6298 38.2073 32.5402 32.5435 46.6051C32.4673 46.7942 32.3497 46.9648 32.1999 47.1021L29.1027 49.9392C27.4318 51.4704 26.1805 53.1095 25.3839 54.8111C24.932 55.7786 24.5951 56.7674 24.3827 57.7469C24.0016 59.4939 24.0044 61.0929 24.388 62.5002C24.9348 64.5044 26.2769 66.1968 28.3768 67.5307C31.3632 69.4283 34.8266 69.9174 34.8614 69.9215C35.61 70.0241 36.1353 70.7103 36.0338 71.4566C35.9334 72.2028 35.249 72.7252 34.4964 72.6266C34.332 72.6039 30.4168 72.0629 26.9064 69.8334C24.2142 68.1224 22.4778 65.8969 21.7466 63.2172C21.2466 61.3822 21.2333 59.3486 21.7065 57.1698C21.9618 55.9931 22.3642 54.8111 22.9029 53.6585C23.8506 51.6303 25.313 49.7034 27.25 47.9297L30.12 45.3018C34.7985 33.7769 39.6977 27.4371 44.6838 26.4555C47.6247 25.8779 49.5535 27.3817 50.0455 27.8215C50.8569 28.3925 55.0984 31.5394 54.9741 34.8822C54.8858 37.2463 52.6387 45.9028 51.5654 49.7247C51.2005 51.0226 51.3207 52.4085 51.9035 53.6278L55.8229 61.8126C56.9953 64.2605 57.0995 67.1136 56.1104 69.6402L49.853 82.2838L49.2528 86.4656C49.1538 87.1465 48.5684 87.6369 47.8986 87.6369Z" fill="#161616"/>
<path d="M35.5597 87.637C34.8298 87.637 34.2229 87.0613 34.1936 86.327L33.7658 75.7756C33.735 75.0226 34.3232 74.3884 35.0784 74.3577C35.827 74.2858 36.4699 74.9135 36.5007 75.6663L36.9285 86.2177C36.9593 86.9707 36.3711 87.605 35.6158 87.6357C35.597 87.637 35.5784 87.637 35.5597 87.637Z" fill="#161616"/>
<path d="M43.2521 23.2416C39.0498 24.0467 34.5464 21.0583 32.8627 16.1458C31.6308 12.516 32.2467 8.77708 34.2042 6.29356C35.0939 5.14732 36.2711 4.27399 37.681 3.79639" stroke="#161616" stroke-width="4" stroke-miterlimit="10" stroke-linecap="round" stroke-linejoin="round"/>
<path d="M34.2041 6.27979C34.2041 6.27979 34.2041 6.27979 34.2041 6.29343C34.2452 6.77103 35.0665 15.6681 47.8787 13.1845" stroke="#161616" stroke-width="4" stroke-miterlimit="10" stroke-linecap="round" stroke-linejoin="round"/>
<path d="M37.6816 3.79626C37.6816 3.79626 48.7691 -1.07528 53.1768 9.24091C56.8863 17.9469 56.4756 24.4286 56.2566 26.2435C56.2156 26.5028 55.9418 26.6802 55.6954 26.5847C53.9981 25.9706 48.4543 23.8146 47.7425 21.7131L47.8931 13.1845V13.1709" stroke="#161616" stroke-width="4" stroke-miterlimit="10" stroke-linecap="round" stroke-linejoin="round"/>
<path d="M32.7942 64.0767C31.8223 64.0767 30.7649 64.0034 29.61 63.8474C28.86 63.7462 28.3348 63.0586 28.4364 62.3123C28.538 61.566 29.2277 61.0397 29.9763 61.1423C37.7414 62.1937 39.7988 59.1287 41.8747 54.6899C45.0427 46.8555 44.5067 36.3974 44.5014 36.292C44.4587 35.5406 45.0374 34.8969 45.7927 34.8555C46.5279 34.7795 47.1922 35.3885 47.2337 36.1429C47.2591 36.5946 47.8085 47.3179 44.385 55.7772C42.3225 60.1894 39.8535 64.0767 32.7942 64.0767Z" fill="#161616"/>
<g clip-path="url(#clip1_161_3813)">
<path d="M3.9434 29.0015L3.94339 29.0015C1.46679 26.2342 1.46678 21.6859 3.9434 18.9186L3.9434 18.9186C4.98742 17.752 6.04895 17.0918 7.05502 16.8447C8.03365 16.6044 9.09113 16.721 10.2389 17.3468L10.239 17.3468C11.1954 17.8682 12.4143 18.9184 12.9819 20.1823L14.3503 23.2288L15.7186 20.1823C16.2862 18.9184 17.5051 17.8682 18.4615 17.3467C19.6093 16.721 20.6668 16.6044 21.6455 16.8447C22.6516 17.0918 23.7131 17.752 24.7571 18.9186L25.7745 18.008L24.7571 18.9186C27.2337 21.6859 27.2337 26.2342 24.7571 29.0015L25.8748 30.0018L24.7571 29.0015L14.3503 40.63L3.9434 29.0015ZM10.9419 16.0574L10.957 16.0298L10.9419 16.0574Z" fill="#5C5C5C" stroke="#161616" stroke-width="3"/>
</g>
</g>
<defs>
<clipPath id="clip0_161_3813">
<rect width="58.5714" height="82" fill="white"/>
</clipPath>
<clipPath id="clip1_161_3813">
<rect width="27.5286" height="26.9429" fill="white" transform="translate(0.585938 15.2285)"/>
</clipPath>
</defs>
</svg>
