<svg width="99" height="152" viewBox="0 0 99 152" fill="none" xmlns="http://www.w3.org/2000/svg">
<path d="M94.1477 108.364C82.3855 105.643 67.0401 122.68 56.7451 122.68L57.8143 140.331L60.3683 151.745H81.5101L83.7666 141.84L94.5727 119.956C96.0385 116.199 95.8846 112.003 94.1477 108.364Z" fill="#2D2B8E"/>
<path d="M80.0363 113.466C81.6464 119.885 73.6854 136.687 73.5615 151.745H81.5096C81.5096 151.745 82.2206 144.355 83.7662 141.839C85.3117 139.324 93.405 119.956 93.405 119.956C93.405 119.956 97.4802 110.459 93.6919 108.363C92.1991 108.069 82.9412 111.144 80.0363 113.466Z" fill="#1A0646"/>
<path opacity="0.4" d="M86.9767 94.2936C85.7327 91.6868 85.4717 88.7318 86.2504 85.9507C88.2731 78.731 91.8754 64.564 92.0093 60.9732C92.1914 56.0973 84.4316 50.755 84.4316 50.755C84.4316 50.755 69.5 40.9998 51.5 77.4997L53.7397 83.0367C50.8453 86.5883 54.7099 100.41 53.7397 104.889C52.9586 108.489 57.2146 122.144 57.9259 124.756C54.4955 122.571 59.1857 129.385 57.9259 124.756C59.0371 125.495 59.5729 125.495 59.5729 125.495C76.9878 122.666 74.3107 111.106 93.6919 108.363L86.9767 94.2936Z" fill="#45413B"/>
<path d="M82.0351 49.5977L75.4102 89.7059L80.0358 113.466C80.0358 113.466 87.7402 108.895 93.6914 108.364L85.7546 88.8906L91.1605 59.7101L82.0351 49.5977Z" fill="#131612"/>
<path d="M81.1747 40.2505C90.3656 35.7293 94.3875 25.0941 90.158 16.4962C85.9285 7.89822 75.0492 4.59332 65.8583 9.11449C56.6675 13.6357 52.6455 24.2708 56.875 32.8688C61.1045 41.4667 71.9839 44.7716 81.1747 40.2505Z" fill="#FFF589"/>
<path d="M81.5076 23.7623H81.4841C59.5286 28.0314 58.1212 12.7376 58.0508 11.9166C59.5755 9.94626 61.5928 8.44502 64.0088 7.62403C64.0088 7.62403 83.0088 -0.750037 90.5619 16.9833C96.9187 31.9487 75.7094 16.5834 75.3341 19.7032C64.4582 -11.9893 84.1625 20.3723 81.4841 23.7623C78.5755 22.7067 80.628 25.1674 79.4082 21.555L81.5076 23.7623Z" fill="#736148"/>
<path d="M59.5655 151.745C58.643 151.745 57.876 150.755 57.8389 149.493L57.2983 131.355C57.2594 130.061 58.0028 128.971 58.9572 128.918C59.9033 128.794 60.7159 129.873 60.7548 131.167L61.2954 149.305C61.3343 150.599 60.591 151.69 59.6364 151.743C59.6127 151.745 59.5892 151.745 59.5655 151.745Z" fill="#161616"/>
<path d="M73.5559 41.0499C66.3547 42.4339 58.6374 37.2969 55.7522 28.8524C53.6411 22.6129 54.6967 16.1858 58.051 11.9166C59.5757 9.94625 61.593 8.44501 64.009 7.62402" stroke="#161616" stroke-width="5.22" stroke-miterlimit="10" stroke-linecap="round" stroke-linejoin="round"/>
<path d="M58.0508 11.8926C58.0508 11.8926 58.0508 11.8926 58.0508 11.916C58.1212 12.737 59.5286 28.0308 81.4841 23.7617" stroke="#161616" stroke-width="4.22" stroke-miterlimit="10" stroke-linecap="round" stroke-linejoin="round"/>
<path d="M64.5938 7.48069C64.5938 7.48069 84.4481 -0.623022 92.0011 17.1103C98.3579 32.0757 82.0061 20.2869 81.6308 23.4067" stroke="#161616" stroke-width="5.22" stroke-miterlimit="10" stroke-linecap="round" stroke-linejoin="round"/>
<path d="M74.2219 67.8516L72.7405 91.1849C72.3701 94.3948 71.1849 101.333 69.4071 103.407C68.9133 105.012 68.296 108.444 63.8516 109.333" stroke="#FFF589" stroke-width="7" stroke-linecap="round" stroke-linejoin="round"/>
<path d="M58.2966 125.629C56.5682 122.296 53.1115 113.926 53.1115 107.111C53.7287 101.185 54.5929 88.5181 53.1115 85.2589C51.2597 72.2959 59.5559 59.4811 73.4818 51.1848C77.6794 48.2218 90.8892 51.1848 90.8892 58.9626L86.0744 82.6663C84.4695 85.7527 82.5929 93.1107 87.9263 97.8515C98.3429 107.111 97.1855 119.703 90.8892 125.629L84.5929 138.963C83.7287 139.333 80.5189 149.703 80.5189 149.703M75.7039 68.9625L75.3335 82.6663L74.9631 96.37C74.0989 101.185 70.963 110.814 65.3335 110.814" stroke="#161616" stroke-width="4" stroke-linecap="round" stroke-linejoin="round"/>
<path d="M81.1788 23.3365H81.1555C59.2809 28.0002 57.8787 11.2931 57.8086 10.3962C59.3277 8.24379 61.3375 6.60383 63.7446 5.70698C63.7446 5.70698 82.6745 -3.4409 90.1997 15.9311C96.5331 32.2794 95.832 44.451 95.458 47.859C95.3879 48.3459 94.9205 48.679 94.4999 48.4996C91.602 47.3465 82.3941 51.8052 81.1788 47.859V23.3365Z" fill="#FF2E00"/>
<path d="M73.8241 40.161C66.6495 41.5356 58.9606 36.4334 56.0861 28.0463C53.9828 21.8491 55.0344 15.4655 58.3764 11.2254C59.8955 9.26838 61.9053 7.77733 64.3124 6.96191" stroke="#161616" stroke-width="4" stroke-miterlimit="10" stroke-linecap="round" stroke-linejoin="round"/>
<path d="M58.377 11.2021C58.377 11.2021 58.377 11.2021 58.377 11.2254C58.4471 12.0409 59.8493 27.2309 81.7238 22.9907" stroke="#161616" stroke-width="4" stroke-miterlimit="10" stroke-linecap="round" stroke-linejoin="round"/>
<path d="M62.5 7.49939C62.5 7.49939 83.2424 -1.35567 90.7676 16.2573C97.1009 31.1212 96.3998 42.1876 96.0259 45.2862C95.9558 45.7288 88.9323 54.6302 90 39.4994C89.8916 41.9994 82.9619 55.5872 81.7467 51.9994V22.9903V22.9671" stroke="#161616" stroke-width="4" stroke-miterlimit="10" stroke-linecap="round" stroke-linejoin="round"/>
<path d="M39.5475 72.533C37.3323 69.4576 31.2049 61.3433 26.1748 54.6657C28.2114 51.7425 29.8354 49.3547 30.5787 48.1052C35.0996 40.5147 33.1362 35.6396 30.6431 31.5137C28.1441 27.3848 27.7491 25 20.3107 25C12.8694 25 12.4743 27.3848 9.9783 31.5166C7.47934 35.6426 5.51879 40.5176 10.0398 48.1081C10.783 49.3547 12.407 51.7454 14.4466 54.6686C9.41355 61.3433 3.28611 69.4605 1.07098 72.536C0.555973 73.2499 0.602792 74.4789 1.09732 75.7021C1.47772 76.6443 2.94082 80.858 3.29781 81.7418C3.7543 82.88 5.2408 83.7023 6.46395 82.011C7.16916 81.0336 14.0194 71.6961 20.3107 62.9263C26.5991 71.6932 33.4522 81.0336 34.1574 82.011C35.3776 83.7023 36.8671 82.88 37.3236 81.7418C37.6805 80.8551 39.1436 76.6443 39.524 75.7021C40.0127 74.476 40.0625 73.247 39.5475 72.533ZM19.2397 45.3926C16.1145 41.0502 13.8789 35.9966 13.8789 35.9966C13.8789 35.9966 15.1079 33.7786 20.3107 33.7786C25.5134 33.7786 26.7424 35.9966 26.7424 35.9966C26.7424 35.9966 24.501 41.0502 21.3787 45.3926L20.3107 46.8469C19.95 46.3649 19.593 45.8801 19.2397 45.3926Z" fill="#5C5C5C"/>
<path fill-rule="evenodd" clip-rule="evenodd" d="M22.4706 54.7344L23.7133 52.9508C25.7682 50.0013 27.3236 47.7091 28.0004 46.5715L28.0012 46.57C30.0058 43.2045 30.4242 40.7113 30.2528 38.7746C30.185 38.0083 30.0209 37.2744 29.7782 36.5515L29.4848 37.213L26.7424 35.9966L29.0107 34.7398C29.0104 34.7393 29.0102 34.7389 29.01 34.7384C28.6737 34.9258 28.0184 35.2896 26.7424 35.9966C26.7424 35.9966 25.5134 33.7786 20.3107 33.7786C15.1079 33.7786 13.8789 35.9966 13.8789 35.9966C12.6024 35.2893 11.9471 34.9255 11.6109 34.7382C11.6107 34.7386 11.6105 34.7391 11.6102 34.7396L13.8789 35.9966L11.1354 37.2103L10.8422 36.5476C10.598 37.2727 10.4329 38.0088 10.3649 38.7775C10.1936 40.7138 10.6124 43.207 12.6172 46.573C13.2952 47.7098 14.8523 50.0072 16.907 52.9521L18.1523 54.737L16.8419 56.4749C16.5682 56.8379 16.2913 57.205 16.0122 57.5752C11.2992 63.8249 5.933 70.9409 3.71526 73.9988C3.72084 74.0402 3.72923 74.089 3.74159 74.1449C3.76924 74.2701 3.81356 74.4167 3.8786 74.5776L3.87916 74.579C4.095 75.1136 4.57159 76.4475 5.00758 77.6677L5.03142 77.7345C5.12591 77.9989 5.21841 78.2577 5.30714 78.5056C5.31495 78.4949 5.3228 78.4841 5.33068 78.4734C7.74029 75.1738 12.9553 68.0327 17.8731 61.1776L20.3108 57.7795L22.7484 61.1778C27.6663 68.034 32.8858 75.1806 35.2943 78.4785C35.3009 78.4874 35.3074 78.4964 35.3139 78.5052C35.4028 78.2569 35.4954 77.9978 35.59 77.7331L35.6075 77.6842C36.0432 76.4651 36.5206 75.1293 36.739 74.587C36.8035 74.4244 36.8478 74.2761 36.8755 74.1492C36.8885 74.09 36.8971 74.0387 36.9028 73.9954C34.8255 71.1312 29.9883 64.7119 25.5127 58.7723C24.9261 57.9939 24.3457 57.2236 23.7786 56.4708L22.4706 54.7344ZM37.1132 74.2864C37.1133 74.2865 37.113 74.2862 37.1132 74.2864ZM39.524 75.7021C39.3298 76.1832 38.8534 77.5163 38.386 78.824C37.938 80.0776 37.4983 81.3078 37.3236 81.7418C36.8671 82.88 35.3776 83.7023 34.1574 82.011C34.0058 81.8008 33.5697 81.2038 32.9161 80.3089C30.8267 77.448 26.5137 71.5426 22.1584 65.4967C21.5413 64.64 20.9233 63.7804 20.3107 62.9264C19.698 63.7805 19.0799 64.64 18.4628 65.4966C14.1087 71.5404 9.799 77.4417 7.70866 80.3041C7.05316 81.2016 6.61591 81.8004 6.46395 82.011C5.2408 83.7023 3.7543 82.88 3.29781 81.7418C3.12194 81.3064 2.67761 80.0628 2.22654 78.8004C1.76201 77.5003 1.29032 76.1801 1.09732 75.7021C0.602792 74.4789 0.555973 73.2499 1.07098 72.536C3.16272 69.6318 8.74308 62.2319 13.5962 55.7963C13.8825 55.4167 14.1663 55.0404 14.4466 54.6686C12.407 51.7454 10.783 49.3547 10.0398 48.1081C5.51879 40.5176 7.47934 35.6426 9.9783 31.5166C10.2668 31.0391 10.5272 30.585 10.7736 30.1551C12.6598 26.8655 13.7293 25 20.3107 25C26.8873 25 27.958 26.8643 29.8451 30.15C30.0923 30.5805 30.3536 31.0354 30.6431 31.5137C33.1362 35.6396 35.0996 40.5147 30.5787 48.1052C29.8354 49.3547 28.2114 51.7425 26.1748 54.6657C26.7424 55.4193 27.3241 56.1912 27.9125 56.972C32.5381 63.1106 37.5823 69.8047 39.5475 72.533C40.0625 73.247 40.0127 74.476 39.524 75.7021ZM28.059 33.0381C27.7579 32.5396 27.4862 32.0665 27.2457 31.6478C27.2254 31.6124 27.2053 31.5774 27.1855 31.5429C26.9181 31.0776 26.6962 30.6943 26.4793 30.3487C26.0483 29.6619 25.731 29.2806 25.4138 29.0175C24.8806 28.5752 23.7865 28 20.3107 28C16.8329 28 15.7386 28.5754 15.2057 29.0176C14.8889 29.2805 14.5718 29.6616 14.1413 30.3485C13.9247 30.6941 13.703 31.0775 13.436 31.543C13.4156 31.5785 13.395 31.6144 13.3742 31.6508C13.135 32.0679 12.865 32.539 12.5658 33.0352C12.8662 32.7867 13.2219 32.5338 13.6404 32.2915C15.1294 31.4292 17.2747 30.7786 20.3107 30.7786C23.3467 30.7786 25.492 31.4292 26.9809 32.2915C27.401 32.5347 27.7579 32.7887 28.059 33.0381Z" fill="#161616"/>
</svg>
