<svg width="63" height="84" viewBox="0 0 63 84" fill="none" xmlns="http://www.w3.org/2000/svg">
<path d="M59.8291 59.3412C53.4339 57.8618 45.0906 67.1252 39.4932 67.1252L40.0745 76.7219L41.4631 82.928H52.958L54.1849 77.5422L60.0602 65.6441C60.8572 63.6014 60.7735 61.32 59.8291 59.3412Z" fill="#9B9B9A"/>
<path d="M52.1561 62.1155C53.0315 65.6054 48.7031 74.7406 48.6357 82.9282H52.9572C52.9572 82.9282 53.3437 78.9098 54.1841 77.5423C55.0244 76.1749 59.4247 65.6443 59.4247 65.6443C59.4247 65.6443 61.6404 60.4806 59.5807 59.3412C58.7691 59.1813 53.7355 60.8533 52.1561 62.1155Z" fill="#604386"/>
<path d="M55.9298 51.6917C55.2534 50.2744 55.1115 48.6677 55.5349 47.1556C56.6346 43.2302 58.5932 35.5276 58.666 33.5753C58.765 30.9242 54.546 28.0196 54.546 28.0196C54.546 28.0196 47.3043 20.573 37.8587 44.1044L37.8587 45.5713C36.2851 47.5023 38.3862 55.0173 37.8588 57.4522C37.4341 59.4099 39.7481 66.834 40.1348 68.2543C38.2697 67.0662 40.8198 70.7711 40.1348 68.2543C40.7389 68.6558 41.0303 68.6558 41.0303 68.6558C50.4988 67.1181 49.0432 60.8328 59.5809 59.3414L55.9298 51.6917Z" fill="#92F5AE"/>
<path d="M53.2426 27.3901L49.6406 49.1972L52.1556 62.1158C52.1556 62.1158 56.3445 59.6306 59.5802 59.3415L55.2649 48.7539L58.2041 32.8883L53.2426 27.3901Z" fill="#93E461"/>
<path d="M52.7751 22.3079C57.7722 19.8497 59.9589 14.0674 57.6593 9.39261C55.3597 4.71786 49.4446 2.92098 44.4475 5.37915C39.4504 7.83733 37.2636 13.6197 39.5632 18.2945C41.8628 22.9692 47.778 24.7661 52.7751 22.3079Z" fill="#FFF589"/>
<path d="M52.9557 13.3432H52.9429C41.0056 15.6644 40.2404 7.34905 40.2021 6.90267C41.0311 5.83137 42.1279 5.01514 43.4416 4.56877C43.4416 4.56877 53.7719 0.0157507 57.8786 9.65744C61.3348 17.7942 49.8032 9.44002 49.5992 11.1362C43.6859 -6.09509 54.3992 11.5001 52.9429 13.3432C51.3615 12.7693 52.4775 14.1071 51.8143 12.1431L52.9557 13.3432Z" fill="#736148"/>
<path d="M41.0264 82.9281C40.5249 82.9281 40.1078 82.39 40.0877 81.7038L39.7938 71.8422C39.7726 71.1385 40.1768 70.5457 40.6957 70.517C41.2101 70.4498 41.6519 71.0364 41.6731 71.74L41.967 81.6016C41.9882 82.3053 41.584 82.8981 41.065 82.9268C41.0521 82.9281 41.0393 82.9281 41.0264 82.9281Z" fill="#161616"/>
<path d="M48.633 22.7432C44.7177 23.4956 40.5217 20.7026 38.9531 16.1113C37.8052 12.7189 38.3792 9.22439 40.2029 6.90324C41.0319 5.83194 42.1287 5.01571 43.4423 4.56934" stroke="#161616" stroke-width="4" stroke-miterlimit="10" stroke-linecap="round" stroke-linejoin="round"/>
<path d="M40.2031 6.89062C40.2031 6.89062 40.2031 6.89063 40.2031 6.90338C40.2414 7.34975 41.0066 15.6651 52.9439 13.3439" stroke="#161616" stroke-width="4" stroke-miterlimit="10" stroke-linecap="round" stroke-linejoin="round"/>
<path d="M43.7598 4.49151C43.7598 4.49151 54.5546 0.0854919 58.6613 9.72718C62.1175 17.8639 53.2269 11.4543 53.0229 13.1505" stroke="#161616" stroke-width="4" stroke-miterlimit="10" stroke-linecap="round" stroke-linejoin="round"/>
<path d="M48.9949 37.3149L48.1894 50.0014C47.988 51.7466 47.3436 55.519 46.377 56.6467C46.1085 57.5193 45.7729 59.3853 43.3564 59.8686" stroke="#FFF589" stroke-width="7" stroke-linecap="round" stroke-linejoin="round"/>
<path d="M40.3359 68.7288C39.3961 66.9165 37.5167 62.3655 37.5167 58.6602C37.8523 55.4383 38.3222 48.5514 37.5167 46.7793C36.5099 39.7313 41.0205 32.7638 48.5921 28.2531C50.8743 26.6421 58.0566 28.2531 58.0566 32.4819L55.4388 45.3697C54.5662 47.0478 53.5459 51.0484 56.4456 53.6259C62.1092 58.6602 61.4799 65.5069 58.0566 68.7288L54.6333 75.9782C54.1634 76.1796 52.4182 81.818 52.4182 81.818M49.8003 37.9189L49.5989 45.3697L49.3975 52.8204C48.9276 55.4383 47.2226 60.6739 44.1619 60.6739" stroke="#161616" stroke-width="4" stroke-linecap="round" stroke-linejoin="round"/>
<path d="M23.6059 36.1745L21.1118 34.7148ZM24.18 41.0054L22.9973 39.1895L20.1112 41.7839C19.5155 42.3194 19.2177 42.5871 18.8758 42.7139C18.574 42.8259 18.2492 42.8592 17.9314 42.8109C17.5714 42.7561 17.2266 42.5543 16.5371 42.1508L10.3957 38.5563C9.70617 38.1527 9.36149 37.951 9.13471 37.6623C8.93448 37.4074 8.80061 37.1057 8.74532 36.7847C8.68274 36.4212 8.7625 36.0258 8.9221 35.235L9.69545 31.4041L7.55273 31.2737M14.4609 30.8221L11.9668 29.3623ZM20.6694 37.827L12.0233 32.7666C10.6264 31.949 9.92806 31.5403 9.55145 30.9524C9.22019 30.4353 9.05894 29.8253 9.0908 29.2096C9.127 28.5096 9.53019 27.8016 10.3367 26.3856L11.6326 24.11C11.8557 23.7184 11.9672 23.5226 12.0918 23.3785C12.6039 22.7866 13.4171 22.5657 14.1525 22.8187C14.3315 22.8804 14.5247 22.9934 14.911 23.2195L15.3267 23.4628C16.245 24.0003 16.5596 25.1906 16.0294 26.1216C15.8969 26.3543 15.9756 26.6519 16.2051 26.7862L23.6874 31.1655C23.917 31.2999 24.2105 31.2201 24.3431 30.9874C24.8733 30.0565 26.0475 29.7375 26.9658 30.275L27.3815 30.5183C27.7678 30.7444 27.9609 30.8574 28.1031 30.9838C28.6869 31.5028 28.9048 32.3273 28.6552 33.0728C28.5944 33.2543 28.4829 33.4501 28.2599 33.8417L26.9639 36.1173C26.1574 37.5333 25.7543 38.2413 25.1744 38.6231C24.6643 38.9589 24.0625 39.1223 23.4551 39.09C22.7647 39.0534 22.0663 38.6446 20.6694 37.827Z" fill="#5C5C5C"/>
<path d="M23.6059 36.1745L21.1118 34.7148M24.18 41.0054L22.9973 39.1895L20.1112 41.7839C19.5155 42.3194 19.2177 42.5871 18.8758 42.7139C18.574 42.8259 18.2492 42.8592 17.9314 42.8109C17.5714 42.7561 17.2266 42.5543 16.5371 42.1508L10.3957 38.5563C9.70617 38.1527 9.36149 37.951 9.13471 37.6623C8.93448 37.4074 8.80061 37.1057 8.74532 36.7847C8.68274 36.4212 8.7625 36.0258 8.9221 35.235L9.69545 31.4041L7.55273 31.2737M14.4609 30.8221L11.9668 29.3623M20.6694 37.827L12.0233 32.7666C10.6264 31.949 9.92806 31.5403 9.55145 30.9524C9.22019 30.4353 9.05894 29.8253 9.0908 29.2096C9.127 28.5096 9.53019 27.8016 10.3367 26.3856L11.6326 24.11C11.8557 23.7184 11.9672 23.5226 12.0918 23.3785C12.6039 22.7866 13.4171 22.5657 14.1525 22.8187C14.3315 22.8804 14.5247 22.9934 14.911 23.2195L15.3267 23.4628C16.245 24.0003 16.5596 25.1906 16.0294 26.1216C15.8969 26.3543 15.9756 26.6519 16.2051 26.7862L23.6874 31.1655C23.917 31.2999 24.2105 31.2201 24.3431 30.9874C24.8733 30.0565 26.0475 29.7375 26.9658 30.275L27.3815 30.5183C27.7678 30.7444 27.9609 30.8574 28.1031 30.9838C28.6869 31.5028 28.9048 32.3273 28.6552 33.0728C28.5944 33.2543 28.4829 33.4501 28.2599 33.8417L26.9639 36.1173C26.1574 37.5333 25.7543 38.2413 25.1744 38.6231C24.6643 38.9589 24.0625 39.1223 23.4551 39.09C22.7647 39.0534 22.0663 38.6446 20.6694 37.827Z" stroke="#161616" stroke-width="3" stroke-linecap="round" stroke-linejoin="round"/>
<path d="M2 43.0938H28.5963" stroke="#161616" stroke-width="3" stroke-linecap="round"/>
</svg>
