<svg width="69" height="82" viewBox="0 0 69 82" fill="none" xmlns="http://www.w3.org/2000/svg">
<g clip-path="url(#clip0_161_3891)">
<path d="M65.2325 60.3006C58.6263 58.7724 50.0077 68.3414 44.2256 68.3414L44.8261 78.2547L46.2605 84.6656H58.1347L59.4021 79.1021L65.4712 66.8115C66.2945 64.7014 66.2081 62.3447 65.2325 60.3006Z" fill="#F9F9BE"/>
<path d="M57.3074 63.1659C58.2117 66.7709 53.7405 76.2076 53.6709 84.6653H58.1349C58.1349 84.6653 58.5342 80.5143 59.4023 79.1017C60.2703 77.6892 64.8159 66.8111 64.8159 66.8111C64.8159 66.8111 67.1047 61.4771 64.977 60.3001C64.1386 60.1349 58.9389 61.862 57.3074 63.1659Z" fill="#635216"/>
<path d="M61.2058 52.398C60.5072 50.9339 60.3605 49.2742 60.7979 47.7122C61.934 43.6573 63.9572 35.7005 64.0324 33.6838C64.1346 30.9452 59.7764 27.9448 59.7764 27.9448C59.7764 27.9448 51.3902 21.6233 43.2463 42.1233L42.5385 46.0756C40.9129 48.0704 43.0834 55.8333 42.5385 58.3486C42.0998 60.3708 44.4902 68.0399 44.8896 69.5071C42.963 68.2798 45.5972 72.1069 44.8896 69.5071C45.5137 69.9218 45.8147 69.9218 45.8147 69.9218C55.5956 68.3334 54.092 61.8407 64.9774 60.3001L61.2058 52.398Z" fill="#37463B"/>
<path d="M58.4308 27.2944L54.71 49.821L57.3079 63.1658C57.3079 63.1658 61.6351 60.5987 64.9775 60.3L60.5199 49.3631L63.556 32.974L58.4308 27.2944Z" fill="#292929"/>
<path d="M57.947 22.0448C63.109 19.5055 65.3679 13.5324 62.9924 8.70337C60.617 3.87438 54.5066 2.01821 49.3446 4.55749C44.1827 7.09678 41.9238 13.0699 44.2992 17.8989C46.6747 22.7279 52.785 24.5841 57.947 22.0448Z" fill="#FFCFB5"/>
<path d="M59.4052 17.3611L58.4112 12.0752C44.8905 15.5515 45.0033 8.38357 44.96 7.71504C45.8989 6.11056 47.1412 4.8881 48.629 4.21956C48.629 4.21956 60.3297 -2.59945 64.981 11.8409C68.8957 24.0273 55.3221 16.2874 58.1123 11.8408C56.1646 3.36966 60.0606 9.31465 58.4112 12.0752C56.62 11.2156 58.8635 18.5052 58.1123 15.5636L59.4052 17.3611Z" fill="#2F2414"/>
<path d="M45.8103 84.6654C45.2922 84.6654 44.8614 84.1096 44.8406 83.4007L44.537 73.2137C44.5151 72.4868 44.9326 71.8744 45.4686 71.8448C46 71.7754 46.4564 72.3814 46.4783 73.1082L46.7819 83.2952C46.8037 84.0221 46.3862 84.6345 45.8501 84.6641C45.8368 84.6654 45.8236 84.6654 45.8103 84.6654Z" fill="#161616"/>
<path d="M53.6682 22.4942C49.6237 23.2715 45.2893 20.3863 43.6689 15.6435C42.4832 12.1391 43.0761 8.52935 44.96 6.13161C45.8163 5.02497 46.9493 4.18181 48.3063 3.7207" stroke="#161616" stroke-width="4" stroke-miterlimit="10" stroke-linecap="round" stroke-linejoin="round"/>
<path d="M44.96 6.11865C44.96 6.11865 44.96 6.11865 44.96 6.13183C44.9995 6.59293 45.7899 15.1826 58.1211 12.7849" stroke="#161616" stroke-width="4" stroke-miterlimit="10" stroke-linecap="round" stroke-linejoin="round"/>
<path d="M48.6348 3.64038C48.6348 3.64038 59.7858 -0.911024 64.028 9.0488C67.5982 17.454 63.1854 17.4111 60.658 19.096L58.1306 13.1988" stroke="#161616" stroke-width="4" stroke-miterlimit="10" stroke-linecap="round" stroke-linejoin="round"/>
<path d="M54.0422 37.5469L53.2102 50.6519C53.0021 52.4547 52.3365 56.3515 51.338 57.5164C51.0607 58.4178 50.714 60.3455 48.2178 60.8447" stroke="#FFCFB5" stroke-width="7" stroke-linecap="round" stroke-linejoin="round"/>
<path d="M33.7317 68.2728L33.7318 68.2734L34.5028 72.1198L34.5028 72.1199C34.5735 72.4722 34.9163 72.7005 35.2685 72.6303L35.2698 72.63C35.3942 72.6047 35.5046 72.545 35.5913 72.4619C35.7461 72.3135 35.8242 72.0908 35.7794 71.8647L35.7792 71.8641L35.0082 68.0177L35.0082 68.0176C34.9375 67.6652 34.5947 67.437 34.2425 67.5072L34.2425 67.5072L34.2411 67.5074C33.8904 67.5788 33.6617 67.9205 33.7317 68.2728Z" fill="#161616" stroke="#161616" stroke-width="0.7"/>
<path d="M33.3141 61.9512L33.3138 61.9512C32.9592 62.0114 32.7212 62.3473 32.7806 62.7011L32.7807 62.7015L33.5384 67.186L33.5384 67.186C33.5983 67.5406 33.9343 67.7791 34.2885 67.7194L34.2885 67.7194C34.4223 67.6969 34.5399 67.6345 34.6305 67.5475C34.78 67.4041 34.8592 67.1905 34.8222 66.9696L34.8221 66.9691L34.0644 62.4846L34.0644 62.4844C34.0043 62.1301 33.6686 61.8914 33.3141 61.9512Z" fill="#161616" stroke="#161616" stroke-width="0.7"/>
<path d="M33.8883 68.9453L33.8886 68.9458C33.9896 69.1997 33.9196 69.479 33.7343 69.6568C33.6757 69.713 33.6053 69.7594 33.5254 69.7913C33.5253 69.7913 33.5253 69.7913 33.5252 69.7914L33.3955 69.4663L33.8883 68.9453ZM33.8883 68.9453L31.0568 61.8639L31.0567 61.8638M33.8883 68.9453L31.0567 61.8638M31.0567 61.8638C30.923 61.53 30.5447 61.3682 30.2113 61.5011M31.0567 61.8638L30.2113 61.5011M30.2113 61.5011C30.2114 61.501 30.2115 61.501 30.2117 61.5009L30.3407 61.8262L30.2113 61.5011Z" fill="#161616" stroke="#161616" stroke-width="0.7"/>
<path d="M36.0025 70.9977L35.6879 65.6713C35.6879 65.6713 35.6879 65.6713 35.6879 65.6713C35.6667 65.3128 35.9401 65.0038 36.2996 64.983M36.0025 70.9977L36.2996 64.983M36.0025 70.9977C36.0025 70.9977 36.0025 70.9978 36.0025 70.9978C36.0236 71.3567 36.332 71.6303 36.6905 71.6093L36.0025 70.9977ZM36.2996 64.983C36.658 64.9622 36.9662 65.2358 36.9873 65.5946M36.2996 64.983C36.2995 64.9831 36.2994 64.9831 36.2993 64.9831L36.9873 65.5946M36.9873 65.5946C36.9873 65.5946 36.9873 65.5946 36.9873 65.5947M36.9873 65.5946L36.9873 65.5947M36.9873 65.5947L37.3019 70.9206C37.3019 70.9207 37.3019 70.9207 37.3019 70.9208L37.3019 70.9211L36.9525 70.9417C36.958 71.0334 36.9218 71.1178 36.8604 71.1767C36.8105 71.2245 36.7442 71.2556 36.67 71.2599C36.5042 71.2696 36.3616 71.1429 36.3519 70.9772L36.9873 65.5947Z" fill="#161616" stroke="#161616" stroke-width="0.7"/>
<path d="M37.9821 68.1289L37.9822 68.1281C38.0411 67.7748 38.3743 67.5333 38.7302 67.5922C38.7303 67.5922 38.7304 67.5923 38.7306 67.5923L38.6732 67.9375C38.8372 67.9644 38.9483 68.1191 38.9213 68.283L37.9821 68.1289ZM37.9821 68.1289L37.4947 71.0977C37.4947 71.0978 37.4947 71.0978 37.4947 71.0979C37.4363 71.4526 37.6768 71.7871 38.0312 71.8454C38.2424 71.8804 38.4459 71.8088 38.5877 71.6728C38.686 71.5786 38.7554 71.4526 38.7792 71.3091L38.7792 71.3087M37.9821 68.1289L38.7792 71.3087M39.2667 68.3399L39.2667 68.3397L38.9215 68.283L39.2667 68.3399ZM39.2667 68.3399L38.7792 71.3087M39.2667 68.3399L38.7792 71.3087" fill="#161616" stroke="#161616" stroke-width="0.7"/>
<path d="M39.2022 64.8339L39.2014 64.8338C38.8477 64.7826 38.515 65.0266 38.4637 65.3845L38.2157 67.081C38.2157 67.081 38.2157 67.081 38.2156 67.0811C38.1636 67.4368 38.4097 67.767 38.7651 67.8193L38.7659 67.8195C38.9724 67.8494 39.1709 67.7785 39.3102 67.6449C39.4106 67.5486 39.482 67.4184 39.5036 67.2691C39.5036 67.269 39.5036 67.2688 39.5036 67.2686L39.7517 65.5722C39.7517 65.5722 39.7517 65.5722 39.7517 65.5722C39.8037 65.2165 39.5577 64.8862 39.2022 64.8339Z" fill="#161616" stroke="#161616" stroke-width="0.7"/>
<path d="M29.6188 73.1412C29.6188 73.1412 29.6187 73.1411 29.6187 73.1411L23.6989 71.3155C23.6989 71.3155 23.6988 71.3155 23.6987 71.3154L23.6986 71.3154L23.8017 70.9809L29.6188 73.1412ZM29.6188 73.1412C29.8534 73.2136 30.0971 73.1464 30.2614 72.9888M29.6188 73.1412L30.2614 72.9888M30.2614 72.9888C30.3384 72.915 30.3992 72.8204 30.4329 72.7101M30.2614 72.9888L30.4329 72.7101M30.4329 72.7101L30.0982 72.6079M30.4329 72.7101L30.0982 72.6079M30.0982 72.6079L30.4327 72.7107C30.538 72.368 30.3465 72.0033 30.0025 71.8974M30.0982 72.6079C30.0827 72.6586 30.0548 72.702 30.0192 72.7362C29.9428 72.8095 29.8302 72.8401 29.722 72.8067L30.0025 71.8974M30.0025 71.8974C30.0024 71.8974 30.0024 71.8974 30.0024 71.8974" fill="#161616" stroke="#161616" stroke-width="0.7"/>
<path d="M27.8047 74.6164L27.8051 74.6165C28.0005 74.6343 28.1842 74.5635 28.3152 74.4378C28.4238 74.3337 28.4978 74.1903 28.5127 74.028L28.5127 74.0279C28.5455 73.6699 28.2825 73.3535 27.9249 73.32L27.9244 73.32L24.951 73.0452L24.951 73.0452L24.9502 73.0451C24.5948 73.0131 24.276 73.274 24.243 73.6337C24.2102 73.9917 24.4733 74.3081 24.8309 74.3416L24.8313 74.3416L27.8047 74.6164Z" fill="#161616" stroke="#161616" stroke-width="0.7"/>
<path d="M30.5065 77.4715L30.5065 77.4715L30.5056 77.4719C30.1766 77.6111 30.0192 77.9906 30.1579 78.323L30.1579 78.323L30.1582 78.3236C30.2973 78.655 30.6788 78.811 31.0104 78.6719L31.0104 78.6719L32.9425 77.861L32.9425 77.861L32.9438 77.8605C33.0183 77.8288 33.0847 77.7846 33.141 77.7305C33.3291 77.5502 33.3982 77.2654 33.2909 77.0091L33.2908 77.009C33.1517 76.6774 32.77 76.5214 32.4386 76.6606C32.4385 76.6606 32.4385 76.6606 32.4385 76.6606L30.5065 77.4715Z" fill="#161616" stroke="#161616" stroke-width="0.7"/>
<path d="M33.81 74.8324L33.81 74.8321C33.8737 74.4785 33.6383 74.1399 33.2843 74.0765C33.2843 74.0765 33.2842 74.0765 33.2842 74.0765C33.2842 74.0765 33.2841 74.0765 33.284 74.0765L29.2563 73.3542L29.2562 73.3541C28.9023 73.2907 28.5639 73.5258 28.5006 73.8801L28.8452 73.9417L28.5007 73.8797C28.437 74.2333 28.6724 74.572 29.0264 74.6353C29.0264 74.6353 29.0265 74.6353 29.0265 74.6353C29.0265 74.6353 29.0266 74.6353 29.0267 74.6354L33.0542 75.3576C33.0543 75.3576 33.0544 75.3577 33.0544 75.3577C33.2681 75.3961 33.4758 75.3251 33.6201 75.1867C33.7161 75.0946 33.7847 74.9721 33.81 74.8324Z" fill="#161616" stroke="#161616" stroke-width="0.7"/>
<path d="M26.5314 76.0935L26.5314 76.0938C26.5379 76.4529 26.8342 76.7392 27.1937 76.7328C27.1937 76.7328 27.1937 76.7328 27.1937 76.7328C27.1938 76.7328 27.1938 76.7328 27.1939 76.7328L32.7278 76.6354C32.728 76.6354 32.7281 76.6354 32.7283 76.6354C32.8992 76.6326 33.0538 76.5636 33.1676 76.4545C33.2932 76.334 33.3711 76.1624 33.3679 75.9735L33.3679 75.9733C33.3615 75.6139 33.0649 75.3277 32.7056 75.3341C32.7056 75.3341 32.7056 75.3341 32.7056 75.3341L27.1712 75.4315C27.1711 75.4315 27.171 75.4315 27.171 75.4315C27.1709 75.4315 27.1709 75.4315 27.1709 75.4315C26.8112 75.4377 26.5252 75.7342 26.5314 76.0935Z" fill="#161616" stroke="#161616" stroke-width="0.7"/>
<path d="M33.9585 73.5879C34.1553 73.2862 34.0693 72.883 33.7682 72.687L33.7682 72.687L33.6654 73.3967M33.9585 73.5879L33.6654 73.3967M33.9585 73.5879C33.9586 73.5879 33.9586 73.5878 33.9586 73.5878L33.6654 73.3967M33.9585 73.5879C33.9313 73.6296 33.8995 73.6681 33.8636 73.7025C33.6504 73.907 33.3172 73.9466 33.0583 73.7781L33.2492 73.4847C33.3686 73.5625 33.5228 73.5445 33.6214 73.4499C33.6377 73.4342 33.6525 73.4164 33.6654 73.3967M25.0997 67.8213C24.9032 68.1229 24.9892 68.5259 25.2902 68.7218L25.2902 68.7219L33.0582 73.778L25.0997 67.8213ZM25.0997 67.8213L25.393 68.0122L25.0999 67.821C25.0998 67.8211 25.0998 67.8212 25.0997 67.8213Z" fill="#161616" stroke="#161616" stroke-width="0.7"/>
<path d="M31.3673 69.5098L27.8179 66.2439L27.8178 66.2438C27.5462 65.9941 27.1469 66.0298 26.9066 66.2734L26.9065 66.2733L26.8984 66.2821C26.6548 66.5466 26.6718 66.9584 26.9366 67.2019C26.9366 67.2019 26.9367 67.202 26.9367 67.202L30.486 70.4678C30.486 70.4678 30.486 70.4679 30.486 70.4679C30.7406 70.7021 31.1308 70.695 31.377 70.4588C31.3875 70.4487 31.3969 70.4389 31.4008 70.4347L31.4016 70.4339L31.4016 70.4339L31.3673 69.5098ZM31.3673 69.5098L31.3674 69.5099L31.1304 69.7675L31.3673 69.5098Z" fill="#161616" stroke="#161616" stroke-width="0.7"/>
<path d="M34.2566 72.4853C34.2794 72.4682 34.299 72.4509 34.3156 72.435C34.5508 72.2094 34.5852 71.8393 34.384 71.5731L34.384 71.573L31.2777 67.4651C31.2777 67.4651 31.2777 67.4651 31.2777 67.4651C31.0611 67.1787 30.6538 67.1218 30.3671 67.3375C30.0761 67.5545 30.0243 67.9655 30.239 68.2499L30.2392 68.2502L33.3455 72.3581L33.3455 72.3582C33.5622 72.6445 33.9698 72.7015 34.2566 72.4853ZM34.2566 72.4853C34.2564 72.4854 34.2562 72.4856 34.2559 72.4858L34.0462 72.2055L34.2573 72.4847C34.2571 72.4849 34.2568 72.4851 34.2566 72.4853Z" fill="#161616" stroke="#161616" stroke-width="0.7"/>
<path d="M10.9153 50.6361C8.9196 48.684 8.88423 45.4837 10.8363 43.488V43.488L26.2943 58.6081C27.2922 59.5841 27.3099 61.1843 26.3338 62.1821V62.1821C25.3578 63.18 23.7576 63.1977 22.7598 62.2216L10.9153 50.6361Z" fill="#5C5C5C"/>
<path d="M27.0772 58.3778L27.0772 58.3777C25.4722 56.7856 22.8575 54.164 20.2873 51.5869L20.0363 51.3352L20.1425 51.2293L20.0363 51.3352L19.0785 50.3748L18.8233 50.1189H19.1847H20.8771C21.365 50.1189 21.757 49.7294 21.757 49.2535C21.757 48.7776 21.365 48.3881 20.8771 48.3881H17.1587H17.0965L17.0525 48.3441C16.439 47.7295 15.85 47.1397 15.3254 46.6154C14.9832 46.2737 14.4258 46.2703 14.0792 46.6073C13.7345 46.943 13.7309 47.4895 14.071 47.83C14.5219 48.2803 15.8305 49.5913 17.4272 51.1911C20.5342 54.3038 24.7324 58.5098 25.8277 59.5967C26.2881 60.053 26.2902 60.7939 25.8298 61.2474C25.3708 61.7008 24.6226 61.6996 24.1613 61.2461C20.9952 58.1426 12.443 49.8222 9.87592 47.3253L9.76612 47.2185L9.87519 47.1109L12.2315 44.7876C12.5742 44.4497 12.5742 43.9032 12.2315 43.5653C12.0598 43.396 11.8347 43.311 11.6087 43.311C11.5084 43.311 11.4052 43.3328 11.302 43.3707L11.1769 43.4165L11.1166 43.2977L10.3365 41.7594C10.2103 41.5108 9.9705 41.3364 9.69054 41.2913C9.64302 41.284 9.59556 41.2802 9.54906 41.2802C9.31686 41.2802 9.09238 41.3707 8.92626 41.5345L5.83679 44.5807L5.83667 44.5809C5.63697 44.7773 5.54602 45.0561 5.59084 45.3301C5.63617 45.604 5.81201 45.8405 6.0654 45.9657L7.62664 46.7354L7.74877 46.7956L7.70063 46.923C7.66214 47.0248 7.63906 47.1255 7.63941 47.2256C7.64027 47.4558 7.73385 47.676 7.90063 47.8379L7.90072 47.838L7.79629 47.9454L7.79626 47.9455L7.90075 47.8381L7.90082 47.8381L7.90111 47.8384L7.90228 47.8395L7.90691 47.8441L7.92529 47.8619L7.99749 47.9321L8.27574 48.2028L9.30429 49.2032C10.1757 50.0509 11.3863 51.2288 12.7432 52.5495L12.7885 52.5937V52.657L12.7885 56.3614C12.7885 56.8373 13.1805 57.2268 13.6684 57.2268C14.1562 57.2268 14.5482 56.8373 14.5482 56.3614L14.5482 54.6621V54.3067L14.8028 54.5546C17.8816 57.5525 21.1969 60.7837 22.9191 62.4717L22.9192 62.4718C24.0667 63.598 25.9326 63.5969 27.076 62.47C28.2171 61.3449 28.2184 59.5096 27.0772 58.3778ZM12.6385 52.657C9.92481 50.0156 7.79615 47.9456 7.79615 47.9456C7.60054 47.7557 7.49042 47.4969 7.48941 47.2262C7.48898 47.1026 7.51745 46.9833 7.56032 46.8699L12.6385 52.657ZM9.16165 43.7528L9.30792 43.6086L9.40077 43.7918L9.7839 44.5478C9.78962 44.5546 9.79738 44.5647 9.8046 44.5781L9.85827 44.6772L9.77802 44.7563L9.10439 45.4205L9.02628 45.4975L8.9292 45.4464C8.91588 45.4394 8.90575 45.4319 8.89899 45.4263C8.89898 45.4263 8.89897 45.4263 8.89896 45.4263L8.13163 45.0483L7.94238 44.955L8.09261 44.8069L9.16165 43.7528ZM9.79148 44.5628C9.79145 44.5628 9.79143 44.5627 9.7914 44.5627L9.79148 44.5628ZM8.91396 45.4337L8.91355 45.4335L8.91396 45.4337ZM7.08239 40.7259C7.42509 40.388 7.42509 39.8416 7.08239 39.5037L5.02274 37.4729C4.85099 37.3035 4.62591 37.2186 4.39994 37.2186C4.17397 37.2186 3.94889 37.3035 3.77714 37.4729C3.43444 37.8108 3.43444 38.3572 3.77714 38.6951L5.83679 40.7259C6.18066 41.065 6.73852 41.065 7.08239 40.7259ZM3.52012 42.1456C3.52012 42.6216 3.912 43.011 4.39994 43.011C4.88788 43.011 5.27977 42.6216 5.27977 42.1456C5.27977 41.6697 4.88787 41.2802 4.39994 41.2802C3.91201 41.2802 3.52012 41.6697 3.52012 42.1456Z" fill="#161616" stroke="white" stroke-width="0.3"/>
<path d="M45.0985 69.9977C44.1278 68.1255 42.1863 63.4244 42.1863 59.5969C42.533 56.2686 43.0184 49.1544 42.1863 47.3239C41.1463 40.0433 45.8058 32.846 53.6272 28.1864C55.9847 26.5223 63.404 28.1864 63.404 32.5547L60.6998 45.8678C59.7984 47.6013 58.7444 51.7339 61.7398 54.3965C67.5903 59.5969 66.9403 66.6694 63.404 69.9977L59.8677 77.4863C59.3823 77.6943 57.5795 83.5187 57.5795 83.5187M54.8752 38.1712L54.6672 45.8678L54.4592 53.5644C53.9738 56.2686 52.2125 61.677 49.0508 61.677" stroke="#161616" stroke-width="4" stroke-linecap="round" stroke-linejoin="round"/>
</g>
<defs>
<clipPath id="clip0_161_3891">
<rect width="68.5205" height="82" fill="white"/>
</clipPath>
</defs>
</svg>
