<svg width="18" height="18" viewBox="0 0 18 18" fill="none" xmlns="http://www.w3.org/2000/svg">
<g clip-path="url(#clip0_11_1606)">
<path d="M17.2498 8.25C17.0509 8.25 16.8601 8.32902 16.7195 8.46967C16.5788 8.61032 16.4998 8.80109 16.4998 9C16.5059 10.744 15.9061 12.4359 14.8029 13.7866C13.6998 15.1373 12.1617 16.063 10.4517 16.4054C8.74168 16.7477 6.96583 16.4856 5.42768 15.6636C3.88954 14.8417 2.6846 13.5111 2.01882 11.8993C1.35304 10.2874 1.26775 8.4943 1.77753 6.82651C2.28731 5.15871 3.36052 3.71974 4.8137 2.75555C6.26689 1.79136 8.00984 1.36182 9.74465 1.54033C11.4795 1.71884 13.0984 2.49433 14.3248 3.73425C14.3001 3.74098 14.2751 3.74624 14.2498 3.75H11.9998C11.8009 3.75 11.6101 3.82902 11.4695 3.96967C11.3288 4.11032 11.2498 4.30109 11.2498 4.5C11.2498 4.69891 11.3288 4.88968 11.4695 5.03033C11.6101 5.17098 11.8009 5.25 11.9998 5.25H14.2498C14.8465 5.25 15.4188 5.01295 15.8408 4.59099C16.2627 4.16903 16.4998 3.59674 16.4998 3V0.75C16.4998 0.551088 16.4208 0.360322 16.2801 0.21967C16.1395 0.0790176 15.9487 0 15.7498 0C15.5509 0 15.3601 0.0790176 15.2195 0.21967C15.0788 0.360322 14.9998 0.551088 14.9998 0.75V2.29875C13.4642 0.925898 11.504 0.121625 9.44668 0.0203269C7.38938 -0.0809709 5.35963 0.526843 3.6966 1.7422C2.03358 2.95756 0.838019 4.70684 0.309711 6.69773C-0.218596 8.68862 -0.0476497 10.8005 0.793985 12.6805C1.63562 14.5605 3.09696 16.0947 4.9338 17.0268C6.77065 17.9589 8.87174 18.2323 10.886 17.8014C12.9002 17.3706 14.7055 16.2615 16.0003 14.6595C17.2951 13.0576 18.0009 11.0598 17.9998 9C17.9998 8.80109 17.9208 8.61032 17.7801 8.46967C17.6395 8.32902 17.4487 8.25 17.2498 8.25ZM8.99979 4.5C8.80088 4.5 8.61012 4.57902 8.46946 4.71967C8.32881 4.86032 8.24979 5.05109 8.24979 5.25V9C8.24984 9.1989 8.32888 9.38963 8.46954 9.53025L10.7195 11.7802C10.861 11.9169 11.0504 11.9925 11.2471 11.9908C11.4437 11.989 11.6319 11.9102 11.7709 11.7711C11.91 11.6321 11.9888 11.4439 11.9905 11.2473C11.9923 11.0507 11.9167 10.8612 11.78 10.7198L9.74979 8.6895V5.25C9.74979 5.05109 9.67078 4.86032 9.53012 4.71967C9.38947 4.57902 9.19871 4.5 8.99979 4.5Z" fill="white"/>
</g>
<defs>
<clipPath id="clip0_11_1606">
<rect width="18" height="18" fill="white"/>
</clipPath>
</defs>
</svg>
