<svg width="22" height="22" viewBox="0 0 22 22" fill="none" xmlns="http://www.w3.org/2000/svg">
<g clip-path="url(#clip0_14_17)">
<path d="M18.7782 3.2218C16.7005 1.14423 13.9382 0 11 0C8.0618 0 5.29946 1.14423 3.2218 3.2218C1.14423 5.29946 0 8.0618 0 11C0 13.9382 1.14423 16.7005 3.2218 18.7782C5.29946 20.8558 8.0618 22 11 22C12.4847 22 13.9254 21.7091 15.2819 21.1353L14.7517 19.882C13.5639 20.3844 12.3016 20.6392 11 20.6392C5.68494 20.6392 1.36082 16.3151 1.36082 11C1.36082 5.68494 5.68494 1.36082 11 1.36082C16.3151 1.36082 20.6392 5.68494 20.6392 11C20.6392 13.3281 19.2088 14.3884 17.8797 14.3884C16.5507 14.3884 15.1203 13.3281 15.1203 11C15.1203 8.72806 13.2719 6.87974 11 6.87974C8.72806 6.87974 6.87974 8.7281 6.87974 11C6.87974 13.2719 8.72806 15.1203 11 15.1203C12.3452 15.1203 13.5417 14.4722 14.2942 13.4721C14.4869 13.8611 14.7294 14.2131 15.0218 14.5205C15.7754 15.3129 16.7903 15.7492 17.8797 15.7492C18.9691 15.7492 19.9841 15.3128 20.7377 14.5205C21.5635 13.6522 22 12.4349 22 11C22 8.0618 20.8558 5.29946 18.7782 3.2218ZM11 13.7594C9.47846 13.7594 8.24057 12.5215 8.24057 11C8.24057 9.47846 9.47846 8.24057 11 8.24057C12.5215 8.24057 13.7594 9.47846 13.7594 11C13.7594 12.5215 12.5215 13.7594 11 13.7594Z" fill="#D70025"/>
</g>
<defs>
<clipPath id="clip0_14_17">
<rect width="22" height="22" fill="white"/>
</clipPath>
</defs>
</svg>
