<svg width="35" height="35" viewBox="0 0 35 35" fill="none" xmlns="http://www.w3.org/2000/svg">
<g clip-path="url(#clip0_280_3573)">
<path d="M17.5035 14.4183V21.105H27.0322C25.7862 25.1563 22.4 28.056 17.5035 28.056C11.6725 28.056 6.94575 23.3293 6.94575 17.5C6.94575 11.6707 11.6725 6.944 17.5035 6.944C20.125 6.944 22.519 7.90475 24.3652 9.48675L29.2898 4.56225C26.18 1.729 22.043 0 17.5035 0C7.8365 0 0 7.83475 0 17.5C0 27.1652 7.8365 35 17.5035 35C32.1965 35 35.4393 21.2625 33.999 14.441L17.5035 14.4183Z" fill="white"/>
</g>
<defs>
<clipPath id="clip0_280_3573">
<rect width="35" height="35" fill="white"/>
</clipPath>
</defs>
</svg>
