<svg width="23" height="20" viewBox="0 0 23 20" fill="none" xmlns="http://www.w3.org/2000/svg">
<path d="M0.769812 11.91H2.58507V19.2171C2.58507 19.6477 2.93515 20 3.36303 20H8.67911C9.10698 20 9.45707 19.6477 9.45707 19.2171V13.8672H12.6986V19.2171C12.6986 19.6477 13.0486 20 13.4765 20H18.5333C18.9611 20 19.3112 19.6477 19.3112 19.2171V11.91H21.5154C21.8266 11.91 22.1119 11.7143 22.2286 11.4272C22.3453 11.1402 22.2804 10.8009 22.06 10.5791L11.9206 0.231719C11.6224 -0.0684094 11.1297 -0.0814424 10.8314 0.218685L0.238237 10.566C0.00484882 10.7879 -0.0599964 11.1271 0.0566976 11.4272C0.173392 11.7273 0.458628 11.91 0.769812 11.91ZM11.3501 1.88885L19.6483 10.3442H18.5332C18.1053 10.3442 17.7552 10.6965 17.7552 11.1271V18.4342H14.2544V13.0843C14.2544 12.6538 13.9043 12.3014 13.4765 12.3014H8.67911C8.25123 12.3014 7.90114 12.6538 7.90114 13.0843V18.4342H4.14099V11.1271C4.14099 10.6965 3.79091 10.3442 3.36303 10.3442H2.68881L11.3501 1.88885Z" fill="#161616"/>
</svg>
