<svg width="35" height="35" viewBox="0 0 35 35" fill="none" xmlns="http://www.w3.org/2000/svg">
<path d="M26.762 6.25049C25.6247 6.25049 24.7148 7.17024 24.7148 8.29768C24.7148 9.42511 25.6346 10.3449 26.762 10.3449C27.8895 10.3449 28.8092 9.42511 28.8092 8.29768C28.8092 7.17024 27.8895 6.25049 26.762 6.25049Z" fill="white"/>
<path d="M17.6433 8.8811C12.8962 8.8811 9.0293 12.748 9.0293 17.4951C9.0293 22.2422 12.8962 26.1091 17.6433 26.1091C22.3904 26.1091 26.2573 22.2422 26.2573 17.4951C26.2573 12.748 22.3904 8.8811 17.6433 8.8811ZM17.6433 23.0136C14.5973 23.0136 12.1248 20.5412 12.1248 17.4951C12.1248 14.4491 14.5973 11.9766 17.6433 11.9766C20.6894 11.9766 23.1618 14.4491 23.1618 17.4951C23.1618 20.5412 20.6894 23.0136 17.6433 23.0136Z" fill="white"/>
<path d="M24.4871 35H10.5129C4.71743 35 0 30.2826 0 24.4871V10.5129C0 4.71743 4.71743 0 10.5129 0H24.4871C30.2826 0 35 4.71743 35 10.5129V24.4871C35 30.2826 30.2826 35 24.4871 35ZM10.5129 3.30319C6.53716 3.30319 3.2933 6.53716 3.2933 10.5227V24.497C3.2933 28.4727 6.52727 31.7166 10.5129 31.7166H24.4871C28.4628 31.7166 31.7067 28.4826 31.7067 24.497V10.5227C31.7067 6.54705 28.4727 3.30319 24.4871 3.30319H10.5129Z" fill="white"/>
</svg>
