<svg width="222" height="65" viewBox="0 0 222 65" fill="none" xmlns="http://www.w3.org/2000/svg">
<path d="M8.80659 59.3754C-12.5954 39.2237 9.4441 11.3953 27.9161 0C43.2032 12.5948 60.4014 37.7843 45.1143 57.5761C35.5598 68.3717 17.0871 65.9727 8.80659 59.3754Z" fill="url(#paint0_linear_501_9264)"/>
<path d="M4.75903 48.7501V26.0001H11.0965V43.6476H19.839V26.0001H26.1765V48.7501H4.75903ZM23.414 53.3976V47.3201L24.7465 48.7501H19.839V43.6476H29.2965V53.3976H23.414Z" fill="#D70025"/>
<path d="M40.9544 49.0426C38.8744 49.0426 37.0544 48.6526 35.4944 47.8726C33.956 47.071 32.7536 45.9876 31.8869 44.6226C31.0419 43.236 30.6194 41.6651 30.6194 39.9101C30.6194 38.1551 31.0311 36.5951 31.8544 35.2301C32.6994 33.8435 33.8586 32.7709 35.3319 32.0126C36.8052 31.2326 38.4627 30.8426 40.3044 30.8426C42.0377 30.8426 43.6194 31.2001 45.0494 31.9151C46.4794 32.6085 47.6169 33.6376 48.4619 35.0026C49.3069 36.3676 49.7294 38.0251 49.7294 39.9751C49.7294 40.1918 49.7186 40.441 49.6969 40.7226C49.6752 41.0043 49.6536 41.2643 49.6319 41.5026H35.6894V38.2526H46.3494L44.0094 39.1626C44.0311 38.361 43.8794 37.6676 43.5544 37.0826C43.2511 36.4976 42.8177 36.0426 42.2544 35.7176C41.7127 35.3926 41.0735 35.2301 40.3369 35.2301C39.6002 35.2301 38.9502 35.3926 38.3869 35.7176C37.8452 36.0426 37.4227 36.5085 37.1194 37.1151C36.8161 37.7001 36.6644 38.3935 36.6644 39.1951V40.1376C36.6644 41.0043 36.8377 41.7518 37.1844 42.3801C37.5527 43.0085 38.0727 43.496 38.7444 43.8426C39.4161 44.1676 40.2177 44.3301 41.1494 44.3301C42.0161 44.3301 42.7527 44.211 43.3594 43.9726C43.9877 43.7126 44.6052 43.3226 45.2119 42.8026L48.4619 46.1826C47.6169 47.1143 46.5769 47.8293 45.3419 48.3276C44.1069 48.8043 42.6444 49.0426 40.9544 49.0426Z" fill="#D70025"/>
<path d="M52.9928 48.7501V31.1351H59.1353V37.6676H65.4728V31.1351H71.6478V48.7501H65.4728V42.5751H59.1353V48.7501H52.9928Z" fill="#D70025"/>
<path d="M79.7452 48.7501V34.6776L81.0777 36.0426H74.0577V31.1351H91.5427V36.0426H84.5227L85.8877 34.6776V48.7501H79.7452Z" fill="#D70025"/>
<path d="M105.018 49.0426C103.523 49.0426 102.244 48.7176 101.183 48.0676C100.121 47.396 99.3086 46.3993 98.7452 45.0776C98.2036 43.7343 97.9327 42.0226 97.9327 39.9426C97.9327 37.841 98.1927 36.1293 98.7127 34.8076C99.2327 33.4643 100.013 32.4676 101.053 31.8176C102.114 31.1676 103.436 30.8426 105.018 30.8426C106.621 30.8426 108.073 31.2218 109.373 31.9801C110.694 32.7168 111.734 33.7676 112.493 35.1326C113.273 36.476 113.663 38.0793 113.663 39.9426C113.663 41.806 113.273 43.4201 112.493 44.7851C111.734 46.1501 110.694 47.201 109.373 47.9376C108.073 48.6743 106.621 49.0426 105.018 49.0426ZM93.9352 55.0551V31.1351H99.8177V34.1251L99.7852 39.9426L100.11 45.7926V55.0551H93.9352ZM103.718 44.1351C104.411 44.1351 105.029 43.9726 105.57 43.6476C106.134 43.3226 106.578 42.846 106.903 42.2176C107.249 41.5893 107.423 40.831 107.423 39.9426C107.423 39.0543 107.249 38.296 106.903 37.6676C106.578 37.0393 106.134 36.5626 105.57 36.2376C105.029 35.9126 104.411 35.7501 103.718 35.7501C103.024 35.7501 102.396 35.9126 101.833 36.2376C101.291 36.5626 100.847 37.0393 100.5 37.6676C100.175 38.296 100.013 39.0543 100.013 39.9426C100.013 40.831 100.175 41.5893 100.5 42.2176C100.847 42.846 101.291 43.3226 101.833 43.6476C102.396 43.9726 103.024 44.1351 103.718 44.1351Z" fill="#D70025"/>
<path d="M140.809 48.7501L134.406 37.9276L139.574 34.8726L148.056 48.7501H140.809ZM126.314 48.7501V26.0001H132.716V48.7501H126.314ZM130.864 40.0401V34.8401H139.119V40.0401H130.864ZM140.191 38.0576L134.244 37.4076L141.231 26.0001H147.991L140.191 38.0576Z" fill="#D70025"/>
<path d="M161.226 49.0426C159.731 49.0426 158.453 48.7176 157.391 48.0676C156.33 47.396 155.517 46.3993 154.954 45.0776C154.412 43.7343 154.141 42.0226 154.141 39.9426C154.141 37.841 154.401 36.1293 154.921 34.8076C155.441 33.4643 156.221 32.4676 157.261 31.8176C158.323 31.1676 159.645 30.8426 161.226 30.8426C162.83 30.8426 164.281 31.2218 165.581 31.9801C166.903 32.7168 167.943 33.7676 168.701 35.1326C169.481 36.476 169.871 38.0793 169.871 39.9426C169.871 41.806 169.481 43.4201 168.701 44.7851C167.943 46.1501 166.903 47.201 165.581 47.9376C164.281 48.6743 162.83 49.0426 161.226 49.0426ZM150.144 55.0551V31.1351H156.026V34.1251L155.994 39.9426L156.319 45.7926V55.0551H150.144ZM159.926 44.1351C160.62 44.1351 161.237 43.9726 161.779 43.6476C162.342 43.3226 162.786 42.846 163.111 42.2176C163.458 41.5893 163.631 40.831 163.631 39.9426C163.631 39.0543 163.458 38.296 163.111 37.6676C162.786 37.0393 162.342 36.5626 161.779 36.2376C161.237 35.9126 160.62 35.7501 159.926 35.7501C159.233 35.7501 158.605 35.9126 158.041 36.2376C157.5 36.5626 157.055 37.0393 156.709 37.6676C156.384 38.296 156.221 39.0543 156.221 39.9426C156.221 40.831 156.384 41.5893 156.709 42.2176C157.055 42.846 157.5 43.3226 158.041 43.6476C158.605 43.9726 159.233 44.1351 159.926 44.1351Z" fill="#D70025"/>
<path d="M181.514 49.0426C179.586 49.0426 177.874 48.6526 176.379 47.8726C174.884 47.0926 173.703 46.0201 172.837 44.6551C171.992 43.2685 171.569 41.6868 171.569 39.9101C171.569 38.1335 171.992 36.5626 172.837 35.1976C173.703 33.8326 174.884 32.7709 176.379 32.0126C177.874 31.2326 179.586 30.8426 181.514 30.8426C183.442 30.8426 185.154 31.2326 186.649 32.0126C188.166 32.7709 189.347 33.8326 190.192 35.1976C191.037 36.5626 191.459 38.1335 191.459 39.9101C191.459 41.6868 191.037 43.2685 190.192 44.6551C189.347 46.0201 188.166 47.0926 186.649 47.8726C185.154 48.6526 183.442 49.0426 181.514 49.0426ZM181.514 44.1351C182.229 44.1351 182.857 43.9726 183.399 43.6476C183.962 43.3226 184.407 42.846 184.732 42.2176C185.057 41.5676 185.219 40.7985 185.219 39.9101C185.219 39.0218 185.057 38.2743 184.732 37.6676C184.407 37.0393 183.962 36.5626 183.399 36.2376C182.857 35.9126 182.229 35.7501 181.514 35.7501C180.821 35.7501 180.192 35.9126 179.629 36.2376C179.087 36.5626 178.643 37.0393 178.297 37.6676C177.972 38.2743 177.809 39.0218 177.809 39.9101C177.809 40.7985 177.972 41.5676 178.297 42.2176C178.643 42.846 179.087 43.3226 179.629 43.6476C180.192 43.9726 180.821 44.1351 181.514 44.1351Z" fill="#D70025"/>
<path d="M194.355 48.7501V31.1351H203.813C206.088 31.1351 207.864 31.536 209.143 32.3376C210.421 33.1176 211.06 34.2443 211.06 35.7176C211.06 37.126 210.464 38.2526 209.273 39.0976C208.103 39.921 206.521 40.3326 204.528 40.3326L205.08 39.0326C207.225 39.0326 208.839 39.4335 209.923 40.2351C211.028 41.0151 211.58 42.1635 211.58 43.6801C211.58 45.2401 210.973 46.4751 209.76 47.3851C208.568 48.2951 206.738 48.7501 204.268 48.7501H194.355ZM199.88 44.7526H203.715C204.473 44.7526 205.037 44.6226 205.405 44.3626C205.773 44.081 205.958 43.6693 205.958 43.1276C205.958 42.5643 205.773 42.1526 205.405 41.8926C205.058 41.6326 204.517 41.5026 203.78 41.5026H199.88V44.7526ZM199.88 38.2201H203.26C203.997 38.2201 204.538 38.0901 204.885 37.8301C205.232 37.5485 205.405 37.1476 205.405 36.6276C205.405 36.1076 205.232 35.7285 204.885 35.4901C204.538 35.2301 203.997 35.1001 203.26 35.1001H199.88V38.2201Z" fill="#D70025"/>
<path d="M214.699 48.7501V31.1351H220.874V48.7501H214.699ZM217.787 29.1851C216.66 29.1851 215.75 28.8709 215.057 28.2426C214.364 27.6143 214.017 26.8343 214.017 25.9026C214.017 24.971 214.364 24.1909 215.057 23.5626C215.75 22.9343 216.66 22.6201 217.787 22.6201C218.914 22.6201 219.824 22.9235 220.517 23.5301C221.21 24.1151 221.557 24.8735 221.557 25.8051C221.557 26.7801 221.21 27.5926 220.517 28.2426C219.845 28.8709 218.935 29.1851 217.787 29.1851Z" fill="#D70025"/>
<path d="M4.75903 48.75V26H11.0965V43.6475H19.839V26H26.1765V48.75H4.75903ZM23.414 53.3975V47.32L24.7465 48.75H19.839V43.6475H29.2965V53.3975H23.414Z" fill="white"/>
<path d="M40.9544 49.0425C38.8744 49.0425 37.0544 48.6525 35.4944 47.8725C33.956 47.0708 32.7536 45.9875 31.8869 44.6225C31.0419 43.2358 30.6194 41.665 30.6194 39.91C30.6194 38.155 31.0311 36.595 31.8544 35.23C32.6994 33.8433 33.8586 32.7708 35.3319 32.0125C36.8052 31.2325 38.4627 30.8425 40.3044 30.8425C42.0377 30.8425 43.6194 31.2 45.0494 31.915C46.4794 32.6083 47.6169 33.6375 48.4619 35.0025C49.3069 36.3675 49.7294 38.025 49.7294 39.975C49.7294 40.1917 49.7186 40.4408 49.6969 40.7225C49.6752 41.0042 49.6536 41.2642 49.6319 41.5025H35.6894V38.2525H46.3494L44.0094 39.1625C44.0311 38.3608 43.8794 37.6675 43.5544 37.0825C43.2511 36.4975 42.8177 36.0425 42.2544 35.7175C41.7127 35.3925 41.0735 35.23 40.3369 35.23C39.6002 35.23 38.9502 35.3925 38.3869 35.7175C37.8452 36.0425 37.4227 36.5083 37.1194 37.115C36.8161 37.7 36.6644 38.3933 36.6644 39.195V40.1375C36.6644 41.0042 36.8377 41.7517 37.1844 42.38C37.5527 43.0083 38.0727 43.4958 38.7444 43.8425C39.4161 44.1675 40.2177 44.33 41.1494 44.33C42.0161 44.33 42.7527 44.2108 43.3594 43.9725C43.9877 43.7125 44.6052 43.3225 45.2119 42.8025L48.4619 46.1825C47.6169 47.1142 46.5769 47.8292 45.3419 48.3275C44.1069 48.8042 42.6444 49.0425 40.9544 49.0425Z" fill="white"/>
<defs>
<linearGradient id="paint0_linear_501_9264" x1="17.4149" y1="-11.89" x2="13.0737" y2="36.4511" gradientUnits="userSpaceOnUse">
<stop stop-color="#D70025"/>
<stop offset="1" stop-color="#4B0612"/>
</linearGradient>
</defs>
</svg>
