<svg width="393" height="87" viewBox="0 0 393 87" fill="none" xmlns="http://www.w3.org/2000/svg">
<path d="M48.1157 37.7891C47.0892 38.5777 45.7421 39.1161 43.989 39.2063V14.862L50.5296 27.2716C50.8796 27.9746 51.1273 29.0809 51.1561 30.3706C51.1848 31.6553 50.9951 33.0787 50.509 34.3991C50.0233 35.7183 49.2484 36.9189 48.1157 37.7891Z" fill="#D70025" stroke="#D70025" stroke-width="1.06"/>
<path d="M38.8023 37.7891C39.8288 38.5777 41.1759 39.1161 42.929 39.2063V14.862L36.3884 27.2716C36.0383 27.9746 35.7906 29.0809 35.7618 30.3706C35.7332 31.6553 35.9229 33.0787 36.409 34.3991C36.8946 35.7183 37.6696 36.9189 38.8023 37.7891Z" fill="#D70025" stroke="#D70025" stroke-width="1.06"/>
<path d="M49.7587 46.64L53.8887 47.5993L53.8887 47.5993L49.7587 46.64ZM64.44 30.7793C66.4673 29.6072 69.0609 30.3005 70.2329 32.3278C71.405 34.355 70.7117 36.9486 68.6845 38.1206L64.44 30.7793ZM49.7587 74.2C45.5202 74.3139 45.5202 74.3138 45.5202 74.3135C45.5202 74.3133 45.5202 74.313 45.5202 74.3125C45.5202 74.3117 45.5201 74.3105 45.5201 74.3089C45.52 74.3058 45.5199 74.3011 45.5197 74.295C45.5194 74.2828 45.5189 74.2647 45.5183 74.2409C45.517 74.1934 45.5152 74.1232 45.5128 74.0316C45.5081 73.8485 45.5012 73.5802 45.4927 73.238C45.4758 72.5536 45.4524 71.5736 45.4263 70.3889C45.3743 68.0206 45.3117 64.8297 45.27 61.5459C45.2283 58.2678 45.2071 54.8724 45.2388 52.1038C45.2546 50.7225 45.2839 49.4653 45.3328 48.4424C45.3753 47.5548 45.4446 46.4727 45.6286 45.6806L53.8887 47.5993C53.9067 47.522 53.8515 47.8371 53.8032 48.8476C53.7613 49.7228 53.7335 50.8644 53.7182 52.2009C53.6877 54.8677 53.7079 58.1836 53.7493 61.4382C53.7906 64.6871 53.8526 67.8501 53.9043 70.2026C53.9301 71.3783 53.9534 72.3504 53.9701 73.0281C53.9785 73.3669 53.9853 73.632 53.99 73.8121C53.9923 73.9022 53.9941 73.971 53.9953 74.0171C53.9959 74.0402 53.9964 74.0576 53.9967 74.0691C53.9969 74.0749 53.997 74.0792 53.997 74.082C53.9971 74.0834 53.9971 74.0845 53.9971 74.0851C53.9971 74.0855 53.9971 74.0857 53.9971 74.0859C53.9971 74.086 53.9971 74.086 49.7587 74.2ZM45.6286 45.6806C45.8394 44.7733 46.2626 44.0673 46.561 43.6327C46.8862 43.1587 47.2564 42.7321 47.6048 42.3673C48.3003 41.6388 49.1538 40.9033 50.0262 40.2099C51.7858 38.8114 53.9934 37.2932 56.0906 35.9232C58.2057 34.5414 60.2898 33.2577 61.8392 32.3225C62.6156 31.8539 63.2617 31.4705 63.7154 31.2032C63.9423 31.0696 64.1213 30.9648 64.2446 30.8929C64.3063 30.857 64.354 30.8292 64.3869 30.8101C64.4034 30.8005 64.4161 30.7932 64.425 30.788C64.4294 30.7854 64.4329 30.7834 64.4354 30.782C64.4367 30.7812 64.4377 30.7807 64.4385 30.7802C64.4389 30.78 64.4392 30.7798 64.4394 30.7797C64.4398 30.7795 64.44 30.7793 66.5623 34.45C68.6845 38.1206 68.6846 38.1206 68.6847 38.1205C68.6846 38.1205 68.6847 38.1205 68.6846 38.1206C68.6843 38.1207 68.6839 38.121 68.6832 38.1214C68.6818 38.1222 68.6794 38.1236 68.6761 38.1255C68.6695 38.1293 68.659 38.1354 68.6449 38.1436C68.6167 38.16 68.5738 38.1849 68.517 38.218C68.4036 38.2842 68.2352 38.3827 68.0195 38.5098C67.5879 38.764 66.968 39.1319 66.221 39.5827C64.7235 40.4865 62.7311 41.7142 60.7284 43.0226C58.7077 44.3427 56.7559 45.6934 55.3026 46.8485C54.5685 47.4319 54.0521 47.8944 53.7379 48.2235C53.5814 48.3874 53.5368 48.4544 53.5527 48.4312C53.5634 48.4156 53.6101 48.3464 53.6686 48.2276C53.7252 48.1127 53.8192 47.8987 53.8887 47.5993L45.6286 45.6806Z" fill="#D70025"/>
<path d="M36.7423 46.64L32.6123 47.5993L32.6123 47.5993L36.7423 46.64ZM22.0609 30.7793C20.0337 29.6072 17.4401 30.3005 16.2681 32.3278C15.096 34.355 15.7893 36.9486 17.8165 38.1206L22.0609 30.7793ZM36.7423 74.2C40.9808 74.3139 40.9808 74.3138 40.9808 74.3135C40.9808 74.3133 40.9808 74.313 40.9808 74.3125C40.9808 74.3117 40.9809 74.3105 40.9809 74.3089C40.981 74.3058 40.9811 74.3011 40.9813 74.295C40.9816 74.2828 40.9821 74.2647 40.9827 74.2409C40.984 74.1934 40.9858 74.1232 40.9882 74.0316C40.9929 73.8485 40.9998 73.5802 41.0082 73.238C41.0252 72.5536 41.0486 71.5736 41.0747 70.3889C41.1267 68.0206 41.1893 64.8297 41.231 61.5459C41.2727 58.2678 41.2939 54.8724 41.2622 52.1038C41.2464 50.7225 41.2171 49.4653 41.1681 48.4424C41.1257 47.5548 41.0563 46.4727 40.8724 45.6806L32.6123 47.5993C32.5943 47.522 32.6495 47.8371 32.6978 48.8476C32.7397 49.7228 32.7674 50.8644 32.7827 52.2009C32.8133 54.8677 32.793 58.1836 32.7517 61.4382C32.7104 64.6871 32.6484 67.8501 32.5967 70.2026C32.5709 71.3783 32.5476 72.3504 32.5308 73.0281C32.5224 73.3669 32.5157 73.632 32.511 73.8121C32.5087 73.9022 32.5069 73.971 32.5057 74.0171C32.505 74.0402 32.5046 74.0576 32.5043 74.0691C32.5041 74.0749 32.504 74.0792 32.5039 74.082C32.5039 74.0834 32.5039 74.0845 32.5039 74.0851C32.5038 74.0855 32.5038 74.0857 32.5038 74.0859C32.5038 74.086 32.5038 74.086 36.7423 74.2ZM40.8724 45.6806C40.6616 44.7733 40.2384 44.0673 39.94 43.6327C39.6148 43.1587 39.2446 42.7321 38.8962 42.3673C38.2006 41.6388 37.3472 40.9033 36.4748 40.2099C34.7152 38.8114 32.5076 37.2932 30.4104 35.9232C28.2953 34.5414 26.2112 33.2577 24.6618 32.3225C23.8854 31.8539 23.2392 31.4705 22.7856 31.2032C22.5586 31.0696 22.3797 30.9648 22.2564 30.8929C22.1947 30.857 22.1469 30.8292 22.114 30.8101C22.0976 30.8005 22.0849 30.7932 22.076 30.788C22.0715 30.7854 22.0681 30.7834 22.0655 30.782C22.0643 30.7812 22.0633 30.7807 22.0625 30.7802C22.0621 30.78 22.0617 30.7798 22.0615 30.7797C22.0612 30.7795 22.0609 30.7793 19.9387 34.45C17.8165 38.1206 17.8164 38.1206 17.8163 38.1205C17.8163 38.1205 17.8163 38.1205 17.8164 38.1206C17.8166 38.1207 17.8171 38.121 17.8178 38.1214C17.8192 38.1222 17.8216 38.1236 17.8249 38.1255C17.8315 38.1293 17.8419 38.1354 17.856 38.1436C17.8843 38.16 17.9272 38.1849 17.9839 38.218C18.0974 38.2842 18.2658 38.3827 18.4815 38.5098C18.913 38.764 19.533 39.1319 20.28 39.5827C21.7775 40.4865 23.7698 41.7142 25.7726 43.0226C27.7933 44.3427 29.7451 45.6934 31.1984 46.8485C31.9325 47.4319 32.4489 47.8944 32.763 48.2235C32.9196 48.3874 32.9642 48.4544 32.9483 48.4312C32.9376 48.4156 32.8909 48.3464 32.8323 48.2276C32.7758 48.1127 32.6818 47.8987 32.6123 47.5993L40.8724 45.6806Z" fill="#D70025"/>
<circle cx="43.46" cy="43.46" r="41.87" stroke="#D70025" stroke-width="3.18"/>
<circle cx="43.46" cy="43.4598" r="37.63" stroke="#D70025" stroke-width="1.06"/>
<path d="M101.241 41.0202L104.654 23.9542H109.481L106.068 41.0202H101.241ZM105.971 34.4863L106.751 30.5855H112.943L112.188 34.4863H105.971ZM112.383 41.0202L109.189 32.9016L113.163 30.6587L117.502 41.0202H112.383ZM113.309 32.9992L108.652 32.5116L115.601 23.9542H120.964L113.309 32.9992Z" fill="#D70025"/>
<path d="M119.145 41.0202L122.558 23.9542H127.312L125.24 33.9744L134.285 23.9542H138.893L135.48 41.0202H130.726L132.798 31.0244L123.753 41.0202H119.145Z" fill="#D70025"/>
<path d="M139.022 41.0202L142.436 23.9542H147.263L143.85 41.0202H139.022ZM147.945 22.5889C147.425 22.5889 146.995 22.4426 146.653 22.1501C146.312 21.8412 146.141 21.4187 146.141 20.8823C146.141 20.2484 146.344 19.7364 146.751 19.3464C147.173 18.9563 147.661 18.7612 148.214 18.7612C148.717 18.7612 149.14 18.9238 149.481 19.2488C149.839 19.5576 150.018 19.9721 150.018 20.4922C150.018 21.1261 149.806 21.6381 149.384 22.0282C148.961 22.402 148.482 22.5889 147.945 22.5889ZM142.777 22.5889C142.257 22.5889 141.826 22.4426 141.485 22.1501C141.143 21.8412 140.973 21.4187 140.973 20.8823C140.973 20.2484 141.176 19.7364 141.582 19.3464C142.005 18.9563 142.492 18.7612 143.045 18.7612C143.565 18.7612 143.996 18.9238 144.337 19.2488C144.679 19.5576 144.849 19.9721 144.849 20.4922C144.849 21.1261 144.638 21.6381 144.215 22.0282C143.793 22.402 143.313 22.5889 142.777 22.5889Z" fill="#D70025"/>
<path d="M147.284 41.0202L150.697 23.9542H159.328C161.262 23.9542 162.733 24.3036 163.74 25.0025C164.748 25.6852 165.252 26.6685 165.252 27.9525C165.252 29.009 164.959 29.9029 164.374 30.6343C163.789 31.3657 163.001 31.9264 162.009 32.3165C161.018 32.6903 159.905 32.8773 158.669 32.8773L159.352 31.707C160.929 31.707 162.18 32.0483 163.107 32.731C164.033 33.4136 164.496 34.3726 164.496 35.6078C164.496 36.8431 164.147 37.8589 163.448 38.6553C162.765 39.4517 161.831 40.045 160.644 40.4351C159.474 40.8251 158.149 41.0202 156.67 41.0202H147.284ZM152.745 37.5338H156.938C157.784 37.5338 158.45 37.3632 158.938 37.0219C159.441 36.6805 159.693 36.1767 159.693 35.5103C159.693 35.0064 159.506 34.6407 159.133 34.4132C158.759 34.1856 158.279 34.0719 157.694 34.0719H153.038L153.696 30.7318H157.572C158.141 30.7318 158.621 30.6587 159.011 30.5124C159.417 30.3661 159.718 30.1467 159.913 29.8541C160.108 29.5616 160.205 29.204 160.205 28.7814C160.205 28.3101 160.027 27.9687 159.669 27.7575C159.311 27.5462 158.816 27.4405 158.182 27.4405H154.769L152.745 37.5338Z" fill="#D70025"/>
<path d="M175.334 41.3615C173.595 41.3615 172.076 41.0446 170.775 40.4107C169.491 39.7768 168.5 38.8991 167.801 37.7776C167.102 36.6399 166.753 35.3315 166.753 33.8525C166.753 32.3734 167.013 31.0081 167.533 29.7566C168.053 28.5051 168.784 27.4243 169.727 26.5141C170.67 25.5876 171.791 24.8725 173.091 24.3686C174.408 23.8648 175.863 23.6129 177.456 23.6129C179.032 23.6129 180.43 23.8892 181.649 24.4418C182.868 24.9944 183.778 25.7908 184.379 26.831L180.893 29.6103C180.503 28.9602 179.991 28.4645 179.357 28.1232C178.74 27.7818 178 27.6112 177.139 27.6112C176.31 27.6112 175.554 27.7575 174.871 28.05C174.205 28.3426 173.628 28.757 173.14 29.2934C172.653 29.8298 172.279 30.4636 172.019 31.195C171.759 31.9102 171.629 32.6903 171.629 33.5355C171.629 34.2994 171.791 34.9739 172.116 35.5591C172.458 36.1279 172.937 36.5749 173.555 36.9C174.189 37.2088 174.936 37.3632 175.798 37.3632C176.562 37.3632 177.293 37.2088 177.992 36.9C178.707 36.5911 179.365 36.0873 179.967 35.3884L182.819 38.1921C181.86 39.3461 180.755 40.1669 179.503 40.6545C178.252 41.1258 176.862 41.3615 175.334 41.3615Z" fill="#D70025"/>
<path d="M195.28 29.3909C199.067 29.3909 200.96 30.9512 200.96 34.0719C200.96 35.4697 200.611 36.6887 199.912 37.7289C199.213 38.7691 198.221 39.5818 196.937 40.1669C195.653 40.7357 194.158 41.0202 192.452 41.0202H184.333L187.746 23.9542H192.5L191.403 29.3909H195.28ZM192.768 37.5582C193.419 37.5582 193.979 37.4363 194.451 37.1925C194.938 36.9487 195.32 36.5993 195.597 36.1442C195.873 35.6891 196.011 35.1771 196.011 34.6082C196.011 33.9906 195.832 33.5436 195.475 33.2673C195.133 32.9748 194.589 32.8285 193.841 32.8285H190.721L189.77 37.5582H192.768Z" fill="#D70025"/>
<path d="M202.094 41.0202L205.507 23.9542H210.335L206.921 41.0202H202.094ZM206.824 34.4863L207.604 30.5855H213.797L213.041 34.4863H206.824ZM213.236 41.0202L210.042 32.9016L214.016 30.6587L218.356 41.0202H213.236ZM214.162 32.9992L209.506 32.5116L216.454 23.9542H221.818L214.162 32.9992Z" fill="#D70025"/>
<path d="M219.998 41.0202L223.411 23.9542H228.166L226.093 33.9744L235.138 23.9542H239.746L236.333 41.0202H231.579L233.651 31.0244L224.606 41.0202H219.998Z" fill="#D70025"/>
<path d="M239.997 41.0202L243.411 23.9542H248.165L246.092 33.9744L255.137 23.9542H259.745L256.332 41.0202H251.578L253.65 31.0244L244.605 41.0202H239.997ZM251.797 23.0034C250.123 23.0034 248.912 22.6702 248.165 22.0038C247.417 21.3211 247.141 20.3134 247.336 18.9807H250.359C250.278 19.5495 250.383 19.9802 250.676 20.2728C250.968 20.5654 251.415 20.7116 252.017 20.7116C252.618 20.7116 253.098 20.5735 253.455 20.2972C253.813 20.0209 254.04 19.582 254.138 18.9807H257.234C257.007 20.3622 256.454 21.378 255.576 22.0282C254.699 22.6783 253.439 23.0034 251.797 23.0034Z" fill="#D70025"/>
<path d="M267.092 41.0202L270.505 23.9542H274.43L279.135 35.5834H277.063L286.181 23.9542H290.301L286.913 41.0202H282.475L284.499 30.6831L285.279 30.6587L278.55 39.338H276.405L272.748 30.6343L273.577 30.7074L271.529 41.0202H267.092Z" fill="#D70025"/>
<path d="M290.445 41.0202L293.858 23.9542H298.685L295.272 41.0202H290.445Z" fill="#D70025"/>
<path d="M308.02 41.3615C306.281 41.3615 304.761 41.0446 303.461 40.4107C302.177 39.7768 301.185 38.8991 300.486 37.7776C299.787 36.6399 299.438 35.3315 299.438 33.8525C299.438 32.3734 299.698 31.0081 300.218 29.7566C300.738 28.5051 301.47 27.4243 302.412 26.5141C303.355 25.5876 304.477 24.8725 305.777 24.3686C307.093 23.8648 308.548 23.6129 310.141 23.6129C311.717 23.6129 313.115 23.8892 314.334 24.4418C315.553 24.9944 316.463 25.7908 317.065 26.831L313.578 29.6103C313.188 28.9602 312.676 28.4645 312.042 28.1232C311.425 27.7818 310.685 27.6112 309.824 27.6112C308.995 27.6112 308.239 27.7575 307.557 28.05C306.89 28.3426 306.313 28.757 305.826 29.2934C305.338 29.8298 304.964 30.4636 304.704 31.195C304.444 31.9102 304.314 32.6903 304.314 33.5355C304.314 34.2994 304.477 34.9739 304.802 35.5591C305.143 36.1279 305.622 36.5749 306.24 36.9C306.874 37.2088 307.622 37.3632 308.483 37.3632C309.247 37.3632 309.978 37.2088 310.677 36.9C311.392 36.5911 312.051 36.0873 312.652 35.3884L315.504 38.1921C314.545 39.3461 313.44 40.1669 312.189 40.6545C310.937 41.1258 309.548 41.3615 308.02 41.3615Z" fill="#D70025"/>
<path d="M327.965 29.3909C331.752 29.3909 333.645 30.9512 333.645 34.0719C333.645 35.4697 333.296 36.6887 332.597 37.7289C331.898 38.7691 330.907 39.5818 329.623 40.1669C328.339 40.7357 326.843 41.0202 325.137 41.0202H317.018L320.431 23.9542H325.186L324.088 29.3909H327.965ZM325.454 37.5582C326.104 37.5582 326.665 37.4363 327.136 37.1925C327.624 36.9487 328.006 36.5993 328.282 36.1442C328.558 35.6891 328.696 35.1771 328.696 34.6082C328.696 33.9906 328.518 33.5436 328.16 33.2673C327.819 32.9748 327.274 32.8285 326.526 32.8285H323.406L322.455 37.5582H325.454Z" fill="#D70025"/>
<path d="M334.779 41.0202L338.193 23.9542H343.02L339.607 41.0202H334.779ZM339.509 34.4863L340.289 30.5855H346.482L345.726 34.4863H339.509ZM345.921 41.0202L342.727 32.9016L346.701 30.6587L351.041 41.0202H345.921ZM346.848 32.9992L342.191 32.5116L349.139 23.9542H354.503L346.848 32.9992Z" fill="#D70025"/>
<path d="M352.684 41.0202L356.097 23.9542H360.851L358.779 33.9744L367.824 23.9542H372.431L369.018 41.0202H364.264L366.336 31.0244L357.291 41.0202H352.684Z" fill="#D70025"/>
<path d="M372.683 41.0202L376.096 23.9542H380.85L378.778 33.9744L387.823 23.9542H392.431L389.017 41.0202H384.263L386.336 31.0244L377.291 41.0202H372.683ZM384.483 23.0034C382.809 23.0034 381.598 22.6702 380.85 22.0038C380.102 21.3211 379.826 20.3134 380.021 18.9807H383.044C382.963 19.5495 383.069 19.9802 383.361 20.2728C383.654 20.5654 384.101 20.7116 384.702 20.7116C385.303 20.7116 385.783 20.5735 386.141 20.2972C386.498 20.0209 386.726 19.582 386.823 18.9807H389.919C389.692 20.3622 389.139 21.378 388.262 22.0282C387.384 22.6783 386.124 23.0034 384.483 23.0034Z" fill="#D70025"/>
<path d="M156.179 70.0202L159.592 52.9542H164.347L161.689 66.1925H168.247L170.88 52.9542H175.659L172.246 70.0202H156.179ZM169.466 73.5065L170.32 68.9475L171.124 70.0202H167.467L168.247 66.1925H175.366L173.904 73.5065H169.466Z" fill="#D70025"/>
<path d="M183.378 59.5611H191.302L190.595 63.1694H182.671L183.378 59.5611ZM182.379 66.29H191.326L190.546 70.0202H176.869L180.282 52.9542H193.642L192.887 56.6843H184.28L182.379 66.29Z" fill="#D70025"/>
<path d="M208.119 52.9542H212.947L209.533 70.0202H204.706L208.119 52.9542ZM198.148 70.0202H193.321L196.734 52.9542H201.561L198.148 70.0202ZM206.388 63.3644H199.148L199.952 59.3661H207.193L206.388 63.3644Z" fill="#D70025"/>
<path d="M216.979 70.0202L219.783 55.7091L220.636 56.7818H214.419L215.175 52.9542H230.388L229.632 56.7818H223.269L224.537 55.7091L221.733 70.0202H216.979Z" fill="#D70025"/>
<path d="M229.078 70.0202L232.492 52.9542H239.708C241.918 52.9542 243.625 53.4336 244.828 54.3926C246.031 55.3515 246.632 56.7006 246.632 58.4397C246.632 59.87 246.291 61.1215 245.608 62.1942C244.925 63.2669 243.95 64.0958 242.682 64.681C241.415 65.2661 239.919 65.5586 238.196 65.5586H232.662L235.222 63.4132L233.906 70.0202H229.078ZM235.1 63.9739L233.418 61.7554H238.416C239.472 61.7554 240.293 61.5034 240.878 60.9996C241.463 60.4957 241.756 59.7806 241.756 58.8541C241.756 58.139 241.52 57.6108 241.049 57.2694C240.578 56.9281 239.919 56.7575 239.074 56.7575H234.442L237.002 54.4657L235.1 63.9739Z" fill="#D70025"/>
<path d="M254.271 70.0202L257.684 52.9542H262.511L259.098 70.0202H254.271ZM259 63.4863L259.781 59.5855H265.973L265.217 63.4863H259ZM265.412 70.0202L262.219 61.9016L266.193 59.6587L270.532 70.0202H265.412ZM266.339 61.9991L261.682 61.5116L268.631 52.9542H273.994L266.339 61.9991Z" fill="#D70025"/>
<path d="M272.053 70.0202L275.466 52.9542H282.683C284.893 52.9542 286.6 53.4336 287.802 54.3926C289.005 55.3515 289.606 56.7006 289.606 58.4397C289.606 59.87 289.265 61.1215 288.583 62.1942C287.9 63.2669 286.925 64.0958 285.657 64.681C284.389 65.2661 282.894 65.5586 281.171 65.5586H275.637L278.197 63.4132L276.88 70.0202H272.053ZM278.075 63.9739L276.393 61.7554H281.39C282.447 61.7554 283.268 61.5034 283.853 60.9996C284.438 60.4957 284.73 59.7806 284.73 58.8541C284.73 58.139 284.495 57.6108 284.023 57.2694C283.552 56.9281 282.894 56.7575 282.049 56.7575H277.416L279.976 54.4657L278.075 63.9739Z" fill="#D70025"/>
<path d="M299.244 70.3615C297.489 70.3615 295.977 70.0446 294.709 69.4107C293.442 68.7605 292.466 67.8747 291.784 66.7533C291.101 65.6318 290.76 64.3315 290.76 62.8525C290.76 61.3571 291.02 59.9919 291.54 58.7566C292.06 57.5051 292.791 56.4243 293.734 55.5141C294.677 54.5876 295.798 53.8725 297.099 53.3686C298.415 52.8648 299.854 52.6129 301.414 52.6129C303.169 52.6129 304.681 52.9379 305.949 53.5881C307.216 54.2219 308.191 55.0996 308.874 56.2211C309.557 57.3426 309.898 58.6428 309.898 60.1219C309.898 61.6172 309.638 62.9906 309.118 64.2421C308.598 65.4774 307.866 66.5582 306.924 67.4847C305.981 68.3948 304.851 69.1019 303.535 69.6057C302.235 70.1096 300.804 70.3615 299.244 70.3615ZM299.658 66.3632C300.504 66.3632 301.251 66.2088 301.901 65.9C302.568 65.5911 303.129 65.1604 303.584 64.6078C304.055 64.0389 304.413 63.3969 304.656 62.6818C304.9 61.9666 305.022 61.2109 305.022 60.4145C305.022 59.6505 304.86 58.9842 304.534 58.4153C304.226 57.8464 303.771 57.4076 303.169 57.0988C302.584 56.7737 301.861 56.6112 300.999 56.6112C300.17 56.6112 299.423 56.7656 298.756 57.0744C298.09 57.3832 297.521 57.822 297.05 58.3909C296.595 58.9435 296.245 59.5774 296.001 60.2926C295.758 61.0077 295.636 61.7635 295.636 62.5599C295.636 63.3075 295.79 63.9739 296.099 64.5591C296.424 65.1279 296.879 65.5749 297.464 65.9C298.066 66.2088 298.797 66.3632 299.658 66.3632Z" fill="#D70025"/>
<path d="M310.623 70.0202L314.036 52.9542H322.667C324.601 52.9542 326.072 53.3036 327.079 54.0025C328.087 54.6852 328.591 55.6685 328.591 56.9525C328.591 58.009 328.298 58.9029 327.713 59.6343C327.128 60.3657 326.34 60.9264 325.348 61.3165C324.357 61.6903 323.244 61.8773 322.008 61.8773L322.691 60.707C324.267 60.707 325.519 61.0483 326.445 61.731C327.372 62.4136 327.835 63.3726 327.835 64.6078C327.835 65.8431 327.486 66.8589 326.787 67.6553C326.104 68.4517 325.17 69.045 323.983 69.4351C322.813 69.8251 321.488 70.0202 320.009 70.0202H310.623ZM316.084 66.5338H320.277C321.122 66.5338 321.789 66.3632 322.276 66.0219C322.78 65.6805 323.032 65.1767 323.032 64.5103C323.032 64.0064 322.845 63.6407 322.471 63.4132C322.098 63.1856 321.618 63.0719 321.033 63.0719H316.376L317.035 59.7318H320.911C321.48 59.7318 321.96 59.6587 322.35 59.5124C322.756 59.3661 323.057 59.1467 323.252 58.8541C323.447 58.5616 323.544 58.204 323.544 57.7814C323.544 57.3101 323.365 56.9687 323.008 56.7575C322.65 56.5462 322.155 56.4405 321.521 56.4405H318.107L316.084 66.5338Z" fill="#D70025"/>
<path d="M329.36 70.0202L332.773 52.9542H337.601L334.187 70.0202H329.36Z" fill="#D70025"/>
</svg>
