<svg width="17" height="17" viewBox="0 0 17 17" fill="none" xmlns="http://www.w3.org/2000/svg">
<path d="M14.5104 2.48957C12.905 0.884175 10.7704 0 8.5 0C6.22957 0 4.09504 0.884175 2.48957 2.48957C0.884175 4.09504 0 6.22957 0 8.5C0 10.7704 0.884175 12.905 2.48957 14.5104C4.09504 16.1158 6.22957 17 8.5 17C9.64727 17 10.7605 16.7752 11.8088 16.3318L11.3991 15.3633C10.4812 15.7516 9.50577 15.9485 8.5 15.9485C4.39291 15.9485 1.05155 12.6071 1.05155 8.5C1.05155 4.39291 4.39291 1.05155 8.5 1.05155C12.6071 1.05155 15.9485 4.39291 15.9485 8.5C15.9485 10.299 14.8431 11.1183 13.8161 11.1183C12.7892 11.1183 11.6838 10.299 11.6838 8.5C11.6838 6.74441 10.2556 5.31616 8.5 5.31616C6.74441 5.31616 5.31616 6.74444 5.31616 8.5C5.31616 10.2556 6.74441 11.6838 8.5 11.6838C9.53945 11.6838 10.4641 11.1831 11.0455 10.4102C11.1944 10.7109 11.3818 10.9828 11.6077 11.2204C12.1901 11.8327 12.9743 12.1698 13.8161 12.1698C14.658 12.1698 15.4422 11.8326 16.0246 11.2204C16.6627 10.5495 17 9.60875 17 8.5C17 6.22957 16.1158 4.09504 14.5104 2.48957ZM8.5 10.6323C7.32427 10.6323 6.36771 9.67573 6.36771 8.5C6.36771 7.32427 7.32427 6.36771 8.5 6.36771C9.67573 6.36771 10.6323 7.32427 10.6323 8.5C10.6323 9.67573 9.67573 10.6323 8.5 10.6323Z" fill="white"/>
</svg>
