<svg width="377" height="168" viewBox="0 0 377 168" fill="none" xmlns="http://www.w3.org/2000/svg">
<g clip-path="url(#clip0_10_2291)">
<path d="M188.4 140.9C85.0998 140.9 1.2998 122.1 1.2998 98.8002C1.2998 75.5002 85.0998 56.7002 188.4 56.7002C291.7 56.7002 375.5 75.5002 375.5 98.8002C375.5 122.1 291.7 140.9 188.4 140.9Z" fill="#F28A00"/>
<path d="M82.9 108.3C82.9 105.1 83 104.7 83 102.9V95.5998C83 94.1998 82.9 91.3998 82.9 90.1998C82.9 89.9998 82.8 89.5998 83.1 89.2998C83.4 88.9998 83.5 89.0998 83.5 88.7998C83.5 88.4998 83.1 88.3998 82.9 88.3998C82.1 88.3998 81.6 88.5998 81 88.5998H79.2C78.8 88.5998 78.5 88.4998 78.1 88.4998C77.9 88.4998 77.6 88.4998 77.6 88.8998C77.6 89.2998 78.1 89.2998 78.2 89.7998C78.2 89.8998 78.2 90.0998 78.2 90.1998C78.2 90.2998 78 91.1998 78 95.6998V102.7C78 104.4 78.1 106.3 78.1 108.6C78.1 109.5 77.9 109.4 77.6 109.6C77.3 109.8 77.4 110.5 78.1 110.5C78.8 110.5 78.4 110.4 79.5 110.4H81.8C82.5 110.4 82.8 110.5 83.2 110.5C83.5 110.5 83.7 110.3 83.8 110C83.8 109.8 83.8 109.7 83.6 109.6C83.2 109.3 82.9 109.5 82.9 108.3ZM80.4 85.0998C80.4 84.3998 79.8 83.7998 79.1 83.7998H79C77.7 83.7998 76.6 84.7998 76.5 86.0998C76.5 86.7998 77.1 87.3998 77.8 87.2998H77.9C79.1 87.3998 80.3 86.3998 80.4 85.0998ZM126.9 109.4C126.5 109 126.3 108.5 126.3 107.9C126.2 107 126.1 106.1 125.9 104C125.6 101.6 125.4 99.7998 125.2 98.2998C124.3 91.7998 123.7 89.8998 123.5 89.1998C123.3 88.4998 122.9 88.1998 121.1 88.4998C120.8 88.4998 120.5 88.5998 120.2 88.6998H119.5C119 88.6998 118.6 88.5998 118.1 88.5998C117.6 88.5998 117.2 88.8998 117.2 89.1998C117.2 89.5998 117.4 89.8998 117.7 89.9998C118.2 90.2998 118.7 90.4998 118.3 92.5998C117.3 96.3998 116.5 100.3 115.9 104.2C115.8 104.8 115.8 105.4 115.7 106C115.7 106.3 115.6 106.6 115.6 107C115.5 107.7 115.5 108.1 115.4 108.4C115.2 109.5 114.7 109.2 114.3 109.6C113.9 110 113.9 110.7 114.6 110.7C115 110.6 115.4 110.6 115.8 110.6C116.9 110.6 117 110.7 117.6 110.7C117.8 110.7 118.3 110.7 118.3 110.3C118.3 110 118.1 109.7 117.8 109.7C117 109.5 117 108.8 117 108.3C117.2 105.1 117.6 102 118.2 98.8998C118.4 97.8998 118.7 95.8998 119.6 95.8998C120.3 95.8998 120.3 96.8998 120.3 97.3998C120.4 99.3998 120.6 101.4 120.9 103.3C121.4 106.7 121.6 107.4 121.6 108.2C121.6 109.5 121.2 109.5 120.9 109.7C120.2 110.1 120.5 110.8 121.2 110.8C121.6 110.8 121.9 110.7 122.3 110.7C122.6 110.6 122.9 110.6 123.1 110.6H124.8C125.1 110.6 125.5 110.6 125.8 110.7C126.1 110.8 126.5 110.8 126.8 110.8C127.1 110.8 127.4 110.6 127.5 110.2C127.5 110.2 127.5 110.2 127.5 110.1C127.5 109.6 127.1 109.6 126.9 109.4ZM75.4 89.4998C75.6 89.3998 75.7 89.1998 75.7 88.9998C75.7 88.3998 74.9 88.6998 74.4 88.6998H71.5C71.3 88.6998 71.1 88.6998 70.9 88.5998C70.7 88.5998 70.6 88.5998 70.4 88.5998C69.9 88.5998 69.8 88.8998 69.8 89.0998C69.8 89.2998 69.9 89.4998 70.1 89.5998C70.3 89.7998 70.4 90.0998 70.4 90.3998C70.4 91.6998 70.2 91.7998 68.7 95.7998C68.1 97.2998 68 98.0998 67.6 98.0998C67.2 98.0998 67.3 97.8998 67.3 97.6998C67.3 96.5998 67.4 96.0998 67.4 94.7998V90.3998C67.4 89.8998 67.6 89.7998 67.7 89.6998C67.9 89.5998 68.1 89.2998 68.1 89.0998C68.1 88.7998 67.8 88.5998 67.6 88.5998C66.9 88.5998 67.2 88.6998 66.4 88.6998H63.4C62.8 88.6998 61.9 88.3998 61.9 88.9998C61.9 89.2998 62.2 89.3998 62.3 89.4998C62.4 89.5998 62.5 89.9998 62.5 90.2998C62.4 91.3998 62.3 98.5998 62.3 101.2C62.3 103.8 62.4 105.4 62.5 108.6C62.5 110.1 61.9 109.1 61.9 110.2C61.9 110.6 62.2 110.7 62.5 110.7C63.1 110.6 63.7 110.5 64.3 110.5H66.2C67.3 110.5 68.1 111 68.1 110.1C68.1 109.8 68 109.6 67.7 109.5C67.4 109.3 67.4 109.3 67.4 108.5V105C67.4 103.4 67.1 103 67.7 101.1C68.3 99.2998 69 97.9998 69.6 96.1998C69.6 96.0998 69.8 95.2998 70.2 95.2998C70.7 95.2998 70.5 96.1998 70.4 96.4998C70.2 97.6998 70.1 98.9998 70.1 100.3V106.9C70.1 107.9 70.3 109.1 69.9 109.5C69.7 109.6 69.5 109.9 69.5 110.2C69.5 110.7 69.9 110.7 70.2 110.7C71.2 110.7 70.7 110.6 71.8 110.6H73.7C74.6 110.6 74.3 110.7 75 110.7C75.4 110.7 75.6 110.6 75.6 110.2C75.6 110 75.5 109.8 75.3 109.6C75.1 109.4 74.9 109.3 74.9 108.7C74.8 107.7 75 104.1 75 98.4998C75 92.8998 75.1 91.6998 74.9 90.2998C75 89.5998 75.1 89.5998 75.4 89.4998ZM111.6 108.8C111.5 108.5 111.4 108.1 111.1 107C110.1 103 110.5 104.3 109.7 101.5C109.4 100.7 109.2 99.7998 109.1 98.8998C109.1 97.8998 110.2 96.5998 111.1 94.7998C111.8 93.5998 112.1 92.2998 112.1 90.8998C112.1 88.9998 111.3 88.2998 110.1 88.2998C109.2 88.1998 108.4 88.8998 108.3 89.8998C108.3 89.9998 108.3 89.9998 108.3 90.0998C108.3 90.7998 108.5 91.5998 108.9 92.1998C109.4 92.8998 109.7 93.6998 109.7 94.4998C109.7 95.6998 108.9 96.7998 108.1 96.7998C107.6 96.7998 107.7 96.0998 107.6 95.4998C107.4 93.3998 106.9 91.3998 106.2 89.4998C106.1 89.0998 105.9 88.6998 105.3 88.6998C105.1 88.6998 104.9 88.6998 104.8 88.7998C104.6 88.8998 104.3 88.8998 104.1 88.8998H102.1C101.5 88.8998 101.4 88.7998 100.9 88.7998C100.7 88.7998 100.4 88.8998 100.4 89.0998C100.4 89.3998 100.6 89.6998 100.8 89.7998C101.2 90.2998 101.4 90.7998 101.6 91.3998L102.8 96.0998C103.6 99.2998 103.7 98.8998 102.8 100.4C101.1 102.8 100.2 105.6 100.1 108.5C100.1 111.2 101.4 112.3 102.9 112.3C103.9 112.4 104.8 111.6 104.9 110.6C104.9 110.5 104.9 110.4 104.9 110.2C104.9 108.8 103.9 107.6 103.5 106.7C103.1 106 102.9 105.3 102.9 104.5C102.9 103.4 103.8 101 104.4 101C105 101 104.8 102 104.8 102.7C105.2 105.1 105.8 107.5 106.6 109.8C107.1 111.2 107.6 110.6 108.5 110.6H110.2C111.5 110.6 111.1 110.7 111.9 110.7C112.7 110.7 112.9 110 112.4 109.6C111.9 109.2 111.8 109.4 111.6 108.8ZM134.6 108.3C134.6 105.1 134.7 104.7 134.7 102.9V95.6998C134.7 94.2998 134.6 91.4998 134.6 90.2998C134.6 90.0998 134.6 89.6998 134.8 89.3998C135 89.0998 135.2 89.1998 135.2 88.8998C135.2 88.5998 134.7 88.4998 134.6 88.4998C133.8 88.4998 133.3 88.6998 132.6 88.6998H131C130.6 88.6998 130.3 88.5998 129.8 88.5998C129.6 88.5998 129.3 88.5998 129.3 88.9998C129.3 89.3998 129.8 89.3998 129.8 89.8998C129.8 89.9998 129.8 90.1998 129.8 90.2998C129.8 90.3998 129.8 91.1998 129.8 95.7998V102.8C129.8 104.5 129.8 106.4 129.8 108.7C129.8 109.6 129.6 109.5 129.3 109.7C129 109.9 129 110.6 129.7 110.6C130.4 110.6 130.1 110.5 131.1 110.5H133.4C134.1 110.5 134.4 110.6 134.8 110.6C135.4 110.6 135.4 110 135.2 109.7C135 109.4 134.6 109.5 134.6 108.3ZM95.6 98.2998C95.3 98.1998 94.9 98.0998 94.9 97.6998C94.9 97.0998 95.8 96.9998 96.4 96.5998C97.5 95.7998 98.2 94.4998 98.2 93.0998C98.2 90.8998 96.5 88.4998 92.5 88.4998C90.5 88.4998 91.2 88.6998 90.1 88.6998H87.3C86.8 88.6998 86.6 88.4998 86.2 88.4998C85.8 88.4998 85.5 88.7998 85.5 88.8998C85.5 89.2998 85.8 89.3998 85.9 89.4998C86.1 89.6998 86.3 89.9998 86.2 90.2998V108.1C86.2 108.1 86.2 109 86.2 109.1C86.2 109.4 86 109.4 85.8 109.5C85.6 109.6 85.5 109.9 85.5 110.1C85.5 110.5 86 110.5 86.2 110.5C86.3 110.5 86.5 110.5 86.6 110.5C86.9 110.4 87.3 110.4 87.6 110.4H90.4C92 110.4 92.9 110.9 94.7 110.3C97.7 109.3 98.7 106.9 98.7 103.6C98.7 101.6 98.1 98.9998 95.6 98.2998ZM93.2 104.3C93.2 106.3 93.1 109.5 91.5 109.5C90.8 109.5 90.8 108.9 90.8 108.6C90.8 107.8 90.9 107 91 106.3C91.1 105.4 91.1 104.5 91.1 103.7C91.1 102.6 91.1 101.5 91 100.4C90.7 98.7998 90.7 98.2998 91.7 98.2998C92.6 98.2998 93.2 98.6998 93.2 102.7V104.3ZM91.6 97.1998C91.2 97.1998 90.9 96.9998 90.9 96.3998C90.9 95.9998 91 95.6998 91 95.3998C91 95.0998 91.1 94.7998 91.1 94.5998V92.4998C91.1 92.0998 91.1 91.5998 91 91.1998C90.9 90.8998 90.9 90.6998 90.8 90.3998C90.8 89.6998 91.2 89.5998 91.5 89.5998C93 89.5998 93.2 91.3998 93.2 93.5998C93.3 96.5998 92.7 97.1998 91.6 97.1998ZM83.4 83.7998C82.2 83.6998 81.1 84.6998 81 85.8998C81 86.5998 81.5 87.1998 82.2 87.2998C82.3 87.2998 82.3 87.2998 82.4 87.2998C83.7 87.3998 84.8 86.3998 84.9 85.0998C84.9 84.3998 84.3 83.7998 83.6 83.7998C83.6 83.7998 83.5 83.7998 83.4 83.7998ZM259.2 97.7998C260.2 99.5998 264.8 98.6998 267.1 96.3998C270.1 93.3998 269.5 89.9998 271.9 88.7998C261.5 86.9998 257.9 95.5998 259.2 97.7998ZM269.7 97.7998C270.7 99.5998 275.2 98.6998 277.6 96.3998C280.6 93.3998 280 89.9998 282.4 88.7998C272 86.9998 268.4 95.5998 269.7 97.7998ZM280.2 97.7998C281.2 99.5998 285.8 98.6998 288.1 96.3998C291.1 93.3998 290.5 89.9998 292.9 88.7998C282.5 86.9998 278.9 95.5998 280.2 97.7998ZM290.7 97.7998C291.7 99.5998 296.3 98.6998 298.6 96.3998C301.6 93.3998 301 89.9998 303.5 88.7998C293.1 86.9998 289.5 95.5998 290.7 97.7998ZM301.2 97.7998C302.2 99.5998 306.7 98.6998 309 96.3998C312 93.3998 311.4 89.9998 313.8 88.7998C303.6 86.9998 300 95.5998 301.2 97.7998ZM238.2 97.7998C239.2 99.5998 243.7 98.6998 246 96.3998C249 93.3998 248.4 89.9998 250.8 88.7998C240.5 86.9998 236.9 95.5998 238.2 97.7998ZM227.7 97.7998C228.7 99.5998 233.2 98.6998 235.5 96.3998C238.6 93.3998 237.9 89.9998 240.4 88.7998C230 86.9998 226.4 95.5998 227.7 97.7998ZM217.2 97.9998C218.2 99.7998 222.8 98.8998 225.1 96.5998C228.1 93.5998 227.5 90.2998 230 88.9998C219.5 87.1998 215.9 95.6998 217.2 97.9998ZM60 109C59.9 108 59.9 107.1 59.8 104.8C59.4 99.2998 58.4 97.0998 57.5 95.1998C56.2 92.5998 57.3 91.5998 57.9 91.5998C58.2 91.5998 58.5 91.9998 59 91.9998C59.8 91.9998 60.5 91.2998 60.5 90.3998C60.5 90.3998 60.5 90.3998 60.5 90.2998C60.6 89.3998 59.9 88.4998 59 88.3998C58.9 88.3998 58.9 88.3998 58.8 88.3998C56.8 88.3998 56.3 90.4998 56 91.8998C55.9 93.1998 55.2 94.4998 54.1 95.2998C53.9 95.4998 53.5 95.5998 53.2 95.6998C52.9 95.6998 52.5 95.4998 52.4 95.1998C52.3 94.6998 52.3 94.2998 52.4 93.7998V91.0998C52.4 90.4998 52.3 89.9998 52.6 89.6998C52.8 89.5998 52.9 89.3998 52.9 89.1998C52.9 88.7998 52.5 88.7998 52.3 88.7998C52.1 88.7998 51.9 88.7998 51.8 88.7998C51.6 88.8998 51.4 88.8998 51.2 88.8998H48.3C47.8 88.8998 46.8 88.5998 46.8 89.1998C46.8 89.5998 47.4 89.3998 47.5 90.3998C47.6 91.2998 47.4 91.4998 47.4 93.7998V95.4998C47.4 96.7998 47.4 98.0998 47.4 99.2998C47.4 107.2 47.6 107.8 47.5 108.8C47.4 109.7 47.1 109.6 46.9 109.8C46.7 110 46.7 110.4 46.9 110.6C47 110.7 47.1 110.8 47.3 110.8C47.7 110.8 47.8 110.7 48.5 110.7H51.3C52 110.7 51.7 110.8 52.5 110.8C53.3 110.8 53.2 110 52.8 109.7C52.4 109.4 52.4 109.6 52.4 108.8V98.9998C52.4 98.5998 52.4 98.1998 52.3 97.8998C52.2 97.6998 52.2 97.4998 52.2 97.1998C52.2 96.7998 52.5 96.4998 52.9 96.3998C53.6 96.3998 53.9 97.0998 54.1 97.6998C54.7 101.3 55.1 105 55.1 108.7C55.1 109.4 54.9 109.3 54.7 109.6C54.5 109.8 54.4 110.2 54.6 110.4C54.7 110.6 55 110.7 55.2 110.6C55.4 110.6 55.7 110.5 56 110.5C56.3 110.4 56.5 110.4 56.8 110.4H59C59.6 110.4 60.3 110.6 60.5 110.4C60.7 110.2 60.8 109.9 60.6 109.6L60.5 109.5C60.3 109.4 60.1 109.6 60 109ZM248.6 97.7998C249.7 99.5998 254.2 98.6998 256.5 96.3998C259.5 93.3998 258.9 89.9998 261.3 88.7998C251.1 86.9998 247.4 95.5998 248.6 97.7998ZM201.3 77.8998C199.6 77.7998 198.9 84.2998 198.9 84.2998C198.9 84.2998 200.1 79.7998 201 80.8998C204.5 84.7998 202.4 99.8998 202.4 99.8998C205.8 92.2998 203.7 77.9998 201.3 77.8998ZM312.4 98.5998H334.5V97.7998H312.4V98.5998ZM309 101.4C306.7 99.0998 302.1 98.1998 301.2 99.9998C300 102.2 303.6 110.7 313.9 109C311.4 107.8 312 104.5 309 101.4ZM313.5 104.3H334.5V103.5H313.5V104.3ZM172.2 94.4998C169.6 94.3998 168.4 103.8 168.4 103.8C168.4 103.8 170.3 97.1998 171.8 98.7998C177.4 104.5 174.1 126.5 174.1 126.5C179.4 115.4 176 94.5998 172.2 94.4998ZM316.5 109.9H334.5V109.1H316.5V109.9ZM312.4 101.3H334.5V100.5H312.4V101.3ZM313.4 95.6998H334.5V94.8998H313.4V95.6998ZM316.3 89.9998H334.5V89.1998H316.3V89.9998ZM314.7 92.9998H334.5V92.1998H314.7V92.9998ZM314.9 107H334.5V106.1H314.9V107ZM235.5 101.5C233.2 99.1998 228.7 98.2998 227.7 100.1C226.5 102.3 230.1 110.8 240.4 109.1C237.9 107.8 238.5 104.5 235.5 101.5ZM225 101.3C222.7 98.9998 218.1 98.0998 217.1 99.8998C215.9 102.1 219.5 110.6 229.8 108.9C227.4 107.6 228 104.3 225 101.3ZM246 101.5C243.7 99.1998 239.2 98.2998 238.2 100.1C237 102.3 240.6 110.8 250.9 109.1C248.4 107.8 249 104.5 246 101.5ZM187.4 84.6998C185.2 84.5998 184.2 92.6998 184.2 92.6998C184.2 92.6998 185.8 86.9998 187.1 88.3998C191.9 93.1998 189.1 112.1 189.1 112.1C193.5 102.6 190.6 84.7998 187.4 84.6998ZM215.6 73.8998C215.3 73.0998 209.8 62.8998 189 72.9998C170.6 81.8998 157.7 95.4998 149.9 105.9C150.2 104.8 150.3 103.7 150.3 102.6C150.3 101.6 150.2 100.7 149.9 99.7998C149.4 97.9998 148.1 96.5998 146.3 95.9998C145.4 95.5998 144.3 95.4998 143.3 95.6998C142.9 95.6998 142.6 95.6998 142.6 94.7998C142.7 93.7998 142.7 92.6998 142.6 91.6998C142.4 90.7998 142.9 89.8998 143.8 89.6998C144 89.6998 144.1 89.5998 144.3 89.6998C144.8 89.6998 145.7 89.8998 146 91.2998C146.1 92.2998 146.1 93.7998 147.2 93.7998C147.9 93.7998 148 93.1998 148 92.8998C148 91.7998 147.8 91.7998 147.7 90.1998C147.6 88.5998 147.7 88.4998 146.9 88.4998C146.6 88.4998 146.2 88.5998 145.9 88.6998C145.7 88.7998 145.5 88.7998 145.3 88.7998H140.2C139.1 88.7998 138.4 88.5998 137.7 88.5998C137 88.5998 137 88.8998 137 88.9998C137 89.2998 137.2 89.2998 137.4 89.3998C137.6 89.4998 137.6 90.2998 137.6 90.4998C137.6 91.0998 137.6 93.4998 137.6 94.5998V101.2C137.6 102.8 137.6 107.1 137.7 108.6C137.7 109.1 137.7 109.2 137.4 109.5C137.1 109.8 137 109.8 137 110.1C137 111 138.3 110.5 139.1 110.5H142.1C142.6 110.5 143.1 110.6 143.5 110.6C143.9 110.6 144.2 110.7 144.6 110.7C145.2 110.7 145.9 110.6 146.5 110.4C144.3 113.6 142.3 116.8 140.5 120.3C164.4 84.6998 189.8 75.8998 189.8 75.8998C194.7 74.0998 208.7 69.6998 212.7 75.9998C218 84.4998 212.4 92.8998 212.4 92.8998C212.4 92.8998 219.9 83.7998 215.6 73.8998ZM144.8 107.2C144.8 107.9 144.8 109 144.1 109.4C143.9 109.5 143.7 109.6 143.5 109.6C142.8 109.6 142.6 108.9 142.6 108.4C142.6 107.9 142.7 108 142.7 107.3C142.7 106.9 142.8 105.9 142.8 105.5V100.6C142.8 99.9998 142.8 99.3998 142.6 98.7998C142.6 98.4998 142.5 98.1998 142.5 97.7998C142.5 97.3998 142.6 96.9998 142.9 96.7998C143 96.6998 143.2 96.6998 143.4 96.6998C143.8 96.6998 144.6 96.7998 144.8 98.7998C144.8 99.3998 144.8 99.9998 144.8 100.6V107.2ZM256.5 101.5C254.2 99.1998 249.7 98.2998 248.6 100.1C247.4 102.3 251 110.8 261.3 109.1C258.9 107.8 259.5 104.5 256.5 101.5ZM288 101.5C285.7 99.1998 281.2 98.2998 280.1 100.1C278.9 102.3 282.5 110.8 292.8 109.1C290.4 107.8 291 104.5 288 101.5ZM298.5 101.5C296.2 99.1998 291.6 98.2998 290.6 100.1C289.4 102.3 293 110.8 303.3 109.1C300.9 107.8 301.5 104.5 298.5 101.5ZM267 101.5C264.7 99.1998 260.2 98.2998 259.1 100.1C257.9 102.3 261.5 110.8 271.8 109.1C269.4 107.8 270 104.5 267 101.5ZM277.5 101.5C275.2 99.1998 270.7 98.2998 269.6 100.1C268.4 102.3 272 110.8 282.3 109.1C279.9 107.8 280.5 104.5 277.5 101.5ZM230.3 75.6998H231.9L234.3 79.6998H235.9L233.3 75.6998C234.6 75.6998 235.7 74.6998 235.7 73.3998C235.7 73.2998 235.7 73.2998 235.7 73.1998C235.7 71.3998 234.6 70.5998 232.5 70.5998H229V79.6998H230.4L230.3 75.6998ZM230.3 71.6998H232.2C233.2 71.6998 234.2 71.8998 234.2 72.9998C234.2 74.3998 233.2 74.4998 232 74.4998H230.4L230.3 71.6998ZM232 83.6998C236.8 83.5998 240.6 79.6998 240.6 74.8998C240.5 70.0998 236.6 66.2998 231.8 66.2998C227.1 66.3998 223.2 70.1998 223.2 74.8998C223.2 79.6998 227 83.5998 231.8 83.6998C231.9 83.7998 231.9 83.7998 232 83.6998ZM232 67.7998C236 67.6998 239.3 70.8998 239.4 74.8998C239.5 78.8998 236.3 82.1998 232.3 82.2998C228.3 82.3998 225 79.1998 224.9 75.1998C224.9 75.0998 224.9 75.0998 224.9 74.9998C224.8 71.0998 227.9 67.8998 231.7 67.7998C231.8 67.7998 231.9 67.7998 232 67.7998Z" fill="#48261D"/>
<path d="M112.3 154.6L112.9 154.7C114.3 154.9 115.6 154 115.9 152.5C115.9 152.4 115.9 152.3 115.9 152.2C116.2 151 115.5 149.8 114.3 149.5C114.2 149.5 114.1 149.4 113.9 149.4C112.4 149.2 111.1 150.2 110.9 151.7C110.9 151.8 110.9 151.8 110.9 151.9L109.8 151.8L110.2 148.4L111.3 148.5L111.5 149.4C112.4 148.6 113.7 148.2 114.9 148.4C116.4 148.6 119 149.5 118.7 152.5C118.6 154 117.5 155.1 116 155.4H115.5V155.5L116 155.6C117.7 156 118.9 157.6 118.6 159.4C118.5 160.5 118 161.4 117.3 162.2C116 163.3 114.3 163.7 112.6 163.4C111.3 163.4 110.1 162.8 109.2 161.9L109.1 162.9L108 162.8L108.5 159L109.6 159.1C109.4 160.6 110.5 161.9 111.9 162.1C112 162.1 112.1 162.1 112.2 162.1C113.8 162.4 115.3 161.5 115.6 159.9C115.6 159.8 115.7 159.6 115.7 159.5C115.8 158.9 115.7 158.3 115.5 157.7C115.1 156.6 114 155.9 112.8 155.9L112.2 155.8L112.3 154.6ZM139.7 164.3L141.3 164.4L141.2 165.6L135.3 165.2L135.4 164L137 164.1L137.7 153.7L136.7 154.5L136.1 153.6L139.2 150.9L140.8 151L139.7 164.3ZM152.7 161.8C150.6 161.7 148.8 159.9 149 156.5C149.2 152.9 151.6 151.4 153.6 151.4C155.8 151.5 158.2 153.4 158 158.7C157.8 162.4 156.6 166.7 152.9 166.5C151.1 166.5 149.5 165.1 149.5 163.3V163.2L151.7 163.3C151.8 164.5 152 165.5 153.1 165.5C154.8 165.6 155.1 162.9 155.2 160.7C154.5 161.4 153.6 161.8 152.7 161.8ZM153.6 152.5C152.1 152.4 151.8 154.7 151.7 156.3C151.6 158.4 151.7 160.6 153.2 160.6C153.9 160.6 155 160 155.2 156.5C155.2 154.6 155.1 152.6 153.6 152.5ZM172.6 162.6C172.6 165 170.6 167 168.2 167C168.1 167 168 167 167.9 167C165.5 167 163.6 165.2 163.6 162.8C163.6 162.7 163.6 162.5 163.6 162.4L166 162.5C166 165.2 167 166 167.9 166C169.5 166 169.7 164 169.7 162.7C169.8 159.7 168.4 159.4 167.5 159.3H166.8V158.6H167.5C168.5 158.6 169.4 158.3 169.5 155.6C169.5 154.7 169.4 153.1 168.1 153.1C166.8 153.1 166.5 154.4 166.4 156.1L164.2 156C164.1 154.5 164.9 153 166.3 152.4C166.9 152.1 167.5 152 168.2 152C170.2 151.8 172 153.4 172.1 155.4C172.1 155.5 172.1 155.7 172.1 155.8C172.1 157.1 171.2 158.3 169.9 158.7C171.7 159.3 172.7 160.9 172.6 162.6ZM183 152.2C185.3 152.2 187.2 154.3 187.2 159.8C187.2 165.3 185.2 167.3 182.9 167.3C180.6 167.3 178.7 165.2 178.7 159.7C178.7 154.2 180.7 152.2 183 152.2ZM182.9 166.2C184.5 166.2 184.5 162 184.5 159.7C184.5 157.4 184.7 153.2 183 153.2C181.3 153.2 181.4 157.4 181.4 159.6C181.4 161.8 181.2 166.2 182.9 166.2ZM207.6 165.7H209.2V166.9L203.2 167V165.8H204.8L204.6 153.7H203V152.5L208 152.4C210.1 152.4 212 152.5 213.1 154.3C213.6 155 213.8 155.9 213.8 156.7C213.8 157.6 213.6 158.5 213.2 159.2C212.1 161 210.2 161.4 207.6 161.4V165.7ZM207.5 160.2C208.9 160.5 210.3 159.6 210.7 158.2C210.9 157.7 210.9 157.2 210.9 156.6C210.9 156 210.8 155.4 210.5 154.9C209.9 153.8 208.6 153.2 207.3 153.5L207.5 160.2ZM225.9 151.5C230.1 151.3 233.6 154.5 233.8 158.6C234 162.8 230.8 166.3 226.7 166.5C222.6 166.7 219 163.5 218.8 159.4V159.3C218.6 155.3 221.7 151.7 225.9 151.5ZM226.5 165.5C229.3 165.4 230.5 162.3 230.4 158.9C230.3 155.5 228.7 152.5 225.9 152.6C223.1 152.7 221.9 155.8 222 159.2C222.1 162.6 223.7 165.6 226.5 165.5ZM248.1 151.6L246.5 151.7L246.4 150.5L251.2 150.1L251.3 151.3L249.6 151.4L246.2 155.6L249.8 161.4C250.4 162.4 251.4 163.5 252.4 163.4H252.8L252.9 164.5C252.3 164.8 251.6 164.9 250.9 164.9C249.4 165 248.1 164.2 247.4 162.9L244.4 157.9L243.4 159.2L243.8 164L245.3 163.9L245.4 165.1L239.5 165.5L239.4 164.3L240.9 164.2L240 152L238.5 152.1L238.4 150.9L244.3 150.5L244.4 151.7L242.9 151.8L243.3 157.5L248.1 151.6ZM266.2 149.7L264.7 149.9L264.6 148.7L268.7 148.2L268.8 149.4L267.3 149.6L264.1 161.2C263.7 162.4 263.5 163.7 261.9 163.9C261.3 164 260.7 163.9 260.1 163.6L260.7 161.5C261.1 161.8 261.6 162 262.1 162C262.8 161.9 263 161.4 263.1 160.9L263.2 160.4L257.2 150.7L256 150.8L255.9 149.6L261.5 149L261.6 150.2L260 150.4L263.9 156.7L264.1 157.3H264.2V156.7L266.2 149.7Z" fill="#48261D"/>
<path d="M102.6 25.8L98.8998 13.8L100.4 13.3L99.9998 12.1L94.1998 14L94.5998 15.2L96.0998 14.7L97.6998 19.6L91.8998 21.4L90.3998 16.5L91.8998 16L91.4998 14.8L85.6998 16.6L86.0998 17.8L87.5998 17.3L91.3998 29.3L89.8998 29.8L90.2998 31L96.0998 29.2L95.6998 28L93.9998 28.5L92.1998 22.7L97.9998 20.9L99.7998 26.7L98.2998 27.2L98.6998 28.4L104.5 26.6L104.1 25.4L102.6 25.8ZM128.6 20C127.8 20.2 126.9 20.1 126.2 19.8C124.7 19.1 123.2 17.1 122.7 14.5C121.8 9.8 123.8 7.6 125.9 7.2C127.7 6.8 129.5 7.9 130 9.7L131.1 9.5L130.3 5.3L129.3 5.5L128.9 6.8C127.7 6.1 126.4 5.9 125 6.2C123.9 6.4 122.9 6.8 122.1 7.4C120 8.9 118.8 11.7 119.4 15.1C120.3 19.6 124.1 22.2 128.2 21.4C130.3 21 132 19.6 133 17.8L131.9 17.1C131.4 18.6 130.1 19.7 128.6 20ZM113.9 22.9L110.9 10.8L112.4 10.4L112.1 9.2L106.2 10.6L106.5 11.8L108 11.4L111 23.6L109.5 24L109.8 25.2L115.7 23.7L115.4 22.5L113.9 22.9ZM310.1 19.2C307.2 18.1 304.8 19.4 304 21.6C303.3 23.4 304 25.5 305.6 26.4V26.5C305.1 26.4 304.6 26.5 303.8 27.2L301.8 29C300.8 29.9 300.5 30.2 299.2 29.8L298.8 30.9C299.5 31.3 300.2 31.7 301 32C301.8 32.4 302.7 32.2 303.4 31.6L306.4 28.7C307.2 28 307.6 27.5 308.9 28.2L307.2 32.7L305.7 32.1L305.2 33.3L310.9 35.5L311.4 34.3L309.9 33.7L314.4 22L315.9 22.6L316.4 21.4L310.1 19.2ZM309.2 27.2C306.4 26.3 306.1 24.8 306.8 22.9C307.5 21 309 20.1 310.4 20.7L311.5 21.1L309.2 27.2ZM79.8998 21C78.0998 19.7 76.3998 20.2 74.2998 21L69.5998 22.9L70.0998 24.1L71.5998 23.5L76.2998 35.1L74.8998 35.7L75.3998 36.9L81.0998 34.7L80.5998 33.5L78.8998 34L77.1998 29.8C79.5998 28.9 81.3998 27.8 81.6998 25.6C81.9998 23.9 81.2998 22.1 79.8998 21ZM76.7998 28.8L74.1998 22.4C75.9998 21.6 77.0998 22 77.7998 22.6C78.1998 23 78.5998 23.6 78.7998 24.2C78.9998 24.7 79.0998 25.2 79.0998 25.8C79.2998 27.2 78.2998 28.5 76.7998 28.8ZM68.1998 38.8L62.6998 27.5L64.0998 26.8L63.4998 25.7L58.0998 28.4L58.6998 29.6L60.0998 28.9L65.5998 40.2L64.1998 40.9L64.7998 42L70.1998 39.3L69.5998 38.2L68.1998 38.8ZM259.5 6.9L261.1 7.2L261 7.7L253.5 15.6L255.1 6.1L256.7 6.4L256.9 5.2L250.9 4.1L250.7 5.4L252.3 5.7L250.1 18L248.5 17.7L248.3 18.9L254.3 19.9L254.5 18.7L252.9 18.4L253 17.6L260.6 9.8L258.9 19.5L257.3 19.2L257.1 20.5L263.1 21.5L263.3 20.3L261.7 20L264 7.7L265.6 8L265.8 6.8L259.8 5.8L259.5 6.9ZM220.5 0.9L218.8 0.8L212.9 14.2L211.4 14.1L211.3 15.4L215.4 15.6L215.5 14.4L214.1 14.3L215.3 11.5L221.3 11.9L222.2 14.9L220.6 14.8L220.5 16.1L226.6 16.5L226.7 15.2L225.2 15.1L220.5 0.9ZM215.7 10.3L218.4 4.1L218.5 3.6H218.6V4.1L220.7 10.6L215.7 10.3ZM52.6998 39.2C53.9998 38.1 54.2998 36.2 53.3998 34.8C52.7998 33.8 51.0998 32.1 47.6998 34.1L42.2998 37.4L42.9998 38.5L44.3998 37.7L50.9998 48.4L49.6998 49.2L50.3998 50.3L56.0998 46.8C58.4998 45.4 59.2998 42.8 57.9998 40.6C57.0998 38.8 54.9998 38.1 53.2998 39C52.8998 39.1 52.7998 39.1 52.6998 39.2ZM46.7998 36.2L47.5998 35.7C48.8998 35 50.3998 35.5 51.0998 36.7C51.6998 37.9 51.3998 39.3 50.2998 40.1L49.4998 40.6L46.7998 36.2ZM54.3998 46.3L53.3998 46.9L50.1998 41.7L50.9998 41.2C52.1998 40.2 53.9998 40.5 54.9998 41.7C55.0998 41.8 55.1998 41.9 55.1998 42.1C56.0998 43.4 55.7998 45.3 54.3998 46.3ZM292.2 14.5L293.7 15L290 27L288.5 26.5L288.1 27.7L293.9 29.5L294.3 28.3L292.8 27.8L296.5 15.8L298 16.3L298.4 15.1L292.6 13.3L292.2 14.5ZM202 0.1L196.9 0V1.2H198.5L198.2 13.8H196.6V15.1L202.7 15.2V13.9H201.1L201.2 9.4C203.8 9.5 205.8 9.2 207 7.4C207.9 5.8 208 3.9 207.1 2.3C206 0.4 204.2 0.2 202 0.1ZM204.6 6.4C204.1 7.8 202.7 8.6 201.2 8.3L201.3 1.4C202.6 1.2 203.9 1.8 204.5 3C204.8 3.6 204.9 4.2 204.8 4.8C204.9 5.3 204.8 5.9 204.6 6.4ZM280.3 11.3L281.8 11.7L278.8 23.7L273.1 22.3L276 10.3L277.5 10.7L277.8 9.5L272.1 8L271.8 9.2L273.4 9.6L270.4 21.8L268.9 21.4L268.6 22.6L281 25.6L280 29.7L282.2 30.2L283.5 24.9L281.8 24.5L284.8 12.3L286.3 12.7L286.6 11.5L280.7 10L280.3 11.3ZM147.1 5.8L148.4 5.6L148 2.8L136.1 4.5L136.5 7.3L137.7 7.1L137.5 5.6L140.7 5.1L142.4 17.5L140.8 17.7L141 18.9L147 18.1L146.8 16.7L145.2 16.9L143.5 4.5L146.7 4L147.1 5.8ZM239.6 2.7L235.8 2.3L235.7 3.5L237.2 3.7L231.5 15.7L230 15.5L229.4 20.9L231.5 21.1L232 16.9L241.9 18L241.4 22.2L243.5 22.5L244.1 17.1L242.6 16.9L239.6 2.7ZM232.9 15.5L237.3 6.2L237.5 5.5H237.6V6.2L239.4 16.3L232.9 15.5ZM160.6 7.9L158.8 8.1L158.2 3L159.8 2.9L159.7 1.6L153.7 2.2L153.8 3.4L155.4 3.3L156.5 15.8L154.9 15.9L155 17.2L160.6 16.7C164.2 16.3 166.2 14.7 165.9 11.7C165.6 9 163.5 7.7 160.6 7.9ZM160.6 15.4L159.5 15.5L158.9 9.4L159.8 9.3C161.3 9.1 162.8 10.1 163 11.6C163 11.7 163 11.8 163 12C163.3 13.6 162.3 15.1 160.7 15.4C160.7 15.3 160.6 15.4 160.6 15.4ZM179.2 0.3L179.3 3.1H180.6V1.5L183.9 1.4L184.2 13.9H182.6V15.2L188.7 15.1V13.8H187L186.7 1.2L190 1.1V2.7H191.2V0L179.2 0.3ZM334.9 30.4L325.9 37.6L326.5 26.1L322.7 24.1L322.1 25.2L323.5 25.9L317.8 37.1L316.4 36.4L315.8 37.5L319.6 39.4L320.2 38.3L318.8 37.6L323.7 28L323.2 39.8L324.6 40.5L333.7 33.2L328.8 42.8L327.4 42.1L326.8 43.2L332.1 45.9L332.7 44.8L331.3 44.1L337.1 32.9L338.5 33.6L339.1 32.5L334.9 30.4Z" fill="#48261D"/>
<path d="M0 98.5C0 122.5 84.5 142 188.4 142C294 142 376.8 122.9 376.8 98.5C376.8 74.5 292.3 55 188.4 55C84.5 55 0 74.5 0 98.5ZM12.8 98.5C12.8 76.7 91.6 59 188.4 59C285.2 59 364 76.7 364 98.5C364 120.3 285.2 138 188.4 138C91.6 138 12.8 120.2 12.8 98.5Z" fill="#48261D"/>
</g>
<defs>
<clipPath id="clip0_10_2291">
<rect width="376.7" height="167.3" fill="white"/>
</clipPath>
</defs>
</svg>
