<svg width="374" height="76" viewBox="0 0 374 76" fill="none" xmlns="http://www.w3.org/2000/svg">
<path fill-rule="evenodd" clip-rule="evenodd" d="M302.131 40.5488L298.185 19.7403C308.821 15.2317 314.983 10.2605 341.019 17.3979C355.5 21.3675 364.5 16.0038 364.5 16.0038L368.5 38.0038C357.836 43.6553 348.84 46.2911 323.224 39.2689C316.761 37.497 308.53 37.9881 302.131 40.5488Z" fill="url(#paint0_linear_10_2297)"/>
<path fill-rule="evenodd" clip-rule="evenodd" d="M306.136 61.0376L302.191 40.229C312.827 35.7205 318.989 30.7493 345.025 37.8866C359.506 41.8562 368.5 37.0038 368.5 37.0038L372.108 58.8113C361.444 64.4627 352.846 66.7798 327.23 59.7577C320.767 57.9858 312.536 58.4769 306.136 61.0376Z" fill="url(#paint1_linear_10_2297)"/>
<path d="M38.5574 1C18.4118 1 2 17.423 2 37.777C2 58.131 18.4118 74.554 38.5574 74.554C58.7899 74.554 75.1148 58.0437 75.1148 37.777C75.2017 17.423 58.7899 1 38.5574 1ZM60.4398 38.7379C59.8319 50.4437 50.2801 59.7034 38.4706 59.7034C26.3137 59.7034 16.5014 49.8322 16.5014 37.6023C16.5014 32.7977 17.9776 28.3425 20.5826 24.7609C21.7115 23.1885 23.2745 23.0138 23.7087 23.1011C23.7087 23.1011 23.8824 23.4506 24.1429 24.0621C24.4034 24.6736 24.7507 25.023 25.1849 25.023C25.7927 25.023 26.3137 24.4115 26.8347 23.1885C27.4426 21.6161 28.2241 20.5678 28.9188 19.9563C29.7003 19.3448 30.395 18.908 31.1765 18.646C31.437 18.5586 31.6975 18.5586 31.958 18.4713C32.3053 18.3839 32.5658 18.2092 32.5658 18.0345C32.5658 17.5977 32.3922 17.2483 31.958 16.8988C33.7815 16.1126 36.1261 15.6759 38.9048 15.6759C41.423 15.6759 42.8123 16.0253 42.8123 16.0253C44.7227 16.5494 46.112 17.423 46.0252 18.0345C45.9384 18.646 45.07 18.9954 44.1148 18.8207C43.1597 18.646 41.5098 19.4322 40.4678 20.3931C39.4258 21.354 38.7311 22.577 38.9048 23.0138C39.0784 23.4506 39.5126 23.9747 39.6863 23.9747C39.9468 24.0621 40.2073 24.3241 40.381 24.5862C40.5546 24.8483 40.902 24.9356 41.0756 24.7609C41.3361 24.5862 41.5098 24.1494 41.423 23.6253C41.423 23.1885 41.8571 22.4023 42.465 21.9655C43.0728 21.5287 43.507 21.7908 43.507 22.577C43.507 23.3632 43.1597 24.4115 42.7255 24.8483C42.3781 25.3724 41.3361 26.0713 40.4678 26.4207C39.5994 26.7701 36.9076 26.3333 36.2129 27.2943C35.7787 27.9057 37.1681 28.5172 36.2997 28.954C35.7787 29.2161 35.1709 28.954 34.9104 29.4782C34.6499 30.0023 34.4762 30.9632 34.9104 31.3126C35.4314 31.8368 36.9944 31.1379 37.0812 30.5264C37.1681 29.8276 37.7759 29.8276 38.2101 29.9149C38.6443 30.0023 39.2521 29.8276 39.5126 29.5655C39.7731 29.3034 40.381 29.3034 40.7283 29.5655C41.0756 29.8276 41.5966 30.4391 41.6835 30.9632C41.8571 31.4 41.944 31.7494 41.3361 32.0989C41.0756 32.2736 41.1625 32.5356 41.423 32.623C41.6835 32.7977 42.465 32.7103 42.7255 32.5356C42.986 32.3609 43.1597 31.8368 43.2465 31.5747C43.3333 31.3126 43.7675 31.4874 44.028 31.4C44.2885 31.2253 44.1148 31.1379 43.7675 30.6138C43.3333 30.0897 42.5518 29.9149 42.465 28.954C42.3782 28.6046 43.2465 28.5172 44.1148 28.5172C44.8964 28.5172 45.7647 29.3908 45.9384 30.4391C46.112 31.4874 46.5462 32.2736 46.8936 32.2736C47.2409 32.2736 47.2409 34.0207 46.6331 34.1954C46.0252 34.3701 44.6359 34.4575 43.507 34.108C41.5098 33.5839 39.1653 33.0598 38.4706 32.9724C37.6891 32.8851 37.0812 32.2736 36.4734 32.1862C35.2577 32.0115 33.7815 33.3218 33.7815 33.3218C32.2185 33.846 31.1765 34.9816 30.916 35.9425C30.7423 36.9034 30.8291 38.3011 31.0896 39C31.3501 39.6988 32.5658 40.4851 33.6947 40.7471C34.8235 41.0092 36.5602 42.4069 37.6022 43.892C38.3838 47.0368 38.7311 49.6575 38.7311 49.6575C38.9916 51.6667 39.5994 53.5885 40.2073 53.9379C40.8151 54.3747 43.4202 53.7632 44.2885 52.0161C45.2437 50.269 44.8964 45.5517 45.1569 44.5908C45.4174 43.7172 48.0224 41.708 48.1961 40.8345C48.3697 40.0483 48.0224 38.9126 48.0224 38.9126C47.2409 37.0782 46.7199 35.5057 46.8936 35.4184C47.0672 35.331 47.5882 36.1172 48.0224 37.2529C48.4566 38.3011 49.5854 39 50.3669 38.6506C51.2353 38.3011 51.3221 37.0782 50.7143 35.7678C52.7115 35.5931 54.7087 35.5931 56.4454 35.7678C58.1821 35.9425 59.6583 36.6414 60.0056 36.9908C60.4398 38.1264 60.4398 38.7379 60.4398 38.7379Z" fill="#2D4878"/>
<path d="M89.79 29.4783C89.79 26.8576 89.9637 24.3243 92.3951 22.053C93.8713 20.6553 95.8685 19.7817 98.4735 19.7817C101.079 19.7817 103.076 20.6553 104.552 22.053C106.896 24.3243 107.157 26.8576 107.157 29.4783V45.9886C107.157 48.6093 106.983 51.1427 104.552 53.4139C103.076 54.8116 101.079 55.6852 98.4735 55.6852C95.8685 55.6852 93.8713 54.8116 92.3951 53.4139C90.0505 51.1427 89.79 48.6093 89.79 45.9886V29.4783ZM102.207 28.7794C102.207 27.7312 102.121 26.6829 101.165 25.722C100.644 25.1978 99.6892 24.761 98.4735 24.761C97.2578 24.761 96.3895 25.1978 95.7816 25.722C94.8265 26.6829 94.7396 27.7312 94.7396 28.7794V46.7748C94.7396 47.8231 94.8265 48.8714 95.7816 49.8323C96.3026 50.3565 97.2578 50.7932 98.4735 50.7932C99.6892 50.7932 100.558 50.3565 101.165 49.8323C102.121 48.8714 102.207 47.8231 102.207 46.7748V28.7794Z" fill="#2D4878"/>
<path d="M119.487 20.3057C120.964 20.3057 123.829 20.4804 126 21.9654C129.126 24.2367 129.126 27.9057 129.126 30.0022C129.126 32.2735 128.952 33.8459 127.65 35.4183C127.042 36.2045 126.26 36.7287 125.739 36.9907C127.042 37.6022 127.65 38.4758 128.084 39.1746C129.039 40.9218 129.039 41.8827 129.039 43.5424V46.1631C129.039 47.6482 129.039 51.2298 126.087 53.4137C124.958 54.2873 123.134 55.0735 120.182 55.0735H112.627V20.3057H119.487ZM117.751 34.8068H120.095C121.745 34.8068 122.787 34.108 123.221 33.4965C123.829 32.7976 124.176 31.5746 124.176 30.5264V28.4298C124.176 27.5562 123.742 26.6827 123.221 26.0712C122.613 25.4597 121.658 24.9355 120.008 24.9355H117.664V34.8068H117.751ZM117.751 50.7057H120.008C120.79 50.7057 122.353 50.6183 123.395 49.1333C124.263 47.9976 124.263 46.1631 124.263 45.639V43.9792C124.263 42.3195 124.003 41.0965 122.961 40.1356C122.179 39.5241 121.398 39.262 120.356 39.262H117.838V50.7057H117.751Z" fill="#2D4878"/>
<path d="M134.423 29.4783C134.423 26.8576 134.597 24.3243 137.028 22.053C138.504 20.6553 140.501 19.7817 143.106 19.7817C145.711 19.7817 147.709 20.6553 149.185 22.053C151.529 24.3243 151.79 26.8576 151.79 29.4783V45.9886C151.79 48.6093 151.616 51.1427 149.185 53.4139C147.709 54.8116 145.711 55.6852 143.106 55.6852C140.501 55.6852 138.504 54.8116 137.028 53.4139C134.683 51.1427 134.423 48.6093 134.423 45.9886V29.4783ZM146.84 28.7794C146.84 27.7312 146.753 26.6829 145.798 25.722C145.277 25.1978 144.322 24.761 143.106 24.761C141.891 24.761 141.022 25.1978 140.414 25.722C139.459 26.6829 139.372 27.7312 139.372 28.7794V46.7748C139.372 47.8231 139.459 48.8714 140.414 49.8323C140.935 50.3565 141.891 50.7932 143.106 50.7932C144.322 50.7932 145.19 50.3565 145.798 49.8323C146.753 48.8714 146.84 47.8231 146.84 46.7748V28.7794Z" fill="#2D4878"/>
<path d="M172.37 20.3057V24.1493L161.949 50.7057H172.109V55.1608H156.739V50.793L166.899 24.8482H157.434V20.393H172.37V20.3057Z" fill="#2D4878"/>
<path d="M184.006 20.3058C186.524 20.3058 190.171 20.131 192.516 23.0138C193.644 24.4115 194.339 26.5081 194.339 29.0414V31.6621C194.339 33.9333 193.558 36.0299 192.516 37.1655C191.734 38.0391 190.779 38.6506 189.911 38.9126L195.381 54.9862H190.258L185.482 39.9609H182.53V54.9862H177.493V20.3058H184.006ZM182.443 35.6805H185.221C186.35 35.6805 187.305 35.4184 188.261 34.5448C189.216 33.5839 189.303 32.7103 189.303 31.4V28.8667C189.303 27.5563 188.782 26.3333 188.174 25.7218C187.219 24.7609 186.003 24.8483 184.961 24.8483H182.356V35.6805H182.443Z" fill="#2D4878"/>
<path d="M199.549 20.3057H214.224V25.0229H204.498V35.2436H213.095V39.6988H204.498V50.3562H214.398V55.0735H199.549V20.3057Z" fill="#2D4878"/>
<path d="M228.292 55.1608H223.95L216.569 20.3057H222.039L226.034 44.416H226.208L230.376 20.3057H235.586L228.292 55.1608Z" fill="#2D4878"/>
<path d="M248.785 55.1608L247.135 47.7355H240.796L239.146 55.1608H234.196L241.751 20.3057H246.093L253.647 55.1608H248.785ZM243.835 30.0022L241.23 43.193H246.44L243.835 30.0022Z" fill="#2D4878"/>
<path d="M269.711 20.3057V25.0229H263.546V55.1608H258.596V25.0229H252.431V20.3057H269.711Z" fill="#2D4878"/>
<path d="M273.706 20.3057H288.381V25.0229H278.656V35.2436H287.252V39.6988H278.656V50.3562H288.555V55.0735H273.706V20.3057Z" fill="#2D4878"/>
<path d="M298.193 20.3057V50.4436H308.613V55.1608H293.157V20.3057H298.193Z" fill="#2D4878"/>
<defs>
<linearGradient id="paint0_linear_10_2297" x1="301" y1="35.5038" x2="366.5" y2="24.5038" gradientUnits="userSpaceOnUse">
<stop stop-color="#2B74D3"/>
<stop offset="0.239583" stop-color="#4A85D3"/>
<stop offset="0.463542" stop-color="#2B74D3"/>
<stop offset="0.75" stop-color="#4A85D3"/>
<stop offset="1" stop-color="#2B74D3"/>
</linearGradient>
<linearGradient id="paint1_linear_10_2297" x1="305.5" y1="54.0038" x2="370" y2="43.5038" gradientUnits="userSpaceOnUse">
<stop stop-color="#FFB117"/>
<stop offset="0.218037" stop-color="#FDC453"/>
<stop offset="0.468388" stop-color="#FFB117"/>
<stop offset="0.741921" stop-color="#FDC453"/>
<stop offset="1" stop-color="#FFB117"/>
</linearGradient>
</defs>
</svg>
