<svg width="17" height="23" viewBox="0 0 17 23" fill="none" xmlns="http://www.w3.org/2000/svg">
<path d="M2.77115 0.599024L4.32684 0.130099C5.79168 -0.311443 7.35677 0.402131 7.98408 1.79756L8.95249 3.95176C9.48719 5.14117 9.20542 6.539 8.25168 7.42837L6.56005 9.00585C6.53914 9.02534 6.52198 9.0485 6.50941 9.0742C6.33248 9.43585 6.6006 10.4021 7.44361 11.8623C8.39379 13.508 9.1282 14.1593 9.4674 14.0582L11.688 13.3792C12.9348 12.9981 14.2859 13.4526 15.0487 14.5098L16.4241 16.416C17.3169 17.6534 17.1564 19.3606 16.0484 20.4099L14.8656 21.5301C14.0301 22.3213 12.8601 22.6535 11.7335 22.4193C8.43712 21.7339 5.48374 19.0794 2.8486 14.5152C0.210855 9.94649 -0.610384 6.05832 0.449051 2.85918C0.808879 1.77263 1.67526 0.929351 2.77115 0.599024ZM3.17687 1.94505C2.51934 2.14324 1.99951 2.64921 1.78361 3.30114C0.870757 6.05766 1.61019 9.55854 4.06609 13.8123C6.51964 18.062 9.17907 20.4523 12.0196 21.0428C12.6956 21.1834 13.3976 20.9841 13.8989 20.5093L15.0818 19.3891C15.6783 18.8241 15.7648 17.9049 15.284 17.2386L13.9087 15.3324C13.4979 14.7632 12.7704 14.5184 12.0991 14.7236L9.87372 15.404C8.64204 15.7711 7.48443 14.7446 6.22612 12.5652C5.16089 10.7201 4.79109 9.38745 5.24659 8.45639C5.33461 8.27647 5.45485 8.11419 5.60131 7.97764L7.2929 6.40021C7.80645 5.92131 7.95818 5.16863 7.67026 4.52818L6.70185 2.37398C6.36406 1.6226 5.52133 1.23837 4.73256 1.47612L3.17687 1.94505Z" fill="#D70025"/>
</svg>
