<svg width="13" height="17" viewBox="0 0 13 17" fill="none" xmlns="http://www.w3.org/2000/svg">
<path d="M2.11911 0.452739L3.30876 0.0983285C4.42893 -0.235387 5.62576 0.303929 6.10547 1.35859L6.84603 2.98672C7.25491 3.88567 7.03944 4.94214 6.31011 5.61433L5.01651 6.80657C5.00052 6.8213 4.9874 6.83881 4.97778 6.85823C4.84248 7.13157 5.04752 7.86186 5.69218 8.96543C6.41878 10.2093 6.98039 10.7015 7.23977 10.6251L8.93792 10.112C9.89131 9.82387 10.9245 10.1674 11.5078 10.9665L12.5596 12.4071C13.2424 13.3424 13.1196 14.6326 12.2723 15.4257L11.3678 16.2723C10.7289 16.8704 9.83421 17.1214 8.97266 16.9444C6.45192 16.4264 4.19345 14.4201 2.17834 10.9705C0.161242 7.51751 -0.466764 4.57884 0.343392 2.16095C0.618554 1.33974 1.28108 0.702399 2.11911 0.452739ZM2.42937 1.47006C1.92656 1.61985 1.52904 2.00226 1.36394 2.49498C0.665873 4.57835 1.23132 7.22429 3.10936 10.4392C4.98561 13.6511 7.01929 15.4577 9.19148 15.9041C9.70841 16.0103 10.2452 15.8597 10.6286 15.5008L11.5331 14.6542C11.9893 14.2272 12.0554 13.5324 11.6878 13.0288L10.636 11.5882C10.3219 11.1579 9.7656 10.9729 9.25223 11.1281L7.55049 11.6423C6.60862 11.9197 5.72338 11.1439 4.76115 9.4967C3.94656 8.10223 3.66378 7.09499 4.0121 6.3913C4.07941 6.25531 4.17136 6.13266 4.28335 6.02946L5.57692 4.83724C5.96964 4.4753 6.08566 3.90643 5.86549 3.42238L5.12494 1.79424C4.86664 1.22635 4.22219 0.935952 3.61902 1.11564L2.42937 1.47006Z" fill="white"/>
</svg>
