<svg width="97" height="96" viewBox="0 0 97 96" fill="none" xmlns="http://www.w3.org/2000/svg">
<path d="M76.2693 86.4612V84.9612H74.7693H71.8524V70.49H93.1351C93.9749 70.49 94.6556 71.1706 94.6556 72.0105V83.4407C94.6556 84.2803 93.9747 84.9612 93.1351 84.9612H88.5089H87.0089V86.4612V88.2312C87.0089 88.4843 86.8038 88.6894 86.5507 88.6894H76.7276C76.4744 88.6894 76.2693 88.4843 76.2693 88.2312V86.4612Z" fill="white" stroke="#CE202F" stroke-width="3"/>
<path d="M46.7054 17.3198C46.7054 21.2352 43.5313 24.4093 39.6159 24.4093C35.7005 24.4093 32.5264 21.2352 32.5264 17.3198C32.5264 13.4043 35.7005 10.2302 39.6159 10.2302C43.5313 10.2302 46.7054 13.4043 46.7054 17.3198Z" fill="white" stroke="#CE202F" stroke-width="3"/>
<path d="M69.248 60.9363L69.2482 60.9364C70.8312 61.2603 72.02 62.6631 72.02 64.339V89.0267C72.02 90.945 70.4649 92.5001 68.5466 92.5001C66.7398 92.5001 65.1128 91.1119 65.1128 89.0267V64.3392C65.1128 63.1278 64.9204 61.9598 64.5653 60.8646C64.948 60.8642 65.297 60.8638 65.6158 60.8634C66.9009 60.8618 67.6938 60.8608 68.2146 60.8657C68.9529 60.8727 69.0343 60.8904 69.189 60.9238C69.2072 60.9278 69.2265 60.9319 69.248 60.9363Z" fill="white" stroke="#CE202F" stroke-width="3"/>
<path d="M60.8066 59.3655C60.1068 59.3655 45.1342 59.365 44.7159 59.3667L60.2914 55.6179L54.3715 31.5464L71.272 8.60254C72.6295 6.7598 72.2359 4.16509 70.3929 2.8078C68.5502 1.45028 65.9554 1.84391 64.5982 3.68688L47.5155 26.8784C47.2736 26.9267 37.1002 29.3992 36.4975 29.6326L15.5564 8.31426C13.9524 6.68175 11.3282 6.65807 9.69546 8.26207C8.06271 9.86607 8.03927 12.4903 9.64327 14.123L33.4372 38.3454C34.0741 40.9355 39.0449 61.1476 39.7756 64.1188C39.7725 64.1922 40.4691 67.2647 41.5744 68.1768C41.9786 68.5106 42.4387 68.7771 42.9353 68.9704C39.8911 68.9704 37.9609 68.9704 34.9112 68.9704V68.9902H5.02048C3.35245 68.9902 2 70.3427 2 72.0107V83.4409C2 85.109 3.35245 86.4614 5.02048 86.4614H10.2848V88.2314C10.2848 89.313 11.1615 90.1896 12.2431 90.1896H22.0662C23.1477 90.1896 24.0244 89.313 24.0244 88.2314V86.4614H51.0004V76.6828H51.0202V69.3125H55.8332V89.0264C55.8332 91.7731 58.0599 93.9998 60.8066 93.9998C63.5533 93.9998 65.78 91.7731 65.78 89.0264V64.3389C65.78 61.5922 63.5533 59.3655 60.8066 59.3655Z" fill="white" stroke="#CE202F" stroke-width="3"/>
</svg>
