<svg width="85" height="92" viewBox="0 0 85 92" fill="none" xmlns="http://www.w3.org/2000/svg">
<path d="M83.5112 88.4906L83.5135 88.4949C83.8522 89.1234 83.8305 89.9053 83.4796 90.5156C83.0993 91.124 82.4279 91.5 81.7114 91.5H2.55989C1.82933 91.5 1.17175 91.1249 0.790871 90.5143C0.426198 89.8903 0.402288 89.1357 0.731225 88.4875C0.731713 88.4866 0.732202 88.4856 0.732692 88.4847L6.63868 77.2633L6.63878 77.2634L6.64344 77.2541C6.97987 76.5812 7.69673 76.1516 8.45373 76.1516H11.1052H11.7598L11.5876 75.5201C10.5534 71.7284 10.0143 67.818 10.0143 63.8485C10.0143 44.1937 23.093 26.9499 41.9094 21.5717L42.0685 21.5262L42.1691 21.3948C43.4383 19.7363 45.2093 18.514 47.2497 17.9679L47.6205 17.8686V17.4849V11.606C47.6205 5.48987 52.6372 0.5 58.7567 0.5C64.8753 0.5 69.8623 5.48858 69.8478 11.5898V11.591V46.5303V46.9089L70.2122 47.0115C71.0767 47.2551 71.6963 48.0465 71.6963 48.9696C71.6963 50.1159 70.7706 51.0302 69.6357 51.0302H47.8477C46.7015 51.0302 45.7872 50.1045 45.7872 48.9696C45.7872 48.0465 46.4068 47.2551 47.2713 47.0115L47.6357 46.9089V46.5303V36.5909V36.208L47.2661 36.1082C46.7322 35.964 46.2127 35.7763 45.7071 35.5453L45.5349 35.4666L45.3537 35.5217C32.9477 39.2976 24.3478 50.7937 24.3478 63.8335C24.3478 68.0404 25.2112 72.049 26.9061 75.855L27.0382 76.1516H27.3629H56.166H56.666V75.6516V68.4849V67.9849H56.166H44.075C42.9271 67.9849 42.0145 67.0725 42.0145 65.9243C42.0145 64.7783 42.9402 63.8638 44.075 63.8638H73.378C74.524 63.8638 75.4386 64.7895 75.4386 65.9243C75.4386 67.0704 74.5128 67.9849 73.378 67.9849H61.2871H60.7871V68.4849V75.6516V76.1516H61.2871H75.7871C76.5485 76.1516 77.2459 76.5876 77.6024 77.2637L83.5112 88.4906ZM65.2264 46.9393H65.7264V46.4393V11.606C65.7264 7.73902 62.5935 4.6061 58.7265 4.6061C54.8595 4.6061 51.7266 7.73902 51.7263 11.606L51.7263 12.106H51.7416V17.4999V17.8842L52.113 17.983C56.1109 19.0473 59.0749 22.7313 59.0749 27.0605C59.0749 31.3905 56.1252 35.0737 52.1134 36.1378L51.7416 36.2365V36.6211V46.4393V46.9393H52.2416H65.2264ZM44.3782 27.0426V27.0455C44.3782 29.9568 46.7374 32.3333 49.666 32.3333C52.5774 32.3333 54.9538 29.9742 54.9538 27.0455C54.9538 24.1341 52.5947 21.7577 49.666 21.7577C46.7508 21.7577 44.3948 24.1348 44.3782 27.0426ZM40.2871 27.1777L40.281 26.4547L39.6067 26.7156C24.4165 32.592 14.1356 47.2605 14.1354 63.8487C14.1354 67.9306 14.7647 71.9511 15.9767 75.802L16.0868 76.1519H16.4537H21.8478H22.5666L22.3166 75.4779C20.9434 71.7764 20.2417 67.8657 20.2417 63.8487C20.2417 50.0101 28.7665 37.6765 41.3833 32.585L41.926 32.366L41.6249 31.8641C40.8033 30.4947 40.3015 28.8997 40.2871 27.1777ZM6.32956 86.6607L5.94299 87.3939H6.77185H77.469H78.2979L77.9113 86.6607L74.684 80.5395L74.5433 80.2727H74.2417H9.9992H9.69758L9.55691 80.5395L6.32956 86.6607Z" fill="#CE202F" stroke="white"/>
</svg>
