<svg width="92" height="92" viewBox="0 0 92 92" fill="none" xmlns="http://www.w3.org/2000/svg">
<path d="M21.0837 35.4584H8.62537C7.10008 35.4584 5.63767 36.0642 4.55935 37.1425C3.48104 38.2208 2.87537 39.6835 2.87537 41.2084V52.7084C2.87537 54.2333 3.48104 55.6961 4.55935 56.7744C5.63767 57.8527 7.10008 58.4584 8.62537 58.4584H43.9672" stroke="#CE202F" stroke-width="3" stroke-linecap="round" stroke-linejoin="round"/>
<path d="M71.875 58.4584H77.625V35.4584H49.0464" stroke="#CE202F" stroke-width="3" stroke-linecap="round" stroke-linejoin="round"/>
<path d="M89.125 35.4584V58.4584" stroke="#CE202F" stroke-width="3" stroke-linecap="round" stroke-linejoin="round"/>
<path d="M89.125 89.125L2.875 2.875" stroke="#CE202F" stroke-width="3" stroke-linecap="round" stroke-linejoin="round"/>
<path d="M89.125 20.125C89.125 18.6 88.5192 17.1375 87.4409 16.0591C86.3625 14.9808 84.9 14.375 83.375 14.375C80.325 14.375 77.3999 13.1634 75.2433 11.0067C73.1965 8.95996 72.0009 6.22112 71.8844 3.34021" stroke="#CE202F" stroke-width="3" stroke-linecap="round" stroke-linejoin="round"/>
</svg>
