<svg width="75" height="92" viewBox="0 0 75 92" fill="none" xmlns="http://www.w3.org/2000/svg">
<path d="M0 54.8174C0 75.3191 16.6754 91.9999 37.1825 91.9999C42.0663 92.0033 46.9029 91.0438 51.4156 89.1764C55.9283 87.309 60.0286 84.5702 63.482 81.1169C66.9354 77.6635 69.6741 73.5632 71.5415 69.0505C73.4089 64.5378 74.3684 59.7012 74.3651 54.8174C74.3646 54.4089 74.2021 54.0173 73.9133 53.7285C73.6244 53.4397 73.2329 53.2772 72.8244 53.2767H1.54066C1.1322 53.2772 0.740606 53.4397 0.451779 53.7285C0.162953 54.0173 0.000479697 54.4089 0 54.8174ZM71.2493 56.3581C71.1457 58.6702 70.8074 60.9658 70.2397 63.2095H4.12898C3.55799 60.9663 3.21848 58.6705 3.11576 56.3581H71.2493ZM4.47517 64.4783H69.8917C67.8068 71.536 63.4947 77.73 57.5993 82.135C51.704 86.54 44.5418 88.9197 37.1825 88.9186C21.7324 88.9186 8.65127 78.5907 4.47517 64.4783Z" fill="#CE202F"/>
<path d="M47.9019 82.0855C51.3788 80.5862 54.4697 78.3165 56.9411 75.4479C57.0509 75.3203 57.207 75.2415 57.3749 75.2289C57.5428 75.2164 57.7089 75.271 57.8365 75.3809C57.9641 75.4907 58.0429 75.6467 58.0555 75.8147C58.068 75.9826 58.0134 76.1486 57.9035 76.2763C55.3026 79.2911 52.0514 81.6765 48.3949 83.2527C48.3158 83.2862 48.2307 83.3034 48.1448 83.3035C47.9985 83.3038 47.8565 83.2536 47.743 83.1612C47.6294 83.0689 47.5513 82.9401 47.5219 82.7967C47.4924 82.6534 47.5135 82.5042 47.5814 82.3746C47.6494 82.245 47.76 82.1428 47.8947 82.0855H47.9019Z" fill="#CE202F"/>
<path d="M68.5903 19.9659C71.5719 16.8175 70.8089 12.172 70.7744 11.9907C70.7279 11.7224 70.6112 11.4713 70.4361 11.2628C70.261 11.0543 70.0337 10.896 69.7775 10.8039C69.5213 10.7118 69.2453 10.6892 68.9775 10.7385C68.7097 10.7878 68.4598 10.9071 68.2532 11.0844L61.4888 16.8864L63.5387 6.72164C63.5934 6.45049 63.5741 6.16961 63.4828 5.9085C63.3915 5.64739 63.2316 5.41567 63.0199 5.23768C62.8081 5.05969 62.5524 4.94198 62.2795 4.89692C62.0066 4.85186 61.7265 4.88111 61.4688 4.9816C61.2658 5.05954 56.4608 6.9754 55.1249 11.5593C54.5123 13.651 54.7225 15.8986 55.7448 18.2657C54.4248 18.0589 53.0749 18.1575 51.7989 18.5539C49.5749 19.2789 47.8711 20.9537 46.7365 23.5257C46.3916 24.3311 46.0979 25.1574 45.8574 25.9999C45.8574 26.018 45.8465 26.0379 45.8411 26.056C44.1463 31.8453 43.1712 41.5533 43.3561 46.6574C43.3828 47.4967 43.647 48.3112 44.118 49.0064C44.589 49.7016 45.2474 50.2491 46.0169 50.5852C46.5876 50.8386 47.205 50.9701 47.8294 50.9713C48.8854 50.9702 49.9065 50.593 50.7096 49.9073C53.0496 47.9244 56.2614 44.5911 59.0944 41.2071C61.2894 38.5825 63.0929 36.132 64.3091 34.1201C64.7618 33.3852 65.1674 32.6224 65.5235 31.8363C66.6599 29.2661 66.7488 26.8808 65.7881 24.7474C65.3819 23.8611 64.8223 23.0536 64.1351 22.3621C65.9639 21.9633 67.4538 21.1658 68.5903 19.9659ZM58.3277 22.3222L58.3748 22.3458L58.4292 22.373L58.4781 22.3965H58.4926L58.5271 22.4092L58.5887 22.4328L58.6213 22.4455C58.6829 22.4654 61.8839 23.5439 62.9877 26.0252C63.575 27.343 63.4844 28.8365 62.7086 30.591C62.4837 31.0874 62.2326 31.5714 61.9564 32.0411L59.3916 30.6726C59.318 30.6304 59.2367 30.6035 59.1524 30.5933C59.0682 30.5831 58.9827 30.5899 58.9012 30.6134C58.8196 30.6368 58.7436 30.6764 58.6776 30.7297C58.6116 30.783 58.557 30.8491 58.517 30.9239C58.4769 30.9987 58.4523 31.0808 58.4446 31.1653C58.4369 31.2498 58.4462 31.335 58.472 31.4159C58.4978 31.4967 58.5395 31.5716 58.5947 31.636C58.65 31.7004 58.7176 31.7531 58.7935 31.7909L61.2966 33.1268C59.9481 35.1858 58.4748 37.1604 56.8849 39.0393L51.953 36.7682C51.8001 36.6978 51.6255 36.6909 51.4676 36.7492C51.3097 36.8075 51.1815 36.9262 51.111 37.079C51.0406 37.2319 51.0338 37.4065 51.0921 37.5644C51.1504 37.7223 51.269 37.8505 51.4219 37.921L56.0366 40.0561C53.4991 43.0233 50.7476 45.8454 48.7212 47.5619C48.5224 47.7311 48.2799 47.8408 48.0216 47.8784C47.7633 47.9161 47.4996 47.8801 47.2607 47.7747C47.0219 47.6693 46.8176 47.4987 46.6714 47.2825C46.5251 47.0663 46.4427 46.8132 46.4338 46.5523C46.2652 41.914 47.099 33.2972 48.5744 27.7308L53.4954 29.9403C53.5768 29.9774 53.6652 29.9965 53.7546 29.9965C53.8997 29.9965 54.0404 29.9468 54.1532 29.8556C54.2661 29.7645 54.3443 29.6374 54.3748 29.4956C54.4053 29.3538 54.3863 29.2058 54.321 29.0763C54.2556 28.9468 54.1479 28.8436 54.0156 28.7839L48.926 26.4983C49.1026 25.9156 49.3114 25.3432 49.5513 24.7836C50.3271 23.0291 51.3639 21.9561 52.7378 21.5029C55.3297 20.6384 58.2969 22.2932 58.3277 22.3131V22.3222ZM59.7922 9.72321L58.3966 16.6363C57.8202 15.1101 57.7096 13.7108 58.0721 12.4511C58.3955 11.4037 58.9887 10.4598 59.7922 9.71415V9.72321ZM67.5028 15.7916C67.2846 16.5641 66.8857 17.2737 66.3391 17.8615C65.6141 18.6264 64.6033 19.1345 63.3067 19.3859L67.5028 15.7916Z" fill="#CE202F"/>
<path d="M27.8987 27.4789C25.6221 21.86 20.4564 18.1606 15.191 18.1606H15.0441C15.0278 18.1171 15.0097 18.0718 14.9916 18.0283C13.9566 15.4962 10.8318 14.3652 8.01328 15.5071C6.71586 16.0186 5.64459 16.978 4.99358 18.2114C4.66809 18.8146 4.4788 19.4818 4.43903 20.1661C4.39925 20.8503 4.50997 21.535 4.76339 22.1718C4.97438 22.6951 5.2818 23.174 5.66966 23.5838C3.40579 27.3013 3.08135 32.3148 4.89389 36.8027C7.17226 42.4215 12.2673 46.1137 17.5599 46.1228C18.3828 47.4767 19.9289 48.2616 21.6001 48.2616C22.3088 48.2604 23.0105 48.1219 23.6664 47.8537C26.2547 46.8061 27.5906 44.0474 26.6444 41.7201C26.6172 41.6566 26.59 41.5932 26.561 41.5298C29.3379 37.747 29.8816 32.371 27.8987 27.4789ZM23.5033 40.406C23.2386 40.6968 23.0954 41.0779 23.1031 41.471C23.1109 41.8641 23.269 42.2393 23.545 42.5194C23.648 42.6232 23.7293 42.7464 23.7842 42.8819C24.0869 43.6269 23.5015 44.5984 22.5154 45.0026C21.5294 45.4068 20.422 45.1168 20.1193 44.37C20.099 44.3138 20.0826 44.2563 20.0703 44.1978C19.988 43.8303 19.7737 43.5056 19.468 43.2855C19.1624 43.0654 18.7866 42.965 18.4118 43.0034C14.0617 43.4438 9.68807 40.4187 7.7559 35.6499C6.12461 31.6333 6.61762 27.1454 9.00474 24.2182C9.15307 24.0364 9.25791 23.8231 9.31128 23.5946C9.36464 23.3661 9.36512 23.1285 9.31266 22.8998C9.26021 22.6711 9.15622 22.4574 9.00862 22.275C8.86101 22.0926 8.67371 21.9463 8.46098 21.8474C8.08752 21.6868 7.78934 21.39 7.62721 21.0172C7.54616 20.7907 7.51442 20.5495 7.53411 20.3098C7.5538 20.07 7.62447 19.8372 7.7414 19.627C8.05322 19.045 8.56406 18.5946 9.18056 18.3582C10.4022 17.8616 11.758 18.2386 12.1404 19.1793C12.2131 19.365 12.247 19.5636 12.2401 19.7629C12.2341 19.9879 12.2776 20.2114 12.3673 20.4178C12.4571 20.6242 12.5911 20.8083 12.7598 20.9573C12.9284 21.1063 13.1277 21.2164 13.3436 21.28C13.5595 21.3436 13.7867 21.3591 14.0092 21.3253C14.4099 21.2645 14.8146 21.2342 15.22 21.2347C19.2474 21.2347 23.2477 24.1783 25.053 28.6299C26.7568 32.864 26.1514 37.4842 23.5033 40.406Z" fill="#CE202F"/>
<path d="M21.5693 38.394C21.4827 38.4373 21.3871 38.4597 21.2902 38.4593C21.1472 38.4586 21.0086 38.4097 20.8969 38.3204C20.7852 38.2311 20.707 38.1067 20.6749 37.9673C20.6428 37.828 20.6587 37.6819 20.72 37.5527C20.7814 37.4236 20.8846 37.3189 21.0129 37.2557C21.8706 36.8323 22.5254 36.086 22.8336 35.1804C23.1417 34.2749 23.0782 33.2841 22.6568 32.4253C22.586 32.2745 22.5774 32.1019 22.6327 31.9448C22.6881 31.7876 22.8031 31.6586 22.9528 31.5855C23.1025 31.5124 23.275 31.5012 23.4329 31.5542C23.5909 31.6072 23.7216 31.7203 23.7969 31.8689C24.0783 32.4445 24.2435 33.0699 24.2831 33.7095C24.3227 34.349 24.236 34.99 24.0277 35.596C23.8195 36.2019 23.494 36.7609 23.0697 37.241C22.6453 37.7211 22.1306 38.1129 21.5548 38.394H21.5693Z" fill="#CE202F"/>
<path d="M35.7308 47.9823C35.7305 48.5614 35.9019 49.1276 36.2234 49.6093C36.5449 50.091 37.0021 50.4665 37.537 50.6882C38.072 50.91 38.6607 50.9681 39.2287 50.8552C39.7967 50.7424 40.3185 50.4635 40.728 50.054C41.1375 49.6445 41.4163 49.1228 41.5292 48.5548C41.6421 47.9868 41.584 47.3981 41.3622 46.8631C41.1404 46.3281 40.7649 45.871 40.2833 45.5495C39.8016 45.2279 39.2354 45.0565 38.6563 45.0569C37.8808 45.0583 37.1376 45.367 36.5893 45.9153C36.0409 46.4636 35.7323 47.2069 35.7308 47.9823ZM36.9996 47.9823C36.9996 47.6542 37.0969 47.3335 37.2792 47.0607C37.4616 46.788 37.7207 46.5754 38.0238 46.4499C38.327 46.3245 38.6606 46.2917 38.9823 46.3559C39.3041 46.42 39.5996 46.5781 39.8315 46.8103C40.0633 47.0424 40.2211 47.3381 40.2849 47.6599C40.3487 47.9817 40.3156 48.3152 40.1898 48.6183C40.064 48.9213 39.8511 49.1802 39.5782 49.3622C39.3052 49.5442 38.9844 49.6412 38.6563 49.6408C38.2167 49.6403 37.7954 49.4654 37.4847 49.1544C37.1741 48.8434 36.9996 48.4219 36.9996 47.9823Z" fill="#CE202F"/>
<path d="M23.9039 10.6929C23.9039 10.0169 23.7035 9.35614 23.3281 8.79406C22.9526 8.23197 22.4189 7.79382 21.7945 7.53498C21.1701 7.27614 20.4829 7.20823 19.8199 7.33984C19.1569 7.47144 18.5478 7.79666 18.0695 8.27438C17.5913 8.7521 17.2655 9.36087 17.1331 10.0237C17.0008 10.6866 17.068 11.3738 17.3262 11.9985C17.5844 12.6233 18.022 13.1574 18.5836 13.5335C19.1453 13.9095 19.8059 14.1106 20.4819 14.1113C21.3888 14.1113 22.2587 13.7513 22.9003 13.1103C23.542 12.4693 23.903 11.5998 23.9039 10.6929ZM22.6352 10.6929C22.6355 11.118 22.5098 11.5336 22.274 11.8873C22.0382 12.241 21.7028 12.5168 21.3102 12.6799C20.9177 12.8429 20.4856 12.886 20.0685 12.8035C19.6515 12.7211 19.2683 12.5169 18.9673 12.2167C18.6664 11.9165 18.4612 11.5338 18.3777 11.117C18.2942 10.7001 18.3361 10.2679 18.4982 9.87497C18.6603 9.482 18.9353 9.14591 19.2884 8.90918C19.6414 8.67246 20.0568 8.54572 20.4819 8.54501C21.0521 8.54453 21.5993 8.77049 22.0031 9.17324C22.4068 9.57599 22.6342 10.1226 22.6352 10.6929Z" fill="#CE202F"/>
<path d="M73.2831 38.9794C73.2835 38.2499 73.0674 37.5368 72.6623 36.9301C72.2572 36.3235 71.6812 35.8507 71.0072 35.5715C70.3333 35.2924 69.5917 35.2194 68.8763 35.3619C68.1608 35.5044 67.5038 35.8559 66.9882 36.372C66.4726 36.8881 66.1218 37.5455 65.98 38.261C65.8382 38.9766 65.9119 39.7181 66.1917 40.3918C66.4715 41.0655 66.9449 41.641 67.5519 42.0455C68.159 42.45 68.8724 42.6654 69.6018 42.6643C70.578 42.6619 71.5136 42.2728 72.2035 41.5822C72.8935 40.8915 73.2817 39.9556 73.2831 38.9794ZM72.0143 38.9794C72.0143 39.4579 71.8724 39.9256 71.6064 40.3233C71.3405 40.7211 70.9626 41.031 70.5204 41.2138C70.0783 41.3967 69.5918 41.4442 69.1227 41.3505C68.6535 41.2567 68.2227 41.0259 67.8847 40.6872C67.5468 40.3485 67.3169 39.9172 67.2243 39.4478C67.1316 38.9784 67.1802 38.4921 67.3641 38.0503C67.5479 37.6086 67.8587 37.2314 68.257 36.9663C68.6554 36.7013 69.1234 36.5604 69.6018 36.5615C70.242 36.5634 70.8553 36.8189 71.3075 37.2721C71.7597 37.7253 72.0138 38.3392 72.0143 38.9794Z" fill="#CE202F"/>
<path d="M4.61487 46.7227C4.61451 47.1289 4.73465 47.5262 4.96008 47.8641C5.18552 48.2021 5.50612 48.4656 5.88134 48.6213C6.25656 48.777 6.66953 48.8179 7.06801 48.7389C7.46649 48.6598 7.83258 48.4644 8.11996 48.1773C8.40735 47.8901 8.60312 47.5242 8.6825 47.1258C8.76189 46.7274 8.72132 46.3144 8.56594 45.939C8.41056 45.5637 8.14735 45.2429 7.8096 45.0171C7.47184 44.7914 7.07473 44.6709 6.66848 44.6709C6.12429 44.6714 5.6025 44.8876 5.21753 45.2723C4.83256 45.6569 4.61583 46.1785 4.61487 46.7227ZM5.88365 46.7227C5.88365 46.5675 5.92968 46.4157 6.01592 46.2867C6.10216 46.1576 6.22473 46.057 6.36814 45.9976C6.51155 45.9382 6.66935 45.9227 6.8216 45.9529C6.97384 45.9832 7.11368 46.058 7.22344 46.1677C7.3332 46.2775 7.40795 46.4173 7.43823 46.5696C7.46852 46.7218 7.45297 46.8796 7.39357 47.023C7.33417 47.1664 7.23358 47.289 7.10451 47.3753C6.97545 47.4615 6.82371 47.5075 6.66848 47.5075C6.46033 47.5075 6.26071 47.4248 6.11352 47.2777C5.96634 47.1305 5.88365 46.9308 5.88365 46.7227Z" fill="#CE202F"/>
<path d="M51.3639 5.94399C51.3639 5.53775 51.2434 5.14063 51.0177 4.80288C50.792 4.46513 50.4711 4.20191 50.0958 4.04653C49.7204 3.89115 49.3074 3.85059 48.909 3.92997C48.5106 4.00936 48.1447 4.20513 47.8576 4.49251C47.5704 4.7799 47.375 5.14598 47.296 5.54447C47.2169 5.94295 47.2578 6.35592 47.4136 6.73113C47.5693 7.10635 47.8328 7.42696 48.1707 7.65239C48.5087 7.87783 48.9059 7.99796 49.3121 7.99761C49.8563 7.99665 50.3779 7.77992 50.7626 7.39495C51.1472 7.00998 51.3635 6.48818 51.3639 5.94399ZM50.0952 5.94399C50.0952 6.0993 50.0491 6.25111 49.9628 6.38021C49.8764 6.50931 49.7538 6.60991 49.6102 6.66925C49.4667 6.7286 49.3088 6.74404 49.1565 6.71361C49.0043 6.68318 48.8644 6.60825 48.7547 6.49831C48.645 6.38837 48.5704 6.24835 48.5404 6.09599C48.5103 5.94363 48.5261 5.78577 48.5858 5.64239C48.6454 5.49902 48.7463 5.37657 48.8756 5.29055C49.0049 5.20453 49.1568 5.1588 49.3121 5.15916C49.52 5.15964 49.7191 5.24254 49.8659 5.38967C50.0127 5.53681 50.0952 5.73616 50.0952 5.94399Z" fill="#CE202F"/>
<path d="M39.0822 28.3126C41.8699 24.6259 44.9132 18.9617 43.5012 12.9259C42.3303 7.87982 38.2684 3.5859 31.4333 0.162007C31.2493 0.0702756 31.0487 0.0162624 30.8436 0.00314306C30.6384 -0.0099763 30.4326 0.018063 30.2384 0.0856124C30.0442 0.153162 29.8655 0.258858 29.7127 0.396486C29.5599 0.534113 29.4362 0.700895 29.3488 0.887025C27.355 5.12838 25.5969 9.32079 26.0863 13.97C26.6409 19.2952 30.1246 24.1891 36.7368 28.9325C36.8625 29.0225 37.0013 29.0928 37.1482 29.141C36.9271 32.5087 36.2619 35.3906 35.1997 37.5475C35.1628 37.6223 35.141 37.7036 35.1355 37.7867C35.1299 37.8699 35.1409 37.9534 35.1677 38.0323C35.1944 38.1113 35.2365 38.1842 35.2914 38.2468C35.3464 38.3095 35.4132 38.3608 35.4879 38.3976C35.5755 38.4401 35.6715 38.4624 35.7689 38.4629C35.8872 38.4627 36.0032 38.4296 36.1037 38.3671C36.2043 38.3047 36.2854 38.2155 36.338 38.1094C37.4962 35.7531 38.2122 32.6301 38.4315 28.9978C38.5937 28.9006 38.7363 28.7739 38.852 28.6244C38.9281 28.5265 39.0079 28.4232 39.0876 28.3163L39.0822 28.3126ZM38.4043 23.7958C38.1197 19.3931 37.1845 15.043 35.7961 11.8801C35.7636 11.8023 35.716 11.7318 35.656 11.6726C35.596 11.6135 35.5248 11.5668 35.4466 11.5355C35.3684 11.5041 35.2847 11.4887 35.2004 11.49C35.1162 11.4914 35.033 11.5095 34.9559 11.5433C34.8787 11.5772 34.809 11.626 34.7509 11.6871C34.6929 11.7481 34.6475 11.8201 34.6176 11.8989C34.5876 11.9777 34.5737 12.0616 34.5765 12.1458C34.5794 12.2301 34.599 12.3129 34.6342 12.3894C36.1314 15.8043 37.0793 20.6655 37.2117 25.4397C32.2109 21.5682 29.5682 17.7038 29.1458 13.6473C28.796 10.2796 29.9597 6.98805 31.4605 3.6584C36.5845 6.49866 39.626 9.84643 40.5051 13.6274C41.357 17.2779 40.0972 20.8866 38.4043 23.7958Z" fill="#CE202F"/>
</svg>
