<svg width="96" height="62" viewBox="0 0 96 62" fill="none" xmlns="http://www.w3.org/2000/svg">
<path d="M47.5 7.42993C69.1317 7.42993 88.5 25.5451 88.5 47.5839C88.5 48.7285 88.4267 49.8028 88.3289 50.8842H6.6711C6.57326 49.8028 6.5 48.7285 6.5 47.5839C6.5 25.3938 25.8646 7.42993 47.5 7.42993Z" stroke="#CE202F" stroke-width="3"/>
<path d="M94.5 58.5318C94.5 58.9615 94.3671 59.2404 94.252 59.3838C94.1882 59.4633 94.1411 59.4924 94.1215 59.5018H1.86156C1.84077 59.4902 1.79832 59.4567 1.73813 59.3706C1.60693 59.1829 1.5 58.8718 1.5 58.5318V56.0618C1.5 55.6321 1.63288 55.3532 1.74799 55.2098C1.81177 55.1303 1.85888 55.1012 1.8785 55.0918H94.1385C94.1592 55.1034 94.2017 55.1369 94.2619 55.223C94.3931 55.4107 94.5 55.7218 94.5 56.0618V58.5318ZM94.1114 59.5058C94.1114 59.5058 94.1122 59.5055 94.1139 59.5051C94.1123 59.5056 94.1115 59.5058 94.1114 59.5058ZM1.87611 59.507C1.87601 59.5078 1.87158 59.5072 1.86314 59.5027C1.872 59.5039 1.87622 59.5062 1.87611 59.507ZM1.88856 55.0878C1.88858 55.0878 1.88778 55.0881 1.88611 55.0885C1.88771 55.088 1.88855 55.0878 1.88856 55.0878ZM94.1239 55.0866C94.124 55.0858 94.1284 55.0864 94.1368 55.0909C94.128 55.0897 94.1238 55.0874 94.1239 55.0866Z" stroke="#CE202F" stroke-width="3"/>
<mask id="path-3-inside-1_1_1235" fill="white">
<path fill-rule="evenodd" clip-rule="evenodd" d="M42 6.91872C42 3.03749 44.8537 0 48.5 0C52.1463 0 55 3.03749 55 6.91872"/>
</mask>
<path d="M45 6.91872C45 4.51516 46.6842 3 48.5 3V-3C43.0231 -3 39 1.55981 39 6.91872H45ZM48.5 3C50.3158 3 52 4.51516 52 6.91872H58C58 1.55981 53.9769 -3 48.5 -3V3Z" fill="#CE202F" mask="url(#path-3-inside-1_1_1235)"/>
<path d="M76.6674 34.5475L66.7688 22.5776C70.9192 25.6602 74.3592 29.7364 76.6674 34.5475Z" stroke="#CE202F" stroke-width="3"/>
</svg>
