<svg width="70" height="92" viewBox="0 0 70 92" fill="none" xmlns="http://www.w3.org/2000/svg">
<path d="M42.3061 25.7119H41.8223H28.1779H27.6941L27.3015 25.4292L5.06561 9.42062L5.06507 9.42023C4.8154 9.24031 4.52878 9.14834 4.22729 9.14834C3.75559 9.14834 3.31006 9.38159 3.03798 9.77803L3.03755 9.77865L1.76646 11.6287C1.76634 11.6289 1.76622 11.629 1.76611 11.6292C1.29692 12.3137 1.46645 13.2739 2.1313 13.7534C2.13147 13.7535 2.13163 13.7536 2.13179 13.7538L24.536 29.884L25.1596 30.3329V31.1013V87.0004C25.1596 88.9379 26.7255 90.5 28.627 90.5H28.9767C30.8781 90.5 32.444 88.9379 32.444 87.0004V60.8367V59.3367H33.944H36.0571H37.5571V60.8367V87.0004C37.5571 88.9379 39.1231 90.5 41.0245 90.5H41.3742C43.2757 90.5 44.8416 88.9379 44.8416 87.0004V31.1003V30.3319L45.4651 29.883L67.8699 13.7514L67.8702 13.7512C68.5329 13.2743 68.7038 12.3135 68.2331 11.6283L66.9629 9.77907L42.3061 25.7119ZM42.3061 25.7119L42.6987 25.4292M42.3061 25.7119L42.6987 25.4292M42.6987 25.4292L64.933 9.42105L42.6987 25.4292ZM44.2663 10.8351C44.2663 15.9903 40.0995 20.1701 35.0011 20.1701C29.9026 20.1701 25.7358 15.9903 25.7358 10.8351C25.7358 5.67985 29.9026 1.5 35.0011 1.5C40.0995 1.5 44.2663 5.67985 44.2663 10.8351ZM65.7719 9.14834C66.2431 9.14834 66.6891 9.38125 66.9625 9.77851L64.9336 9.4206C65.1853 9.23973 65.4714 9.14834 65.7719 9.14834Z" fill="white" stroke="#CE202F" stroke-width="3"/>
</svg>
