<svg width="66" height="84" viewBox="0 0 66 84" fill="none" xmlns="http://www.w3.org/2000/svg">
<path d="M62.9572 58.8262C56.5168 57.3364 48.1145 66.6652 42.4775 66.6652L43.063 76.3297L44.4614 82.5797H56.0375L57.2731 77.1558L63.1899 65.1737C63.9925 63.1165 63.9083 60.819 62.9572 58.8262Z" fill="#1A4313"/>
<path d="M55.2308 61.6196C56.1124 65.1341 51.7534 74.3339 51.6855 82.5793H56.0375C56.0375 82.5793 56.4268 78.5325 57.2731 77.1554C58.1193 75.7783 62.5508 65.1733 62.5508 65.1733C62.5508 65.1733 64.7821 59.9731 62.7079 58.8257C61.8905 58.6646 56.8214 60.3484 55.2308 61.6196Z" fill="#0E250A"/>
<path d="M59.0304 51.1223C58.3493 49.6949 58.2064 48.0769 58.6328 46.5541C59.7403 42.601 61.7127 34.8439 61.786 32.8778C61.8857 30.208 57.6369 27.2828 57.6369 27.2828C57.6369 27.2828 54.3066 19.3775 40.8316 39.657L40.8316 44.9586C39.2468 46.9033 41.3629 54.4714 40.8316 56.9235C40.4039 58.895 42.7343 66.3715 43.1238 67.8019C41.2455 66.6054 43.8136 70.3365 43.1238 67.8019C43.7322 68.2063 44.0256 68.2063 44.0256 68.2063C53.561 66.6577 52.0952 60.328 62.7073 58.826L59.0304 51.1223Z" fill="#0E250A"/>
<path d="M56.3247 26.6489L52.6973 48.6101L55.23 61.62C55.23 61.62 59.4485 59.1173 62.7071 58.8261L58.3613 48.1636L61.3213 32.186L56.3247 26.6489Z" fill="#1A4313"/>
<path d="M55.8539 21.5309C60.8863 19.0553 63.0886 13.2321 60.7727 8.52429C58.4568 3.8165 52.4999 2.00692 47.4675 4.48247C42.4351 6.95801 40.2328 12.7813 42.5487 17.489C44.8645 22.1968 50.8215 24.0064 55.8539 21.5309Z" fill="#FFC658"/>
<path d="M44.0928 82.5793C43.5583 82.5793 43.1139 82.0375 43.0924 81.3463L42.7792 71.4151C42.7566 70.7064 43.1873 70.1094 43.7403 70.0805C44.2885 70.0128 44.7593 70.6036 44.7819 71.3122L45.0951 81.2435C45.1177 81.9522 44.687 82.5491 44.1339 82.578C44.1201 82.5793 44.1065 82.5793 44.0928 82.5793Z" fill="#161616"/>
<path d="M51.6812 23.1274C47.7382 23.8852 43.5126 21.0725 41.9328 16.4487C40.7769 13.0323 41.3549 9.51314 43.1915 7.17559C44.0264 6.09672 45.1309 5.27472 46.4538 4.8252" stroke="#161616" stroke-width="4" stroke-miterlimit="10" stroke-linecap="round" stroke-linejoin="round"/>
<path d="M52.0464 36.6436L51.2352 49.4196C51.0325 51.1772 50.3835 54.9762 49.4101 56.1119C49.1397 56.9907 48.8017 58.8699 46.3682 59.3566" stroke="#FFC658" stroke-width="4" stroke-linecap="round" stroke-linejoin="round"/>
<path d="M43.3265 68.2799C42.3801 66.4548 40.4874 61.8716 40.4874 58.1402C40.8254 54.8955 41.2986 47.9599 40.4874 46.1753C39.4735 39.0775 44.016 32.0608 51.6411 27.5181C53.9394 25.8958 61.1725 27.5181 61.1725 31.7768L58.5361 44.7557C57.6574 46.4457 56.6299 50.4746 59.5501 53.0703C65.2537 58.1402 64.62 65.0352 61.1725 68.2799L57.725 75.5806C57.2518 75.7834 55.4942 81.4616 55.4942 81.4616M52.8578 37.2523L52.655 44.7557L52.4522 52.2591C51.979 54.8955 50.2619 60.1681 47.1795 60.1681" stroke="#161616" stroke-width="4" stroke-linecap="round" stroke-linejoin="round"/>
<path d="M61.2593 11.8449L41.2695 13.0037C43.2975 8.9478 40.4004 4.60219 51.9887 3.44336C54.4995 3.44336 59.8687 5.12366 61.2593 11.8449Z" fill="#1A4313" stroke="#161616" stroke-width="4" stroke-linejoin="round"/>
<path d="M35.4755 55.5907L33.7373 56.7495L24.7564 53.2326L20.121 49.9717L12.8784 47.8966L8.24305 45.8215L3.02832 42.2642L10.5607 43.4499L35.4755 55.5907Z" fill="#5C5C5C"/>
<path d="M39.1015 60.9095L39.1014 60.9097C38.9541 61.2385 38.6869 61.493 38.3512 61.6251C38.0063 61.7608 37.6288 61.7531 37.2903 61.6027L37.2897 61.6024C36.5992 61.2935 36.2888 60.4813 36.5973 59.7909L36.5973 59.7909L38.6114 55.2839C38.6114 55.2839 38.6114 55.2839 38.6114 55.2839C38.7586 54.9546 39.0259 54.7 39.3616 54.5679C39.707 54.432 40.0848 54.4401 40.4227 54.591L40.423 54.5911C40.7562 54.7403 41.0129 55.0117 41.1437 55.3538L41.1437 55.3538C41.2742 55.6954 41.2644 56.0687 41.1157 56.4022L41.1156 56.4025L39.1015 60.9095Z" fill="#0E0E0E" stroke="#161616" stroke-width="0.6"/>
<path d="M37.7044 57.0385L37.6977 57.0415L37.6917 57.0439C37.6914 57.044 37.6906 57.0443 37.6893 57.0449L37.6888 57.0451C37.686 57.0463 37.6797 57.049 37.6727 57.0517C37.4979 57.1205 37.3024 57.1166 37.1301 57.0402L37.1293 57.0399L34.8377 56.0158L34.5637 55.8934L34.6862 55.6194L35.0142 54.8857L35.1367 54.6119L35.4105 54.7342L37.4143 55.6294L38.9638 54.9303L39.2373 54.8069L39.3606 55.0804L39.6912 55.8131L39.8145 56.0865L39.5411 56.2099L37.7044 57.0385Z" fill="#0E0E0E" stroke="#161616" stroke-width="0.6"/>
<path d="M37.874 59.9415L37.9645 60.2275L37.6784 60.318L36.9118 60.5604L36.6258 60.6508L36.5353 60.3648L36.0228 58.7441L34.019 57.8489L33.7451 57.7265L33.8675 57.4526L34.1954 56.7185L34.3178 56.4446L34.5917 56.567L36.8834 57.5911L36.8837 57.5912C37.0665 57.6731 37.2054 57.8287 37.2662 58.0198L37.2663 58.0202L37.874 59.9415ZM36.9804 58.1106L36.9804 58.1106L36.9804 58.1106Z" fill="#0E0E0E" stroke="#161616" stroke-width="0.6"/>
<path d="M32.2481 56.9872L32.3705 56.7135L32.6985 55.9797L32.821 55.7058L32.5471 55.5833L30.2557 54.5594C30.2556 54.5594 30.2556 54.5594 30.2555 54.5593L30.2554 54.5593L30.133 54.8332C30.0698 54.8048 30.0008 54.7935 29.932 54.7998L32.2481 56.9872ZM32.2481 56.9872L31.9743 56.8649L29.8502 55.9162L32.2481 56.9872ZM29.9983 53.5735L29.5699 54.5319L29.9983 53.5735ZM29.9983 53.5735L30.1984 53.8433L30.1985 53.8434C30.2699 53.9397 30.3653 54.0166 30.4755 54.066L30.4758 54.0662L32.7675 55.0903L33.0415 55.2127L33.1638 54.9387L33.4918 54.2046L33.6141 53.9307L33.3402 53.8084L31.2165 52.8596L30.4109 51.7733L30.4109 51.7733C30.2623 51.5731 30.0189 51.4666 29.7708 51.4937M29.9983 53.5735L28.504 56.0403L28.476 55.7417L28.5035 56.0403L28.5038 56.0403C28.2549 56.0636 28.0131 55.9524 27.8682 55.75C27.7231 55.5471 27.6969 55.2825 27.7982 55.0552L27.7983 55.0549L29.206 51.905L29.206 51.9048C29.308 51.6772 29.5233 51.5205 29.7708 51.4937M29.7708 51.4937C29.7708 51.4937 29.7707 51.4937 29.7706 51.4937L29.8033 51.7918L29.771 51.4936C29.7709 51.4937 29.7709 51.4937 29.7708 51.4937Z" fill="#0E0E0E" stroke="#161616" stroke-width="0.6"/>
<path d="M35.4233 54.1436C35.7768 54.3018 35.9352 54.7168 35.7774 55.0705L35.7773 55.0707L34.514 57.8971L34.5138 57.8975C34.4356 58.0717 34.2944 58.1991 34.13 58.2638C33.9619 58.3299 33.7661 58.3322 33.5863 58.2512C33.2329 58.0929 33.0747 57.678 33.2324 57.3244L33.2325 57.3242L34.4958 54.4978L34.496 54.4974C34.6542 54.1447 35.0687 53.9846 35.4233 54.1436ZM35.4233 54.1436C35.4232 54.1435 35.4232 54.1435 35.4231 54.1435L35.3006 54.4173L35.4234 54.1436C35.4234 54.1436 35.4233 54.1436 35.4233 54.1436Z" fill="#0E0E0E" stroke="#161616" stroke-width="0.6"/>
<path d="M33.7993 53.4181C34.1528 53.5763 34.3112 53.9913 34.1535 54.345L34.1534 54.3452L32.89 57.1717L32.8898 57.1721C32.8117 57.3463 32.6705 57.4736 32.506 57.5383C32.3369 57.6049 32.1417 57.6057 31.9631 57.5261L31.9627 57.5259C31.6091 57.3677 31.4506 56.9527 31.6084 56.599L31.6085 56.5987L32.8718 53.7723L32.8719 53.7722C33.0301 53.4185 33.4451 53.2593 33.7993 53.4181ZM33.7993 53.4181C33.7993 53.4181 33.7994 53.4181 33.7994 53.4182L33.6766 53.6919L33.7991 53.418C33.7992 53.4181 33.7992 53.4181 33.7993 53.4181Z" fill="#0E0E0E" stroke="#161616" stroke-width="0.6"/>
<path d="M34.9719 54.5376L35.2458 54.6599L35.1235 54.9338L34.7958 55.6678L34.6735 55.9417L34.3996 55.8194L33.0053 55.1969L32.7314 55.0746L32.8537 54.8006L33.1814 54.0666L33.3037 53.7927L33.5777 53.915L34.9719 54.5376Z" fill="#0E0E0E" stroke="#161616" stroke-width="0.6"/>
<path d="M34.1526 56.3706L34.4265 56.4929L34.3042 56.7668L33.9765 57.5008L33.8541 57.7748L33.5802 57.6524L32.186 57.0299L31.912 56.9076L32.0343 56.6336L32.3621 55.8996L32.4844 55.6257L32.7583 55.748L34.1526 56.3706Z" fill="#0E0E0E" stroke="#161616" stroke-width="0.6"/>
<path d="M28.5485 55.8305L28.4261 56.1045L28.1522 55.982L23.5773 53.9371C23.5773 53.937 23.5772 53.937 23.5772 53.937C23.4072 53.861 23.2741 53.7205 23.2077 53.5468C23.1414 53.373 23.1463 53.18 23.2224 53.0097L23.2224 53.0096L24.6302 49.86L24.6303 49.8599C24.7884 49.5065 25.2037 49.3475 25.5574 49.5057C25.5575 49.5057 25.5575 49.5057 25.5575 49.5057L30.1326 51.5503L30.4065 51.6726L30.2841 51.9465L29.9562 52.6806L29.8338 52.9546L29.5599 52.8321L25.6255 51.0737L24.7904 52.9419L28.725 54.7002L28.9988 54.8226L28.8765 55.0964L28.5485 55.8305Z" fill="#0E0E0E" stroke="#161616" stroke-width="0.6"/>
<path d="M29.5864 51.4419L29.5862 51.4424C29.4532 51.7389 29.2122 51.9689 28.909 52.0881C28.5976 52.2107 28.2562 52.2033 27.9516 52.0672C27.9516 52.0672 27.9516 52.0671 27.9516 52.0671L25.0036 50.7495C24.8336 50.6737 24.7006 50.5335 24.634 50.3592C24.5676 50.1855 24.5726 49.9925 24.6486 49.8222L24.6487 49.822L25.2291 48.5235L25.2291 48.5234C25.3872 48.17 25.8026 48.011 26.1563 48.1692C26.1563 48.1692 26.1563 48.1692 26.1564 48.1692L29.1042 49.4868L28.982 49.7607L29.1044 49.4869L29.1043 49.4868C29.4053 49.621 29.637 49.8667 29.7549 50.1751C29.8727 50.4833 29.864 50.821 29.7292 51.1218C29.7292 51.1219 29.7292 51.122 29.7291 51.122L29.5864 51.4419ZM28.3796 50.7008L26.224 49.7371L26.2164 49.7541L28.3722 50.7175L28.3796 50.7008Z" fill="#0E0E0E" stroke="#161616" stroke-width="0.6"/>
<path d="M21.0584 48.9968L20.9359 49.2709L20.662 49.1483L19.9285 48.8201L19.6548 48.6976L19.7772 48.4238L20.071 47.7663L18.6029 47.1103L18.0783 48.2836L17.9559 48.5575L17.682 48.435L16.9478 48.1068L16.6739 47.9843L16.7964 47.7105L17.4023 46.3552C17.6729 45.7492 18.3858 45.4756 18.9928 45.747C18.9928 45.747 18.9928 45.747 18.9928 45.747L21.2845 46.7711L21.2846 46.7711C21.6382 46.9293 21.7967 47.3444 21.6389 47.6981L21.6388 47.6983L21.0584 48.9968Z" fill="#0E0E0E" stroke="#161616" stroke-width="0.6"/>
<path d="M24.2847 53.0897L24.1623 53.3637L23.8884 53.2413L18.1408 50.672C18.1407 50.672 18.1407 50.6719 18.1407 50.6719C17.9707 50.596 17.8378 50.4559 17.7712 50.2817C17.7048 50.108 17.7098 49.9149 17.7858 49.7446L17.7859 49.7445L18.5791 47.9696L18.5791 47.9695C18.7374 47.6156 19.153 47.4577 19.5061 47.6151L19.5063 47.6152L25.2547 50.1843L25.5285 50.3067L25.4062 50.5806L25.0783 51.3146L24.9559 51.5886L24.6819 51.4662L19.5745 49.1836L19.3539 49.6769L24.4612 51.9594L24.735 52.0818L24.6127 52.3556L24.2847 53.0897Z" fill="#0E0E0E" stroke="#161616" stroke-width="0.6"/>
<path d="M31.0492 52.7842C31.4028 52.9424 31.5612 53.3574 31.4034 53.7111L31.4033 53.7113L31.0107 54.5897L31.0105 54.5901C30.9323 54.7643 30.7911 54.8916 30.6267 54.9563C30.4586 55.0225 30.263 55.0245 30.0832 54.9439M31.0492 52.7842C30.6949 52.6253 30.2797 52.7853 30.1218 53.1383L30.1218 53.1384L29.7291 54.0168L29.729 54.017C29.5713 54.3707 29.7297 54.7857 30.0832 54.9439M31.0492 52.7842C31.0493 52.7842 31.0493 52.7842 31.0494 52.7843L30.9266 53.058L31.0491 52.7841C31.0491 52.7841 31.0492 52.7842 31.0492 52.7842ZM30.0832 54.9439C30.0832 54.9439 30.0832 54.9439 30.0831 54.9439L30.2059 54.6701L30.0834 54.944C30.0833 54.9439 30.0833 54.9439 30.0832 54.9439Z" fill="#0E0E0E" stroke="#161616" stroke-width="0.6"/>
<path d="M26.1881 59.0451L26.1883 59.0447L27.1484 56.8964L27.7129 56.5558C27.7129 56.5558 27.7129 56.5558 27.713 56.5558C27.8357 56.4817 27.9324 56.3719 27.9909 56.242L27.9911 56.2414L28.3751 55.3822L28.4975 55.1084L28.2237 54.986L27.4895 54.6577L27.2156 54.5352L27.0931 54.8092L26.7989 55.4675L26.2344 55.8081C26.2344 55.8082 26.2343 55.8082 26.2343 55.8082C26.1116 55.8822 26.0148 55.9921 25.9564 56.122L25.9561 56.1226L25.0903 58.0599L24.9208 57.9841L25.7867 56.0468L25.7867 56.0466C25.845 55.9161 25.8623 55.7704 25.8352 55.6291L25.8353 55.6294L25.5406 55.6853L25.8351 55.6286L26.1881 59.0451ZM26.1881 59.0451C26.0821 59.2815 25.8909 59.4542 25.6672 59.5422M26.1881 59.0451L25.6672 59.5422M25.6672 59.5422C25.4383 59.6323 25.1727 59.6346 24.9295 59.5256M25.6672 59.5422L24.9295 59.5256M24.9295 59.5256C24.9294 59.5256 24.9293 59.5256 24.9292 59.5255L24.9295 59.5256ZM25.7127 54.9821L25.6743 55.068L25.4004 54.9456L25.6952 54.8897L25.7127 54.9821ZM27.367 54.9316L27.2446 55.2055L27.2446 55.2054L27.367 54.9316ZM27.3671 54.9316L27.6409 55.054L27.6409 55.054L27.3671 54.9316ZM24.9985 53.8737L24.8764 54.147L24.8763 54.147L24.9985 53.8737ZM24.9988 53.8731L25.2727 53.9955L25.2727 53.9955L24.9988 53.8731ZM25.2418 58.4562L24.9679 58.3338L25.2418 58.4562ZM24.5869 54.9718L24.2923 55.0285C24.2922 55.0283 24.2922 55.0282 24.2922 55.028L24.2921 55.0277L24.5869 54.9718ZM24.4147 55.675L24.4531 55.5891L24.727 55.7115L24.4322 55.7673L24.4147 55.675ZM23.455 57.823L23.7288 57.9455L23.4549 57.8231C23.455 57.823 23.455 57.823 23.455 57.823ZM23.4355 58.5524C23.4355 58.5522 23.4354 58.552 23.4353 58.5519L23.7156 58.4448L23.4355 58.5524C23.4355 58.5524 23.4355 58.5524 23.4355 58.5524ZM23.9365 59.082L24.0588 58.8081L23.9367 59.0821L23.9365 59.082Z" fill="#0E0E0E" stroke="#161616" stroke-width="0.6"/>
<path d="M27.345 54.5938L27.6189 54.7162L27.4965 54.9901L27.1894 55.6775L27.067 55.9514L26.7931 55.829L26.0592 55.501L25.7853 55.3786L25.9077 55.1048L26.2149 54.4173L26.3373 54.1434L26.6111 54.2658L27.345 54.5938Z" fill="#0E0E0E" stroke="#161616" stroke-width="0.6"/>
<path d="M19.0671 50.318L19.0673 50.3175L19.8605 48.5426L19.8606 48.5424C19.9369 48.3715 19.9417 48.1778 19.8744 48.0035C19.8073 47.8294 19.6737 47.6889 19.5024 47.6134L19.5022 47.6133L17.9132 46.9141L17.913 46.914C17.5603 46.759 17.1473 46.9174 16.9895 47.2701L16.9895 47.2702L16.2003 49.0361L16.2002 49.0362C16.1242 49.2065 16.1192 49.3996 16.1856 49.5733M19.0671 50.318L16.4658 49.4662M19.0671 50.318C18.9889 50.4922 18.8478 50.6195 18.6833 50.6842C18.5152 50.7503 18.3195 50.7526 18.1397 50.6717M19.0671 50.318L18.1397 50.6717M16.1856 49.5733L16.4658 49.4662M16.1856 49.5733C16.1856 49.5733 16.1856 49.5733 16.1856 49.5733L16.4658 49.4662M16.1856 49.5733C16.252 49.7471 16.3851 49.8876 16.5552 49.9636M16.4658 49.4662C16.5038 49.5656 16.58 49.6461 16.6775 49.6896L18.2625 50.398M16.5552 49.9636L16.5551 49.9635L16.6774 49.6898L16.5552 49.9636ZM16.5552 49.9636L18.1391 50.6714L18.2625 50.398M18.2625 50.398L18.1401 50.6719L18.1397 50.6717M18.2625 50.398L18.1397 50.6717M18.0716 49.104L18.2905 48.6143L17.9863 48.4805L17.7682 48.9684L18.0716 49.104Z" fill="#0E0E0E" stroke="#161616" stroke-width="0.6"/>
<path d="M21.0441 53.3766L21.0439 53.3771C20.9678 53.5465 20.8289 53.6768 20.6601 53.7432C20.6032 53.7656 20.5412 53.7817 20.4749 53.7883C20.4745 53.7883 20.4742 53.7883 20.4739 53.7884L18.8572 53.956L18.857 53.9561C18.6081 53.9817 18.3637 53.8732 18.2162 53.6695C18.2162 53.6695 18.2162 53.6694 18.2161 53.6694L17.2618 52.352C17.1146 52.1489 17.0873 51.883 17.1892 51.6542L17.1894 51.6539L17.8531 50.1683L17.9755 49.8943L18.2495 50.0168L18.9837 50.345L19.2575 50.4674L19.1351 50.7413L18.6367 51.8569L19.1155 52.5178L19.9275 52.4335L20.1719 51.887L20.2943 51.6132L20.5682 51.7356L21.3024 52.0639L21.5763 52.1863L21.4538 52.4602L21.0441 53.3766Z" fill="#0E0E0E" stroke="#161616" stroke-width="0.6"/>
<path d="M20.1515 52.6158C20.0604 52.3784 20.0673 52.1181 20.1709 51.8864C20.1709 51.8864 20.1709 51.8863 20.1709 51.8863L20.5273 51.0886L20.6497 50.8147L20.9237 50.9372L21.6579 51.2654L21.9318 51.3879L21.8093 51.6618L21.6368 52.0475L22.8397 52.585L23.0121 52.199L23.1345 51.925L23.4085 52.0475L24.1427 52.3757L24.4165 52.4981L24.2942 52.772L23.9375 53.5702L23.9373 53.5706C23.8313 53.807 23.64 53.9798 23.4164 54.0678C23.1871 54.158 22.9217 54.1602 22.678 54.0504C22.6778 54.0503 22.6776 54.0502 22.6774 54.0501L20.6531 53.1457C20.6531 53.1457 20.653 53.1456 20.653 53.1456C20.421 53.0422 20.2423 52.8532 20.1515 52.6158ZM20.1515 52.6158C20.1515 52.6157 20.1514 52.6156 20.1514 52.6155L20.4316 52.5085L20.1516 52.6161C20.1516 52.616 20.1515 52.6159 20.1515 52.6158ZM20.6788 51.4849L20.6788 51.4849L20.8012 51.211L20.6788 51.4849ZM20.8016 51.2112L21.0751 51.3334L21.0751 51.3335L20.8016 51.2112ZM21.2616 51.4168L21.2616 51.4168L21.5355 51.5393L21.2616 51.4168ZM21.5354 51.5395L21.413 51.8132L21.413 51.8132L21.5354 51.5395ZM21.2405 52.1989L21.3629 51.9251L21.5144 52.3213L21.2405 52.1989L21.2405 52.1989Z" fill="#0E0E0E" stroke="#161616" stroke-width="0.6"/>
<path d="M20.4457 50.2837C20.7992 50.4419 20.9576 50.8569 20.7999 51.2106L20.7998 51.2109L20.3529 52.2102L20.3527 52.2107C20.2769 52.3793 20.1384 52.5101 19.9689 52.5768C19.9251 52.594 19.8818 52.6057 19.8424 52.6136L19.8424 52.6137L19.836 52.6149L19.1772 52.7326L19.1771 52.7326C18.7952 52.8006 18.431 52.5467 18.3626 52.1653L18.3625 52.1649C18.2942 51.7813 18.5501 51.4211 18.9279 51.3508L18.9279 51.3508L18.9301 51.3504L19.2231 51.2981L19.5183 50.6379L19.5183 50.6378C19.6762 50.2848 20.0913 50.1248 20.4457 50.2837ZM20.4457 50.2837C20.4457 50.2837 20.4456 50.2837 20.4456 50.2836L20.3231 50.5575L20.4459 50.2838C20.4458 50.2837 20.4458 50.2837 20.4457 50.2837ZM18.6579 52.1123C18.6189 51.8934 18.7645 51.6864 18.9828 51.6457L19.4322 51.5655L18.6579 52.1123ZM18.6579 52.1123C18.6971 52.3308 18.9055 52.4762 19.1245 52.4373L18.6579 52.1123Z" fill="#0E0E0E" stroke="#161616" stroke-width="0.6"/>
<path d="M21.131 58.3126L21.131 58.3127C21.0269 58.5454 20.8382 58.726 20.6004 58.8196C20.3565 58.9155 20.0886 58.9098 19.8496 58.803L19.8495 58.803L18.5149 58.2066L18.5145 58.2064C18.2792 58.1009 18.0974 57.9092 18.0049 57.6672C17.9125 57.4255 17.9196 57.1611 18.025 56.9253L18.025 56.9253L20.0475 52.4003C20.0475 52.4003 20.0475 52.4003 20.0475 52.4003C20.2607 51.9232 20.8504 51.6972 21.3285 51.9108C21.3285 51.9108 21.3286 51.9108 21.3286 51.9109L22.663 52.5069L22.6635 52.5071C22.8988 52.6126 23.0806 52.8043 23.1731 53.0463C23.2655 53.2879 23.2583 53.5524 23.153 53.7882C23.153 53.7882 23.153 53.7882 23.153 53.7882L21.131 58.3126ZM21.1521 53.3692L19.484 57.1015L20.0261 57.3438L21.6941 53.6115L21.1521 53.3692Z" fill="#0E0E0E" stroke="#161616" stroke-width="0.6"/>
<path d="M16.8296 50.0854L16.952 49.8116L17.28 49.0778L17.4025 48.8039L17.1286 48.6815L14.8374 47.6576L16.8296 50.0854ZM16.8296 50.0854L16.5557 49.963M16.8296 50.0854L16.5557 49.963M16.5557 49.963L14.3159 48.9623L9.55845 47.697L9.55835 47.6969C9.36007 47.6441 9.19394 47.5069 9.10532 47.3206M16.5557 49.963L11.4806 44.8399M11.4806 44.8399L10.7156 46.5518L14.7309 47.6196L14.7309 47.6195L14.7344 47.6205C14.7683 47.63 14.8025 47.642 14.8369 47.6574L11.4806 44.8399ZM11.4806 44.8399L14.9534 47.1187C14.9536 47.1188 14.9538 47.119 14.954 47.1191C14.9874 47.1412 15.021 47.1589 15.0529 47.1732L15.0534 47.1734L17.3451 48.1975L17.619 48.3199L17.7414 48.046L18.0693 47.3119L18.1917 47.038L17.9178 46.9156L15.6778 45.9146L11.5614 43.2138L11.5612 43.2137C11.3892 43.101 11.1765 43.0693 10.9791 43.1272L10.9789 43.1273C10.7805 43.1856 10.6198 43.3275 10.5359 43.5137L10.5355 43.5145L9.09785 46.7321L9.0977 46.7324C9.01407 46.9202 9.01664 47.1351 9.10532 47.3206M9.10532 47.3206C9.10539 47.3208 9.10546 47.3209 9.10553 47.3211L9.3761 47.1915L9.10512 47.3202C9.10518 47.3203 9.10525 47.3205 9.10532 47.3206Z" fill="#0E0E0E" stroke="#161616" stroke-width="0.6"/>
<path d="M2.0968 40.8893L2.09698 40.8888C2.25539 40.5358 2.67013 40.3767 3.024 40.5349C3.02404 40.5349 3.02408 40.5349 3.02411 40.535L5.24839 41.5288L10.0902 42.564C10.0903 42.5641 10.0905 42.5641 10.0906 42.5641C10.2983 42.6082 10.474 42.7442 10.5697 42.9324C10.6657 43.1211 10.6716 43.3434 10.5849 43.5372L9.14734 46.7545C9.14733 46.7545 9.14732 46.7546 9.14731 46.7546C9.07175 46.9238 8.93282 47.0546 8.7633 47.1213C8.74207 47.1296 8.71504 47.1392 8.68416 47.1469C8.47982 47.2005 8.26281 47.159 8.093 47.0353L8.09296 47.0352L4.09096 44.1185L1.86674 43.1241L1.86667 43.1241C1.51305 42.9659 1.35459 42.5508 1.51234 42.1971L1.51243 42.1969L2.0968 40.8893ZM4.85759 42.9391L4.85871 42.9399L8.21917 45.39L8.94953 43.7557L4.88423 42.8864C4.884 42.8863 4.88377 42.8863 4.88354 42.8862C4.83526 42.8761 4.78833 42.8608 4.74353 42.8409L4.74325 42.8407L3.09228 42.1026L3.08074 42.1284L4.73143 42.8664C4.77634 42.8864 4.81863 42.911 4.85759 42.9391Z" fill="#0E0E0E" stroke="#161616" stroke-width="0.6"/>
<path d="M17.1164 46.942L17.0617 47.0645L17.0616 47.0649C16.9041 47.4191 17.063 47.8335 17.417 47.9914L17.417 47.9914C17.5964 48.0714 17.7915 48.0699 17.96 48.0036C18.1245 47.9389 18.2662 47.8115 18.3441 47.6361C18.3441 47.636 18.3442 47.6359 18.3442 47.6358L19.0238 46.1112L19.024 46.111C19.1355 45.8601 19.0912 45.5673 18.9092 45.3612L17.1164 46.942ZM17.1164 46.942L16.1459 47.2357L16.1455 47.2358C15.7746 47.3476 15.383 47.1383 15.2706 46.7673L17.1164 46.942ZM15.7367 45.8926L15.7367 45.8926C15.3701 46.0069 15.1575 46.3939 15.2706 46.7672L15.7367 45.8926ZM15.7367 45.8926L15.7391 45.8919M15.7367 45.8926L15.7391 45.8919M15.7391 45.8919L18.1792 45.1536C18.1792 45.1536 18.1793 45.1536 18.1793 45.1536M15.7391 45.8919L18.1793 45.1536M18.1793 45.1536C18.1793 45.1536 18.1794 45.1536 18.1794 45.1536M18.1793 45.1536L18.1794 45.1536M18.1794 45.1536C18.4424 45.0739 18.7273 45.1549 18.9091 45.361L18.1794 45.1536Z" fill="#0E0E0E" stroke="#161616" stroke-width="0.6"/>
<path d="M17.0804 48.7431L17.0801 48.743C16.7269 48.5854 16.3114 48.7429 16.1532 49.0973L16.1532 49.0971L16.427 49.2198L16.153 49.0976L17.0804 48.7431ZM17.0804 48.7431C17.4346 48.9015 17.5928 49.3169 17.4342 49.6706C17.4342 49.6707 17.4342 49.6707 17.4342 49.6708L16.7518 51.1942L16.4779 51.072L16.7517 51.1946L16.7517 51.1945C16.6752 51.3658 16.5354 51.4951 16.3681 51.5609C16.2906 51.5914 16.2059 51.6091 16.1173 51.6099L16.1171 51.6099C15.8417 51.6121 15.5916 51.4534 15.4755 51.2051L15.4754 51.2048L14.3976 48.894C14.3976 48.894 14.3976 48.894 14.3976 48.894C14.2337 48.5427 14.3853 48.1253 14.7362 47.9612M17.0804 48.7431L16.0983 49.2196L15.6695 48.3003L15.6695 48.3002C15.5055 47.9488 15.084 47.7975 14.7362 47.9612M14.7362 47.9612C14.7364 47.9611 14.7366 47.961 14.7368 47.961L14.8636 48.2328L14.7356 47.9615C14.7358 47.9614 14.736 47.9613 14.7362 47.9612ZM17.1605 49.548C17.2513 49.3455 17.1607 49.1077 16.9579 49.0169L17.1605 49.548Z" fill="#0E0E0E" stroke="#161616" stroke-width="0.6"/>
<path d="M11.8163 44.0876L11.8166 44.0869C11.9744 43.7332 11.8159 43.3182 11.4623 43.16L11.4622 43.1599L10.2309 42.6096C10.2308 42.6096 10.2307 42.6095 10.2307 42.6095L10.2305 42.6094L10.1081 42.8833C9.90561 42.7925 9.66802 42.8837 9.57717 43.0862C9.48679 43.2888 9.57768 43.5266 9.78003 43.6171L11.8163 44.0876ZM11.8163 44.0876C11.7382 44.2618 11.597 44.3891 11.4325 44.4538C11.2645 44.5199 11.0687 44.5222 10.8889 44.4413L11.8163 44.0876Z" fill="#0E0E0E" stroke="#161616" stroke-width="0.6"/>
<path d="M10.3791 47.3047L10.3788 47.3054L8.79317 45.8273C8.79325 45.8273 8.79332 45.8273 8.79339 45.8274L10.0247 46.3777L10.0248 46.3777C10.3784 46.5359 10.5369 46.951 10.3791 47.3047Z" fill="#0E0E0E" stroke="#161616" stroke-width="0.6"/>
<path d="M17.8625 48.7133L17.8622 48.714C17.7841 48.8881 17.6429 49.0155 17.4784 49.0802C17.3104 49.1463 17.1146 49.1486 16.9348 49.0677C16.9346 49.0676 16.9344 49.0675 16.9342 49.0674L15.175 48.2813L15.1745 48.2812C14.8213 48.1227 14.6626 47.7079 14.8204 47.354L14.8207 47.3534C14.9791 47.0003 15.3938 46.8412 15.7477 46.9994C15.7477 46.9995 15.7477 46.9995 15.7478 46.9995L17.5079 47.786L17.5084 47.7862C17.8616 47.9447 18.0203 48.3594 17.8625 48.7133Z" fill="#0E0E0E" stroke="#161616" stroke-width="0.6"/>
<path d="M3.08857 42.1108L3.08828 42.1114L2.28367 42.1914L2.16131 42.4653L2.16112 42.4653C2.16105 42.4652 2.16097 42.4652 2.1609 42.4652L1.23501 42.0516L1.23456 42.0514C0.881287 41.8929 0.722568 41.4781 0.880393 41.1242L0.880668 41.1236C1.03907 40.7706 1.45379 40.6115 1.80765 40.7696C1.8077 40.7697 1.80775 40.7697 1.8078 40.7697L2.73396 41.1834L2.73441 41.1836C3.08768 41.3421 3.24639 41.7569 3.08857 42.1108Z" fill="#0E0E0E" stroke="#161616" stroke-width="0.6"/>
</svg>
