<svg width="55" height="83" viewBox="0 0 55 83" fill="none" xmlns="http://www.w3.org/2000/svg">
<g clip-path="url(#clip0_161_4012)">
<rect x="1.13867" y="10.8262" width="12.5278" height="14.8055" fill="#5C5C5C"/>
<path d="M6.54915 17.6596V16.5207H4.84082V14.2429L6.54915 13.9582V12.8193H8.25748L8.54221 14.8124H10.2505V16.236L8.54221 16.5207V17.6596H6.54915Z" fill="white"/>
<path d="M8.54129 32.1737V29.0418C7.78203 28.9469 6.32046 28.814 6.54824 29.0418C6.77602 29.2696 6.83296 31.2247 6.83296 32.1737C7.4024 32.2686 8.54129 32.4015 8.54129 32.1737Z" fill="#5C5C5C"/>
<path d="M8.64651 18.8188H6.46867C6.11111 18.8188 5.81856 18.5246 5.81856 18.1651V17.1847H4.8109C4.45335 17.1847 4.1608 16.8905 4.1608 16.531V14.3413C4.1608 13.9818 4.45335 13.6876 4.8109 13.6876H5.81856V12.6745C5.81856 12.315 6.11111 12.0208 6.46867 12.0208H8.64651C9.00407 12.0208 9.29661 12.315 9.29661 12.6745V13.6876H10.3043C10.6618 13.6876 10.9544 13.9818 10.9544 14.3413V16.531C10.9544 16.8905 10.6618 17.1847 10.3043 17.1847H9.29661V18.1651C9.29661 18.5246 9.00407 18.8188 8.64651 18.8188ZM7.08626 17.5115H7.9639V16.531C7.9639 16.1715 8.25645 15.8774 8.61401 15.8774H9.62167V14.9949H8.61401C8.25645 14.9949 7.9639 14.7008 7.9639 14.3413V13.3281H7.08626V14.3413C7.08626 14.7008 6.79372 14.9949 6.43616 14.9949H5.4285V15.8774H6.43616C6.79372 15.8774 7.08626 16.1715 7.08626 16.531V17.5115ZM14.3349 26.6299H0.747759C0.390203 26.6299 0.0976562 26.3357 0.0976562 25.9762V20.0934C0.0976562 19.7992 0.292687 19.5378 0.585234 19.4724C2.43803 19.0476 5.20096 18.8515 7.73637 20.3875C9.75169 21.6295 12.2871 21.1065 14.0749 20.4202C14.2699 20.3548 14.4974 20.3875 14.66 20.4856C14.8225 20.6163 14.9525 20.8124 14.9525 21.0085V25.9762C14.985 26.3357 14.6925 26.6299 14.3349 26.6299ZM1.39786 25.3226H13.6523V21.9236C11.6695 22.5119 9.16659 22.806 7.05376 21.466C5.10345 20.2568 2.99061 20.2895 1.39786 20.5836V25.3226ZM10.5968 22.4138C9.39413 22.4138 8.19144 22.1524 7.08626 21.466C4.94092 20.1261 2.53554 20.3222 0.910285 20.6817C0.715254 20.7144 0.520223 20.6817 0.357697 20.5509C0.195171 20.4202 0.0976562 20.2241 0.0976562 20.028V10.5828C0.0976562 10.2233 0.390203 9.92917 0.747759 9.92917H14.3024C14.66 9.92917 14.9525 10.2233 14.9525 10.5828V21.0085C14.9525 21.27 14.79 21.5314 14.5299 21.6295C13.4248 22.0543 12.027 22.4138 10.5968 22.4138ZM3.18565 19.1129C4.61587 19.1129 6.20862 19.4071 7.73637 20.3548C9.58916 21.4987 11.897 21.1392 13.6523 20.5509V11.2365H1.39786V19.2763C1.95045 19.1783 2.56805 19.1129 3.18565 19.1129ZM10.0117 11.2365H5.07094C4.8109 11.2365 4.55086 11.0731 4.45335 10.8116C4.32333 10.4521 4.25832 10.0926 4.25832 9.73308C4.25832 7.93555 5.72105 6.46484 7.50883 6.46484C9.29661 6.46484 10.7593 7.93555 10.7593 9.73308C10.7593 10.0926 10.6943 10.4521 10.5643 10.8116C10.5318 11.0404 10.2718 11.2365 10.0117 11.2365ZM5.59103 9.92917H9.49164C9.49164 9.86381 9.49164 9.79844 9.49164 9.73308C9.49164 8.65456 8.61401 7.77214 7.54134 7.77214C6.46867 7.77214 5.59103 8.65456 5.59103 9.73308C5.59103 9.79844 5.59103 9.86381 5.59103 9.92917ZM10.2718 29.1791H4.8109C4.45335 29.1791 4.1608 28.8849 4.1608 28.5254V25.9762C4.1608 25.6167 4.45335 25.3226 4.8109 25.3226H10.2718C10.6293 25.3226 10.9219 25.6167 10.9219 25.9762V28.5254C10.9219 28.8849 10.6293 29.1791 10.2718 29.1791ZM5.46101 27.8718H9.62167V26.6299H5.46101V27.8718ZM7.54134 33.1663C6.56618 33.1663 5.78606 32.382 5.78606 31.4015V28.5581C5.78606 28.1986 6.0786 27.9045 6.43616 27.9045H8.64651C9.00407 27.9045 9.29661 28.1986 9.29661 28.5581V31.4015C9.29661 32.3493 8.51649 33.1663 7.54134 33.1663ZM7.08626 29.1791V31.3688C7.08626 31.6303 7.28129 31.8264 7.54134 31.8264C7.80138 31.8264 7.99641 31.6303 7.99641 31.3688V29.1791H7.08626Z" fill="#161616"/>
<path d="M7.68804 32.3782L7.40332 43.9402C7.40332 56.5086 14.525 54.8053 14.525 43.9402C14.525 41.5733 14.525 36.8396 14.525 36.8396C14.525 25.4786 23.0162 25.7058 23.0162 36.8396V52.4609C23.0162 57.6441 27.9465 59.2775 29.0422 52.4609" stroke="#161616" stroke-width="3"/>
</g>
<path d="M50.0067 58.4886C43.6666 57.014 35.395 66.2478 29.8457 66.2478L30.422 75.8137L31.7987 82H43.1947L44.411 76.6314L50.2358 64.7714C51.0259 62.7352 50.943 60.4612 50.0067 58.4886Z" fill="#9B9B9A"/>
<path d="M42.4002 61.2541C43.2681 64.7328 38.9769 73.8388 38.9102 82.0002H43.1944C43.1944 82.0002 43.5776 77.9946 44.4107 76.6316C45.2438 75.2685 49.6063 64.7716 49.6063 64.7716C49.6063 64.7716 51.803 59.6244 49.761 58.4887C48.9563 58.3292 43.9661 59.9959 42.4002 61.2541Z" fill="#585858"/>
<path d="M46.1412 50.8634C45.4707 49.4506 45.33 47.8491 45.7498 46.3418C46.8401 42.429 48.7818 34.751 48.854 32.8049C48.9521 30.1623 44.7694 27.267 44.7694 27.267C44.7694 27.267 37.59 19.8442 28.2257 43.3003L28.2257 44.7626C26.6656 46.6874 28.7487 54.1784 28.2257 56.6055C27.8047 58.5569 30.0988 65.9572 30.4821 67.373C28.6331 66.1887 31.1612 69.8818 30.4821 67.373C31.0811 67.7733 31.3699 67.7733 31.3699 67.7733C40.757 66.2405 39.314 59.9753 49.7609 58.4886L46.1412 50.8634Z" fill="white"/>
<path d="M43.4772 26.6396L39.9062 48.377L42.3996 61.2542C42.3996 61.2542 46.5525 58.777 49.7604 58.4888L45.4822 47.9351L48.3961 32.1203L43.4772 26.6396Z" fill="#C2C2C2"/>
<path d="M43.0152 21.5737C47.9694 19.1234 50.1373 13.3595 47.8575 8.69967C45.5777 4.03988 39.7134 2.24874 34.7593 4.69905C29.8052 7.14937 27.6372 12.9133 29.917 17.5731C32.1969 22.2329 38.0611 24.024 43.0152 21.5737Z" fill="#FAD399"/>
<path d="M42.6345 14.198L41.0144 12.1625C34.6747 12.8465 31.5219 7.07508 31.4805 6.62389C32.3785 5.54102 35.074 2.81006 33.4719 3.8958C33.4719 3.8958 44.6621 -0.70638 49.1106 9.03941C52.8545 17.264 47.5615 16.3508 47.3404 18.0654C43.7641 13.3838 41.3292 12.2312 41.0144 12.1625C39.3013 11.5824 44.1323 16.9974 43.4139 15.0122L42.6345 14.198Z" fill="#36332F"/>
<path d="M47.6517 18.8685C49.4085 19.3502 52.8423 25.4925 51.2452 30.1092H49.6481L46.0546 20.4743C45.8549 19.7383 45.8949 18.3867 47.6517 18.8685Z" fill="#36332F"/>
<path d="M31.8016 81.9997C31.1274 81.9997 30.5668 81.4634 30.5397 80.7793L30.1446 70.9493C30.1162 70.2478 30.6595 69.6569 31.357 69.6283C32.0485 69.5613 32.6424 70.1461 32.6709 70.8474L33.066 80.6775C33.0944 81.379 32.5511 81.9698 31.8534 81.9985C31.8361 81.9997 31.8189 81.9997 31.8016 81.9997Z" fill="#161616"/>
<path d="M38.9079 22.0068C35.0263 22.7569 30.8664 19.9728 29.3112 15.3962C28.1733 12.0146 28.7423 8.53128 30.5503 6.21755C31.3722 5.14968 32.4596 4.33606 33.7619 3.89111" stroke="#161616" stroke-width="4" stroke-miterlimit="10" stroke-linecap="round" stroke-linejoin="round"/>
<path d="M46.854 17.8648C47.4529 18.0655 51.0464 16.6604 50.6471 12.2444C46.3349 -2.04746 35.5411 1.67271 30.8828 5.82109C30.8828 11.1203 37.9367 12.6458 41.2641 12.2444L46.854 17.8648ZM46.854 17.8648C49.1166 19.4706 53.2424 24.0472 51.6453 29.507C49.6489 36.3317 48.0518 22.6822 45.6561 20.2735L46.854 17.8648Z" stroke="#161616" stroke-width="4" stroke-linejoin="round"/>
<path d="M39.2676 36.5327L38.4691 49.1786C38.2694 50.9182 37.6306 54.6785 36.6723 55.8026C36.4061 56.6724 36.0734 58.5325 33.6777 59.0142" stroke="#FAD399" stroke-width="7" stroke-linecap="round" stroke-linejoin="round"/>
<path d="M30.6825 67.8459C29.7508 66.0394 27.8875 61.5029 27.8875 57.8096C28.2203 54.5979 28.6861 47.733 27.8875 45.9666C26.8894 38.9411 31.3613 31.9959 38.8677 27.4996C41.1303 25.8938 48.2508 27.4996 48.2508 31.7149L45.6555 44.5615C44.7904 46.2343 43.7788 50.222 46.6537 52.7914C52.2685 57.8095 51.6446 64.6343 48.2508 67.8459L44.8569 75.0722C44.3911 75.2729 42.6609 80.8933 42.6609 80.8933M40.0655 37.1346L39.8658 44.5615L39.6662 51.9884C39.2003 54.5979 37.51 59.8168 34.4756 59.8168" stroke="#161616" stroke-width="4" stroke-linecap="round" stroke-linejoin="round"/>
<defs>
<clipPath id="clip0_161_4012">
<rect width="54.0972" height="79.7221" fill="white"/>
</clipPath>
</defs>
</svg>
