<svg width="36" height="36" viewBox="0 0 36 36" fill="none" xmlns="http://www.w3.org/2000/svg">
<g clip-path="url(#clip0_279_3571)">
<path d="M32.0348 0.96876C31.5291 0.993181 31.065 1.15465 30.6572 1.33303C30.2805 1.4977 28.9279 2.1288 26.7739 3.13163C24.62 4.13447 21.7658 5.46411 18.7236 6.88441C12.6391 9.72501 5.80163 12.9203 2.29814 14.5569C2.17783 14.6126 1.68922 14.7786 1.14956 15.2361C0.608652 15.6947 0.0078125 16.69 0.0078125 17.7785C0.0078125 18.6565 0.402687 19.5508 0.879506 20.0628C1.35632 20.5748 1.83957 20.8141 2.24345 20.9924C3.42501 21.5147 7.07623 23.1333 8.66321 23.8383C9.21916 25.6877 10.5249 30.044 10.8305 31.1162H10.8271C11.0756 31.9889 11.3179 32.5577 11.6543 33.0324C11.8225 33.2698 12.0233 33.4849 12.2696 33.6547C12.3641 33.7199 12.4688 33.7704 12.5739 33.8179C12.5885 33.8248 12.6036 33.8265 12.6183 33.8331L12.5773 33.8217C12.6078 33.8353 12.6351 33.8553 12.6662 33.8672C12.7168 33.8866 12.7519 33.8859 12.82 33.9014C13.0598 33.9832 13.2991 34.038 13.5208 34.038C14.4722 34.038 15.0556 33.465 15.0556 33.465L15.0932 33.4346L19.2022 29.5756L24.234 34.7399C24.324 34.8811 25.0435 35.9656 26.7124 35.9656C27.7067 35.9656 28.4963 35.423 28.9993 34.85C29.5023 34.2769 29.8156 33.6906 29.9565 32.8958V32.8882V32.8844C30.0543 32.3203 34.8858 5.40075 34.8858 5.40075L34.8755 5.44629C35.0255 4.70347 35.0697 3.98512 34.8926 3.25306C34.7155 2.521 34.2376 1.80659 33.662 1.43169C33.0864 1.05679 32.5406 0.944338 32.0348 0.96876ZM31.3443 5.22241C31.1545 6.28007 26.8549 30.2575 26.5757 31.8485L21.5779 26.7221C20.2897 25.4001 18.281 25.3536 16.9426 26.6083L14.3925 29.0026L15.753 23.0984C15.753 23.0984 25.1386 12.5526 25.704 11.9387C26.159 11.4472 26.2543 11.2749 26.2543 11.1039C26.2543 10.8766 26.1489 10.7131 25.9056 10.7131C25.6869 10.7131 25.3897 10.9458 25.2322 11.0546C23.2221 12.4457 14.6156 17.8902 10.4476 20.5219C10.2911 20.4178 10.1371 20.3098 9.96563 20.2335C8.59803 19.626 5.96946 18.4562 4.43123 17.7747C8.06165 16.0786 14.2848 13.1723 20.0807 10.4664C23.1224 9.04637 25.9757 7.71554 28.1276 6.71366C29.9441 5.86794 30.8916 5.43005 31.3443 5.22241ZM26.521 32.1293H26.5244L26.521 32.1445C26.5239 32.1279 26.5189 32.1413 26.521 32.1293Z" fill="white"/>
</g>
<defs>
<clipPath id="clip0_279_3571">
<rect width="35" height="35" fill="white" transform="translate(0.0078125 0.965576)"/>
</clipPath>
</defs>
</svg>
