<svg width="35" height="35" viewBox="0 0 35 35" fill="none" xmlns="http://www.w3.org/2000/svg">
<g clip-path="url(#clip0_279_3567)">
<path d="M25.7701 20.7117C24.7979 19.9317 24.3491 19.6958 23.0068 18.9283C22.4477 18.6092 21.5954 18.3333 21.1483 18.3333C20.8429 18.3333 20.4772 18.5558 20.2532 18.7692C19.6792 19.3158 19.4911 20 18.4848 20C17.5004 20 15.7811 19.0458 14.5473 17.8125C13.2523 16.6375 12.2504 15 12.2504 14.0625C12.2504 13.1042 12.9557 12.9125 13.5297 12.365C13.7537 12.1525 14.0004 11.8042 14.0004 11.5133C14.0004 11.0875 13.7108 10.2883 13.3757 9.75583C12.5698 8.47667 12.3231 8.04917 11.5032 7.12417C11.2258 6.81083 10.9099 6.6675 10.5792 6.66667C10.0201 6.66583 9.28594 6.93 8.78894 7.2825C8.04169 7.81333 7.26031 8.53583 7.05119 9.43583C7.02319 9.55833 7.00656 9.68167 7.00131 9.805C6.96106 10.7425 7.34781 11.6942 7.76519 12.5C8.74781 14.3992 10.0481 16.2375 11.4629 17.8792C11.9153 18.4042 12.4079 18.8925 12.9181 19.3642C13.4133 19.8492 13.9261 20.3183 14.4773 20.75C16.2011 22.0975 18.1313 23.3358 20.1254 24.2717C20.9637 24.665 21.9507 25.0267 22.9254 25C23.0646 24.9958 23.2037 24.9808 23.3428 24.9517C24.2878 24.7533 25.0464 24.0083 25.6038 23.2967C25.9739 22.8233 26.2513 22.125 26.2504 21.5917C26.2496 21.2767 26.0991 20.9758 25.7701 20.7117ZM26.2504 16.6667C25.7674 16.6667 25.3754 16.2933 25.3754 15.8333V15C25.3754 10.865 21.8422 7.5 17.5004 7.5C17.0174 7.5 16.6254 7.12667 16.6254 6.66667C16.6254 6.20667 17.0174 5.83333 17.5004 5.83333C22.8073 5.83333 27.1254 9.94583 27.1254 15V15.8333C27.1254 16.2933 26.7334 16.6667 26.2504 16.6667ZM20.8762 15C20.4877 15 20.1324 14.7517 20.0301 14.3767C19.7903 13.5008 19.0728 12.8167 18.1567 12.5917C17.6886 12.4758 17.4077 12.0217 17.5284 11.5758C17.6492 11.1308 18.1252 10.8633 18.5951 10.9775C20.1246 11.355 21.3233 12.4958 21.7232 13.9558C21.8448 14.4017 21.5648 14.8558 21.0976 14.9725C21.0232 14.9908 20.9488 15 20.8762 15ZM23.6254 15.8333C23.1424 15.8333 22.7504 15.46 22.7504 15C22.7504 12.3433 20.5682 10.1517 17.7822 10.0117C17.2992 9.9875 16.9291 9.595 16.9544 9.13583C16.9798 8.67583 17.3989 8.3225 17.8741 8.3475C21.5902 8.53417 24.5004 11.4567 24.5004 15C24.5004 15.46 24.1084 15.8333 23.6254 15.8333ZM17.5004 0C13.5629 0 7.42744 0.345 3.68944 3.59667C1.04694 6.1025 0.000437563 9.6175 0.000437563 14.1667C0.000437563 14.5433 -0.00131256 14.9633 0.00218744 15.4167C-0.00131256 15.8692 0.000437563 16.2892 0.000437563 16.6658C0.000437563 21.215 1.04694 24.73 3.68944 27.2358C5.11219 28.4733 6.88669 29.2875 8.75044 29.8242V33.6458C8.75044 34.9758 9.66831 35 9.83631 35H9.84419C10.2764 34.9983 10.6501 34.7967 11.0246 34.48C11.1654 34.3608 12.7921 32.6342 14.5613 30.7458C15.6148 30.81 16.6158 30.8333 17.4996 30.8333C21.4371 30.8333 27.5717 30.4875 31.3106 27.2358C33.9522 24.7308 34.9996 21.215 34.9996 16.6658C34.9996 16.2892 35.0013 15.8692 34.9978 15.4158C35.0013 14.9625 34.9996 14.5433 34.9996 14.1658C34.9996 9.61667 33.9531 6.10167 31.3106 3.59583C27.5726 0.345 21.4379 0 17.5004 0ZM32.3754 16.3758V16.6658C32.3754 20.7542 31.4611 23.54 29.5002 25.4258C26.1034 28.3333 19.6328 28.3333 17.4996 28.3333C16.8503 28.3333 15.7968 28.3325 14.5534 28.25C14.2078 28.62 10.5004 32.5692 10.5004 32.5692V27.6833C8.65944 27.2625 6.84031 26.5725 5.50069 25.4267C3.53981 23.54 2.62544 20.7542 2.62544 16.6658V16.3758C2.62544 16.0833 2.62456 15.7675 2.62719 15.3983C2.62456 15.065 2.62456 14.75 2.62544 14.4567V14.1667C2.62544 10.0783 3.53981 7.2925 5.50069 5.40667C8.89656 2.49917 15.3681 2.49917 17.5004 2.49917C19.6328 2.49917 26.1034 2.49917 29.4993 5.40667C31.4611 7.2925 32.3746 10.0783 32.3746 14.1667V14.4567C32.3746 14.7492 32.3754 15.065 32.3728 15.4342C32.3754 15.7683 32.3754 16.0833 32.3754 16.3758Z" fill="white"/>
</g>
<defs>
<clipPath id="clip0_279_3567">
<rect width="35" height="35" fill="white"/>
</clipPath>
</defs>
</svg>
