<svg width="35" height="35" viewBox="0 0 35 35" fill="none" xmlns="http://www.w3.org/2000/svg">
<path d="M0 34.9901L2.5177 25.6344C1.09034 23.0729 0.346927 20.2049 0.346927 17.2874C0.346927 7.75362 8.1181 0 17.6735 0C27.2288 0 35 7.75362 35 17.2874C35 26.8212 27.2288 34.5747 17.6735 34.5747C14.8088 34.5747 11.9739 33.8528 9.43642 32.4781L0.0099122 35L0 34.9901ZM9.90229 28.9573L10.497 29.3134C12.6777 30.6089 15.1558 31.2913 17.6636 31.2913C25.405 31.2913 31.7091 25.0014 31.7091 17.2775C31.7091 9.55355 25.405 3.26362 17.6636 3.26362C9.92212 3.26362 3.61796 9.55355 3.61796 17.2775C3.61796 19.8291 4.33163 22.3411 5.66978 24.5465L6.03653 25.1399L4.629 30.3617L9.89238 28.9573H9.90229Z" fill="white"/>
<path fill-rule="evenodd" clip-rule="evenodd" d="M24.1052 19.6905C23.3915 19.2652 22.4597 18.7905 21.6271 19.1367C20.9828 19.4037 20.5665 20.4026 20.1502 20.9168C19.9321 21.1839 19.6843 21.2234 19.3473 21.085C16.9287 20.1257 15.0752 18.5136 13.737 16.2884C13.509 15.9423 13.5487 15.6752 13.8262 15.3489C14.2326 14.8742 14.7381 14.3401 14.8472 13.6973C14.9562 13.0545 14.6588 12.3127 14.3912 11.749C14.0542 11.027 13.6775 9.9886 12.944 9.57323C12.27 9.19742 11.3878 9.40511 10.7931 9.88971C9.76221 10.7303 9.2666 12.0358 9.27651 13.3412C9.27651 13.7072 9.32607 14.083 9.41528 14.439C9.62344 15.2994 10.0199 16.1005 10.466 16.862C10.803 17.4356 11.1697 17.9895 11.5662 18.5334C12.8647 20.2839 14.4705 21.8069 16.334 22.9541C17.2658 23.5277 18.2669 24.0222 19.3077 24.3684C20.4674 24.7541 21.5082 25.1497 22.767 24.9123C24.0853 24.6651 25.3838 23.8541 25.9092 22.5882C26.0678 22.2124 26.1372 21.797 26.0579 21.4014C25.8795 20.5806 24.7693 20.096 24.1052 19.7004V19.6905Z" fill="white"/>
</svg>
